<svg width="23" height="15" viewBox="0 0 23 15" fill="none" xmlns="http://www.w3.org/2000/svg">
<path d="M0.526899 7.6028L0.526899 7.3851C0.547685 7.30447 0.564313 7.22384 0.589258 7.14724C0.743076 6.72392 1.1297 6.44977 1.59532 6.43365C1.63273 6.43365 1.66599 6.43365 1.70341 6.43365C7.34481 6.43364 12.9904 6.43364 18.6318 6.43364L18.7108 6.43364C18.6858 6.40945 18.6734 6.39333 18.6567 6.3772C17.1144 4.88149 15.572 3.38577 14.0297 1.89005C13.8094 1.67638 13.6846 1.42239 13.6888 1.12002C13.693 0.696704 13.8967 0.378209 14.2833 0.172598C14.3914 0.112124 14.5119 0.0798709 14.6366 0.0637443C14.645 0.0637443 14.6574 0.0556838 14.6658 0.0556838L14.9027 0.0556838C14.911 0.059715 14.9152 0.0637443 14.9235 0.0637443C15.1896 0.0959975 15.4099 0.216945 15.597 0.402399C17.7795 2.51495 19.9579 4.6275 22.1405 6.74004C22.2569 6.85293 22.3484 6.98194 22.3983 7.13514C22.4315 7.23996 22.444 7.34881 22.4689 7.45766L22.4689 7.53023C22.4648 7.55039 22.4606 7.56652 22.4606 7.58668C22.4481 7.76407 22.3941 7.92936 22.286 8.0745C22.207 8.17932 22.1156 8.27204 22.0199 8.36477C19.8748 10.4491 17.7255 12.5294 15.5803 14.6097C15.4224 14.7629 15.2395 14.8637 15.0233 14.9121C14.9817 14.9201 14.9443 14.9282 14.9027 14.9362L14.6658 14.9362C14.5826 14.9161 14.4995 14.9 14.4205 14.8758C13.6805 14.6258 13.4477 13.7268 13.9715 13.1624C14.0006 13.1301 14.0297 13.1019 14.0588 13.0737C15.5887 11.59 17.1227 10.1024 18.6526 8.61876C18.6692 8.60263 18.69 8.58651 18.7108 8.57441C18.7066 8.57038 18.7066 8.56232 18.7025 8.55829L1.64936 8.55829C1.10892 8.55829 0.680721 8.23173 0.556001 7.72375C0.547687 7.68344 0.539369 7.64312 0.526899 7.6028Z" fill="white"/>
</svg>
