<svg width="104" height="163" viewBox="0 0 104 163" fill="none" xmlns="http://www.w3.org/2000/svg">
<path d="M29.6109 24.2437C29.7065 27.1893 30.1024 30.1213 30.6075 33.0127C31.1809 36.3112 31.9044 39.5826 32.6007 42.854L32.7235 43.4649H30.5256C30.6485 43.7092 30.7031 44.0214 30.7031 44.2657C30.7031 44.7951 30.471 45.5689 29.8157 45.5689H29.2833V134.331H29.7338C30.3072 134.331 30.744 134.82 30.744 135.376C30.744 135.553 30.7031 135.716 30.6212 135.879C31.1945 135.879 31.6314 136.367 31.6314 136.924C31.6314 137.48 31.1945 137.969 30.6212 137.969C30.7031 138.118 30.744 138.281 30.744 138.458C30.744 139.014 30.3072 139.503 29.7338 139.503H29.2696C28.6416 146.847 28.2048 154.204 27.959 161.548C27.959 162.023 27.9044 163 27.2218 163C26.5392 163 26.4846 162.023 26.4846 161.575C26.2389 154.217 25.8157 146.86 25.1877 139.516H24.7235C24.1502 139.516 23.7133 139.028 23.7133 138.471C23.7133 138.295 23.7543 138.132 23.8362 137.983C23.2628 137.983 22.8259 137.494 22.8259 136.937C22.8259 136.381 23.2628 135.892 23.8362 135.892C23.7543 135.743 23.7133 135.566 23.7133 135.39C23.7133 134.833 24.1502 134.345 24.7235 134.345H25.1741C25.1741 104.753 25.1741 75.1744 25.1741 45.5824H24.6416C23.9863 45.5824 23.7543 44.8087 23.7543 44.2793C23.7543 44.035 23.8089 43.7228 23.9317 43.4784H21.7338L21.8703 42.8676C22.5529 39.5962 23.2764 36.3248 23.8635 33.0262C24.3686 30.1213 24.7645 27.2029 24.8601 24.2572C22.1433 24.3658 19.4403 24.7731 16.7645 25.3025C13.7065 25.9133 10.6621 26.6735 7.6314 27.4201L7.00341 27.5829V15.9091L7.6314 16.0584C10.6621 16.805 13.6928 17.5651 16.7645 18.176C19.4403 18.7054 22.1297 19.1126 24.8601 19.2212C24.7509 16.2756 24.3686 13.3435 23.8635 10.4386C23.2901 7.14007 22.5666 3.86867 21.8703 0.597268L21.7338 0H32.7235L32.6007 0.597268C31.9181 3.86867 31.1809 7.14007 30.6075 10.4386C30.1024 13.3435 29.7065 16.2756 29.6109 19.2212C32.3276 19.1126 35.0307 18.7054 37.6928 18.176C40.7645 17.5651 43.7952 16.805 46.8259 16.0584L47.4539 15.9091V27.5829L46.8259 27.4201C43.7952 26.687 40.7509 25.9133 37.6928 25.3025C35.0307 24.7731 32.3276 24.3658 29.6109 24.2572" fill="#010101"/>
<path d="M28.7645 139.449H25.6928C26.3208 146.779 26.7577 154.15 27.0034 161.548C27.0034 162.077 27.099 162.498 27.2355 162.498C27.372 162.498 27.4676 162.077 27.4676 161.548C27.7133 154.15 28.1502 146.792 28.7782 139.449M28.7782 134.372V45.5553H25.7065C25.7065 71.4958 25.7065 108.744 25.7065 134.372H28.7782ZM24.7372 137.915H29.7338C30.0068 137.915 30.2389 138.159 30.2389 138.458C30.2389 138.756 30.0068 139.001 29.7338 139.001H24.7372C24.4642 139.001 24.2321 138.756 24.2321 138.458C24.2321 138.159 24.4642 137.915 24.7372 137.915ZM23.8498 136.367H30.6348C30.9079 136.367 31.1399 136.612 31.1399 136.91C31.1399 137.209 30.9079 137.453 30.6348 137.453H23.8498C23.5631 137.453 23.3447 137.209 23.3447 136.91C23.3447 136.612 23.5768 136.367 23.8498 136.367ZM24.7372 134.833H29.7338C30.0068 134.833 30.2389 135.078 30.2389 135.376C30.2389 135.675 30.0068 135.919 29.7338 135.919H24.7372C24.4642 135.919 24.2321 135.675 24.2321 135.376C24.2321 135.078 24.4642 134.833 24.7372 134.833Z" fill="#C9AE4F"/>
<path d="M24.6553 43.4513H29.8157C30.0205 43.4513 30.198 43.8178 30.198 44.2522C30.198 44.6865 30.0205 45.053 29.8157 45.053H24.6553C24.4505 45.053 24.273 44.7001 24.273 44.2522C24.273 43.8042 24.4505 43.4513 24.6553 43.4513Z" fill="#C9AE4F"/>
<path d="M8.58703 17.8909L8.66894 17.9181C14.116 19.2619 19.7406 20.6465 25.3379 20.7958L26.3481 20.823H26.471V20.7144L26.4437 19.7099C26.3072 13.8729 25.0648 8.0224 23.8362 2.30763L23.686 1.57462H30.7577L30.6075 2.30763C29.3925 8.0224 28.1365 13.8729 28 19.7099L27.9727 20.7144V20.8365H28.0819L29.1058 20.8094C34.7031 20.6601 40.3276 19.2755 45.7747 17.9316L45.8567 17.9045V25.5468H45.7747C40.3276 24.1894 34.7031 22.8048 29.1058 22.6555L28.0819 22.6283H27.959V22.7369L27.9863 23.755C28.1229 29.5919 29.3652 35.4425 30.5939 41.1572L30.744 41.8902H23.6724L23.8225 41.1572C25.0375 35.4425 26.2935 29.5919 26.43 23.755L26.4573 22.7369V22.6148H26.3481L25.3379 22.6419C19.727 22.7912 14.1024 24.1758 8.65529 25.5197H8.58703V17.8909ZM8.80546 18.176V25.2482C14.2116 23.9179 19.7406 22.5605 25.3242 22.4111L26.6894 22.384L26.6621 23.755C26.5256 29.6327 25.2833 35.4696 24.0546 41.198L23.959 41.6595H30.471L30.3754 41.198C29.1468 35.456 27.9044 29.6327 27.7679 23.755L27.7406 22.384L29.1195 22.4111C34.7031 22.5605 40.2321 23.9179 45.6382 25.2482V18.176C40.2321 19.5062 34.7031 20.8637 29.1195 21.013L27.7406 21.0537L27.7679 19.6963C27.9044 13.805 29.1468 7.98168 30.3754 2.25333L30.471 1.79181H23.959L24.0546 2.25333C25.2833 7.99525 26.5256 13.8186 26.6621 19.7099L26.6894 21.0673L25.3242 21.0266C19.727 20.8772 14.2116 19.5334 8.80546 18.1895M8.35495 25.8454L8.49147 25.8047L8.7099 25.7504C14.1433 24.4066 19.7543 23.0356 25.3379 22.8727L26.2389 22.8455V23.7414C26.0887 29.5512 24.8464 35.4017 23.6177 41.1029L23.4266 41.9717L23.3993 42.1074H31.0307L31.0034 41.9717L30.8123 41.1029C29.5973 35.3882 28.3413 29.5512 28.2184 23.7414L28.1911 22.8455L29.0921 22.8727C34.6758 23.022 40.273 24.4066 45.7201 25.7368L45.9386 25.7911L46.0751 25.8319V17.6194L45.9386 17.6466L45.7201 17.7009C40.2867 19.0447 34.6758 20.4293 29.0921 20.565L28.1911 20.5922L28.2184 19.6963C28.3549 13.8865 29.5973 8.04955 30.8123 2.33478L31.0034 1.46602L31.0307 1.33028H23.3993L23.4266 1.46602L23.6177 2.3212C24.8328 8.03598 26.0887 13.8729 26.2116 19.6963V20.5922L25.3379 20.565C19.7543 20.4157 14.1433 19.0311 8.7099 17.7009L8.49147 17.6466L8.35495 17.6194V25.8454ZM46.9351 16.5471V26.9314C40.6007 25.3839 34.8123 23.8907 29.0785 23.7414C29.215 29.9313 30.6485 36.1619 32.0956 42.9762H22.3481C23.7816 36.1483 25.215 29.9177 25.3652 23.7414C19.6314 23.8907 13.8294 25.3839 7.50853 26.9314V16.5471C13.843 18.0945 19.6314 19.5877 25.3652 19.737C25.2287 13.5471 23.7952 7.31654 22.3481 0.488674H32.0956C30.6621 7.31654 29.215 13.5471 29.0785 19.737C34.8123 19.5877 40.6143 18.0945 46.9351 16.5471ZM9.02389 18.4882V24.9767C14.3618 23.66 19.7952 22.3568 25.3106 22.2075L26.9215 22.1668L26.8805 23.7686C26.744 29.687 25.5017 35.4968 24.273 41.2658L24.2321 41.4559H30.1843L30.1433 41.2658C28.9147 35.5103 27.6587 29.687 27.5222 23.7821L27.4812 22.1804L29.0921 22.2211C34.6212 22.3704 40.041 23.6736 45.3788 24.9903V18.5017C40.041 19.8185 34.6075 21.1216 29.0921 21.2709L27.4812 21.3116L27.5222 19.7099C27.6587 13.805 28.901 7.98168 30.1297 2.22618L30.1706 2.03614H24.2184L24.2594 2.22618C25.4881 7.98168 26.744 13.805 26.8805 19.7234L26.9215 21.3252L25.3106 21.2845C19.7816 21.1352 14.3618 19.832 9.02389 18.5153" fill="#C9AE4F"/>
<path d="M52 150.539C35.4539 146.331 24.7099 131.983 23.5358 115.042L21.8157 74.9979C32.0819 71.0207 40.9829 68.9709 51.9863 68.9709C62.9898 68.9709 71.9044 71.0207 82.157 74.9979L80.4369 115.042C79.2628 131.983 68.5188 146.331 51.9727 150.539" fill="#2758A7"/>
<path d="M65.4881 103.87V104.644C65.4198 104.726 65.3106 104.78 65.2014 104.793H64.9966C64.9693 105.174 64.8464 105.54 64.6553 105.866C64.4232 106.246 64.0956 106.585 63.6997 106.816C63.2491 107.183 62.8942 107.617 62.6621 108.133C62.4164 108.635 62.2799 109.192 62.2799 109.775V111.241C62.2799 111.241 62.4027 111.296 62.4437 111.35C62.5256 111.431 62.5802 111.553 62.5802 111.689V112.232C62.5802 112.368 62.5256 112.49 62.4437 112.572C62.3618 112.653 62.2389 112.707 62.1024 112.707H61.4198L62.4027 133.639L63.2355 134.29L63.3174 134.358V134.467L63.5768 141.702C63.5768 141.865 63.4676 142.014 63.2764 142.109C63.1399 142.177 62.9625 142.218 62.7713 142.218H41.5973C41.4061 142.218 41.2287 142.177 41.0921 142.109C40.9147 142.014 40.7918 141.865 40.7918 141.702L41.0375 134.467V134.358L41.1195 134.29L41.9522 133.639L42.9352 112.707H42.2526C42.116 112.707 42.0068 112.653 41.9113 112.572C41.8293 112.49 41.7747 112.368 41.7747 112.232V111.689C41.7747 111.567 41.8293 111.445 41.9113 111.35C41.9522 111.309 42.0068 111.268 42.0751 111.241V109.775C42.0751 109.205 41.9522 108.635 41.7065 108.133C41.4608 107.63 41.1058 107.183 40.6689 106.816C40.2594 106.585 39.9317 106.259 39.7133 105.866C39.5222 105.54 39.3993 105.174 39.3584 104.793H39.2082C39.0717 104.793 38.9488 104.739 38.8532 104.644C38.7577 104.549 38.7031 104.427 38.7031 104.291V103.68C38.7031 103.545 38.7577 103.422 38.8532 103.327L37.6792 99.4181L37.5973 99.1194H44.3413V96.5539H42.9488C42.7577 96.5539 42.5939 96.4724 42.471 96.3503C42.3481 96.2281 42.2662 96.0652 42.2662 95.8752C42.2662 95.6851 42.3481 95.5222 42.471 95.4001C42.5939 95.2779 42.7577 95.1964 42.9488 95.1964H44.3413V84.0384L44.3003 83.9977L43.6314 83.3461L43.2218 82.9389H44.3959C44.5734 81.4321 45.1741 80.0611 46.1024 78.9345C47.0717 77.7535 48.3823 76.8576 49.9249 76.4096C50.2662 76.2332 50.5392 75.9888 50.744 75.6902C50.9625 75.3644 51.0717 74.9979 51.0717 74.6043C51.0717 74.5771 51.0717 74.55 51.0717 74.5364C50.785 74.3599 50.5392 74.1292 50.3618 73.8577C50.157 73.5319 50.0341 73.1382 50.0341 72.7446C50.0341 72.1745 50.2662 71.6451 50.6485 71.2786C51.0307 70.8985 51.5495 70.6677 52.1229 70.6677C52.6962 70.6677 53.215 70.8985 53.5973 71.2786C53.9795 71.6586 54.2116 72.1745 54.2116 72.7446C54.2116 73.1382 54.1024 73.5183 53.8976 73.8441C53.7201 74.1292 53.4744 74.3735 53.1741 74.55V74.6178C53.1741 75.0115 53.2969 75.3916 53.5017 75.7038C53.6928 76.0024 53.9795 76.2603 54.3208 76.4368C55.8635 76.8847 57.1741 77.7806 58.1433 78.9616C59.0717 80.0883 59.6724 81.4728 59.8498 82.966H61.0239L60.6143 83.3733L59.9454 84.0248L59.9044 84.0655V95.2236H61.1741C61.3652 95.2236 61.529 95.305 61.6519 95.4272C61.7747 95.5494 61.843 95.7123 61.843 95.9023C61.843 96.0924 61.7611 96.2552 61.6519 96.3774C61.529 96.4996 61.3652 96.581 61.1741 96.581H59.9044V99.1466H66.6485L66.5529 99.4452L65.3788 103.355C65.4471 103.422 65.4881 103.504 65.5154 103.599V103.708L65.4881 103.87Z" fill="#010101"/>
<path d="M44.6826 87.8663H45.57V84.2013H44.6826V87.8663ZM59.3037 84.2013H58.4164V87.8663H59.3037V84.2013ZM59.3037 91.6536H58.4164V95.3186H59.3037V91.6536ZM44.6826 95.3186H45.57V91.6536H44.6826V95.3186ZM44.6826 91.3413H45.57V88.1786H44.6826V91.3413ZM59.3037 88.1786H58.4164V91.3413H59.3037V88.1786ZM45.8703 84.2013V87.8663H47.2628L47.0307 84.2013H45.8703ZM47.3447 84.2013L47.5768 87.8663H50.3618L50.6485 84.2013H47.3447ZM50.9625 84.2013L50.6758 87.8663H53.2833L52.9966 84.2013H50.9625ZM53.3106 84.2013L53.5973 87.8663H56.3822L56.6143 84.2013H53.3106ZM56.9283 84.2013L56.6962 87.8663H58.0887V84.2013H56.9283ZM58.0887 95.3186V91.6536H56.4505L56.2184 95.3186H58.0887ZM55.9181 95.3186L56.1502 91.6536H53.8976L54.1843 95.3186H55.9181ZM53.8703 95.3186L53.5836 91.6536H50.3754L50.0887 95.3186H53.8703ZM49.7747 95.3186L50.0614 91.6536H47.8089L48.041 95.3186H49.7747ZM47.727 95.3186L47.4949 91.6536H45.8567V95.3186H47.727ZM45.8567 88.1786V91.3413H47.4676L47.2764 88.1786H45.8567ZM47.5768 88.1786L47.7816 91.3413H50.0751L50.3208 88.1786H47.5768ZM50.6348 88.1786L50.3891 91.3413H53.5563L53.3106 88.1786H50.6348ZM58.0887 91.3413V88.1786H56.6689L56.4642 91.3413H58.0887ZM56.1638 91.3413L56.3686 88.1786H53.6246L53.8703 91.3413H56.1638Z" fill="#FCDA2F"/>
<path d="M51.2901 74.3871C51.372 74.3735 51.4539 74.3599 51.5358 74.3464C51.686 74.3328 51.8362 74.3192 52 74.3192C52.1638 74.3192 52.314 74.3192 52.4505 74.3464C52.5597 74.3599 52.6553 74.3735 52.7645 74.4007L52.7235 74.3192C52.9966 74.1835 53.2287 73.9798 53.3788 73.7219C53.529 73.4776 53.6246 73.179 53.6246 72.8668C53.6246 72.4188 53.4471 72.0252 53.1468 71.7265C52.8601 71.4415 52.4505 71.2514 52 71.2514C51.5495 71.2514 51.1399 71.4415 50.8532 71.7265C50.5666 72.0116 50.3754 72.4188 50.3754 72.8668C50.3754 73.1925 50.471 73.4776 50.6348 73.7491C50.7986 74.007 51.0307 74.2106 51.3174 74.3464L51.2901 74.4007V74.3871Z" fill="white"/>
<path d="M50.3481 76.7626C50.5256 76.7761 50.7031 76.8033 50.8942 76.8169C51.2628 76.844 51.6314 76.8576 52 76.8576C52.3686 76.8576 52.7372 76.8576 53.1058 76.8169C53.2833 76.8169 53.4744 76.7897 53.6519 76.7626C53.3925 76.5725 53.1604 76.3418 52.9966 76.0839C52.7372 75.6902 52.587 75.2287 52.587 74.74C52.587 74.7129 52.587 74.6721 52.587 74.6178V74.5771C52.587 74.5771 52.4915 74.5771 52.4369 74.55C52.3003 74.5364 52.1502 74.5228 52.0136 74.5228C51.8635 74.5228 51.7133 74.5228 51.5768 74.55C51.5222 74.55 51.4676 74.55 51.4266 74.5771V74.6178C51.4266 74.6178 51.4266 74.7129 51.4266 74.74C51.4266 75.2287 51.2764 75.6902 51.0171 76.0839C50.8396 76.3418 50.6212 76.5725 50.3618 76.7626" fill="white"/>
<path d="M61.0512 95.7937H42.8259C42.8259 95.7937 42.7167 95.8209 42.6758 95.8616C42.6348 95.9023 42.6075 95.943 42.6075 96.0109C42.6075 96.0788 42.6348 96.1195 42.6758 96.1602C42.7167 96.201 42.7713 96.2281 42.8259 96.2281H61.0512C61.0512 96.2281 61.1604 96.201 61.2014 96.1602C61.2423 96.1195 61.256 96.0788 61.256 96.0109C61.256 95.943 61.2423 95.9023 61.2014 95.8616C61.1604 95.8209 61.1058 95.7937 61.0512 95.7937Z" fill="white"/>
<path d="M44.2457 83.5497L44.4369 83.7398H59.5631L59.7543 83.5497H44.2457Z" fill="white"/>
<path d="M44.7372 83.0882H59.2491C59.0853 81.7036 58.5119 80.4141 57.6519 79.3688C56.7509 78.2693 55.5222 77.4277 54.0887 77.0069C54.0887 77.0069 53.9932 76.9798 53.9522 76.9526C53.6792 76.9798 53.4061 77.0205 53.1331 77.0341C52.7645 77.0612 52.3959 77.0748 52.0136 77.0748C51.6314 77.0748 51.2628 77.0748 50.8942 77.0341C50.6075 77.0205 50.3345 76.9798 50.0751 76.9526C50.0341 76.9798 49.9795 77.0069 49.9386 77.0205C48.5051 77.4277 47.2764 78.2693 46.3754 79.3688C45.5154 80.4141 44.942 81.7036 44.7782 83.0882" fill="white"/>
<path d="M59.3037 96.676H44.6826V99.2416H59.3037V96.676Z" fill="white"/>
<path d="M39.1945 103.368H64.8055L65.8976 99.7031H38.1024L39.1945 103.368Z" fill="white"/>
<path d="M47.645 134.725L47.5495 141.933H56.4505L56.3549 134.725H47.645Z" fill="white"/>
<path d="M47.9863 134.005L47.6997 134.562H56.3003L56.0136 134.005H47.9863Z" fill="white"/>
<path d="M56.1775 134.005L56.4778 134.562H62.4437L61.8566 134.1L61.7747 134.032V134.005H56.1775Z" fill="white"/>
<path d="M62.9352 141.878L62.6894 134.766L62.6485 134.725H56.5188L56.6143 141.933H62.5939C62.7167 141.933 62.8259 141.906 62.8942 141.865C62.9215 141.865 62.9352 141.892 62.9352 141.865" fill="white"/>
<path d="M41.3652 134.725L41.3106 134.752L41.0648 141.865C41.0648 141.865 41.0785 141.851 41.1058 141.865C41.1741 141.906 41.2833 141.933 41.4061 141.933H47.3857L47.4812 134.725H41.3515H41.3652Z" fill="white"/>
<path d="M42.2253 134.005V134.032L42.1433 134.1L41.5563 134.562H47.5222L47.8089 134.005H42.2253Z" fill="white"/>
<path d="M58.5119 106.097C58.5392 106.015 58.5802 105.934 58.5939 105.839C58.6758 105.554 58.7304 105.269 58.7577 104.97H57.4471C57.4471 105.133 57.4198 105.296 57.3788 105.459C57.3379 105.662 57.2969 105.866 57.215 106.097H58.5119Z" fill="white"/>
<path d="M58.1433 106.816C58.2526 106.64 58.3618 106.45 58.43 106.259H57.1604V106.3C57.0785 106.477 57.0239 106.653 56.9693 106.816H58.1433Z" fill="white"/>
<path d="M52.7099 106.259V106.816H54.8259L55.1126 106.259H52.7099Z" fill="white"/>
<path d="M52.7099 104.984V106.11H55.1399L55.1536 104.984H52.7099Z" fill="white"/>
<path d="M48.8737 106.259L49.1741 106.816H51.2764V106.259H48.8737Z" fill="white"/>
<path d="M48.8328 104.984L48.8601 106.11H51.2764V104.984H48.8328Z" fill="white"/>
<path d="M45.5563 106.259C45.6382 106.463 45.7338 106.64 45.843 106.816H47.0171C46.9625 106.64 46.8942 106.463 46.8396 106.3V106.259H45.5563Z" fill="white"/>
<path d="M45.2423 104.97C45.2696 105.269 45.3106 105.554 45.4061 105.839C45.4334 105.92 45.4607 106.015 45.5017 106.097H46.785C46.7167 105.866 46.6621 105.662 46.6212 105.459C46.5939 105.296 46.5665 105.133 46.5529 104.97H45.2423Z" fill="white"/>
<path d="M61.9386 111.839H42.0614L42.0478 111.852V112.409H61.9386V111.839Z" fill="white"/>
<path d="M48.2594 112.87H43.2082L42.2253 133.842H47.8635L48.2594 112.87Z" fill="white"/>
<path d="M55.5768 112.87H48.4096L48.0136 133.842H55.9727L55.5768 112.87Z" fill="white"/>
<path d="M60.7782 112.87H55.7406L56.1365 133.842H61.7611L60.7782 112.87Z" fill="white"/>
<path d="M61.0102 111.377H61.6382V109.938C61.6382 109.3 61.7884 108.676 62.0614 108.106C62.3345 107.535 62.744 107.033 63.2491 106.612L63.2628 106.585C63.6041 106.395 63.8771 106.124 64.0683 105.798C64.2184 105.54 64.314 105.255 64.3549 104.956H63.7133C63.6724 105.282 63.5768 105.554 63.413 105.798C63.2082 106.124 62.9078 106.382 62.5256 106.599C62.0614 106.965 61.6928 107.495 61.4198 108.065C61.1468 108.662 60.9829 109.314 60.9829 109.925V111.363L61.0102 111.377Z" fill="white"/>
<path d="M60.4642 111.377H60.7918V109.938C60.7918 109.3 60.9556 108.621 61.256 107.997C61.5427 107.386 61.9386 106.83 62.43 106.45C62.785 106.246 63.0717 106.002 63.2491 105.717C63.3857 105.499 63.4676 105.255 63.5085 104.984H61.5427C61.5154 105.336 61.4471 105.689 61.3242 106.029C61.1741 106.436 60.942 106.802 60.6553 107.142C60.587 107.237 60.5188 107.345 60.4642 107.454V111.404V111.377Z" fill="white"/>
<path d="M59.4676 111.377H60.3003V107.698C60.0819 108.119 59.8908 108.54 59.7543 108.974C59.5495 109.626 59.4539 110.318 59.4539 111.01C59.4539 111.133 59.4539 111.255 59.4539 111.391" fill="white"/>
<path d="M59.2355 111.377C59.2355 111.255 59.2355 111.133 59.2355 110.997C59.2355 110.277 59.3447 109.572 59.5495 108.906C59.7543 108.228 60.0683 107.59 60.4642 106.993C60.7372 106.667 60.9556 106.314 61.0921 105.934C61.2014 105.622 61.2833 105.296 61.2969 104.97H60.628V105.038C60.628 105.404 60.6007 105.744 60.5051 106.069C60.4096 106.409 60.2594 106.721 60.0273 106.993L60 107.02V107.047C59.5495 107.671 59.2218 108.364 59.0034 109.083C58.785 109.802 58.6758 110.549 58.6758 111.309V111.377H59.2355Z" fill="white"/>
<path d="M58.2662 111.377H58.471V111.309C58.471 110.522 58.5938 109.762 58.8123 109.015C59.0444 108.282 59.3857 107.576 59.8225 106.925L59.8498 106.884L59.8771 106.857C60.0956 106.612 60.2321 106.327 60.314 106.029C60.3959 105.717 60.4232 105.391 60.4232 105.051V104.984H58.8942C58.8669 105.296 58.8123 105.594 58.7304 105.893C58.6212 106.259 58.4573 106.599 58.2526 106.925V111.391L58.2662 111.377Z" fill="white"/>
<path d="M56.273 111.377H58.116V106.965H56.9283C56.7372 107.535 56.6007 108.106 56.4915 108.662C56.3413 109.436 56.273 110.21 56.273 110.97C56.273 111.078 56.273 111.187 56.273 111.282V111.377Z" fill="white"/>
<path d="M55.372 111.377H56.041V111.296C56.041 111.187 56.041 111.078 56.041 110.983C56.041 110.196 56.1092 109.422 56.273 108.635C56.3822 108.092 56.5188 107.535 56.6962 106.979V106.83H56.7509C56.8191 106.626 56.8874 106.436 56.9556 106.232C57.0512 105.934 57.1194 105.676 57.1741 105.445C57.2014 105.282 57.215 105.133 57.2423 104.984H56.4778V105.051C56.4778 105.255 56.4505 105.472 56.4096 105.676C56.3686 105.879 56.3003 106.069 56.2184 106.259C55.9454 106.816 55.7406 107.4 55.6041 107.997C55.4676 108.594 55.3993 109.205 55.3993 109.816V111.391L55.372 111.377Z" fill="white"/>
<path d="M54.9488 111.377H55.1536V109.802C55.1536 109.178 55.2218 108.54 55.372 107.929C55.5222 107.318 55.727 106.721 56 106.151C56.0819 105.974 56.1365 105.798 56.1775 105.608C56.2184 105.418 56.2321 105.228 56.2321 105.038C56.2321 105.011 56.2321 104.997 56.2321 104.97H55.3037L55.2764 106.246V106.273L54.9488 106.911V111.377Z" fill="white"/>
<path d="M54.785 106.965H52.7099V111.377H54.785V106.965Z" fill="white"/>
<path d="M52.4915 104.984H51.4949V111.391H52.4915V104.984Z" fill="white"/>
<path d="M51.2764 106.965H49.2014V111.377H51.2764V106.965Z" fill="white"/>
<path d="M48.8328 111.377H49.0375V106.911L48.7099 106.287V106.246L48.6826 104.97H47.7543V105.038C47.7543 105.241 47.7679 105.431 47.8089 105.608C47.8498 105.798 47.9044 105.974 47.9863 106.151C48.2594 106.721 48.4778 107.318 48.6143 107.929C48.7509 108.54 48.8328 109.178 48.8328 109.802V111.377Z" fill="white"/>
<path d="M47.9454 111.377H48.6143V109.802C48.6143 109.192 48.5461 108.581 48.4096 107.983C48.273 107.386 48.0683 106.802 47.7816 106.246C47.6997 106.056 47.6314 105.852 47.5904 105.662C47.5495 105.459 47.5222 105.255 47.5222 105.038C47.5222 105.011 47.5222 104.997 47.5222 104.97H46.7577C46.7577 105.119 46.785 105.269 46.8123 105.431C46.8532 105.662 46.9215 105.92 47.0307 106.219C47.099 106.422 47.1672 106.612 47.2355 106.816H47.2901V106.965C47.4676 107.522 47.6041 108.078 47.7133 108.621C47.8635 109.409 47.9454 110.196 47.9454 110.97C47.9454 111.065 47.9454 111.173 47.9454 111.282V111.377Z" fill="white"/>
<path d="M47.727 111.377V111.282C47.727 111.187 47.727 111.078 47.727 110.97C47.727 110.196 47.6587 109.422 47.5085 108.662C47.3993 108.106 47.2491 107.535 47.0717 106.965H45.8703V111.377H47.727Z" fill="white"/>
<path d="M45.5154 111.377H45.7201V106.911C45.5154 106.585 45.3515 106.246 45.2423 105.879C45.1468 105.581 45.0921 105.282 45.0785 104.97H43.5495V105.038C43.5495 105.377 43.5768 105.717 43.6587 106.015C43.7406 106.314 43.8771 106.599 44.0956 106.843L44.1229 106.87L44.1502 106.911C44.587 107.549 44.9283 108.268 45.1604 109.002C45.3925 109.735 45.5017 110.508 45.5017 111.296V111.363L45.5154 111.377Z" fill="white"/>
<path d="M44.7508 111.377H45.2969V111.309C45.2969 110.549 45.1877 109.802 44.9693 109.083C44.7509 108.364 44.4095 107.671 43.9863 107.047L43.9317 106.993C43.686 106.721 43.5358 106.409 43.4539 106.069C43.3584 105.744 43.3311 105.391 43.3311 105.038V104.97H42.6621C42.6894 105.296 42.7577 105.622 42.8805 105.934C43.0307 106.314 43.2355 106.667 43.5085 106.979C43.9044 107.576 44.2184 108.214 44.4232 108.893C44.628 109.572 44.7372 110.264 44.7372 110.983C44.7372 111.106 44.7372 111.228 44.7372 111.363" fill="white"/>
<path d="M43.686 111.377H44.5188C44.5188 111.255 44.5188 111.133 44.5188 110.997C44.5188 110.305 44.4096 109.626 44.2184 108.961C44.0819 108.526 43.9044 108.092 43.6724 107.685V111.363L43.686 111.377Z" fill="white"/>
<path d="M43.2082 111.377H43.5358V107.427C43.4676 107.318 43.413 107.223 43.3447 107.115C43.058 106.789 42.8259 106.409 42.6758 106.002C42.5529 105.662 42.471 105.309 42.4573 104.956H40.4915C40.5324 105.228 40.6143 105.472 40.7509 105.689C40.9283 105.974 41.215 106.219 41.57 106.422C42.0614 106.802 42.4573 107.359 42.744 107.97C43.0307 108.594 43.1945 109.287 43.1945 109.911V111.35L43.2082 111.377Z" fill="white"/>
<path d="M42.3618 111.377H42.9898V109.938C42.9898 109.327 42.8396 108.676 42.5529 108.078C42.2799 107.508 41.9113 106.979 41.4471 106.612C41.0648 106.395 40.7645 106.137 40.5597 105.812C40.4096 105.567 40.3003 105.282 40.2594 104.97H39.6177C39.6451 105.269 39.7543 105.554 39.9044 105.812C40.0956 106.137 40.3686 106.409 40.7099 106.599H40.7235V106.626C41.2287 107.033 41.6382 107.535 41.9113 108.119C42.1843 108.689 42.3345 109.314 42.3345 109.952V111.391L42.3618 111.377Z" fill="white"/>
<path d="M64.9829 104.508C64.9829 104.508 64.9966 104.508 65.0102 104.508V103.884C65.0102 103.884 65.0102 103.87 65.0102 103.857H39.0171V104.495C39.0171 104.495 39.0171 104.508 39.0171 104.522C39.0171 104.522 39.0307 104.522 39.0444 104.522H65.0102L64.9829 104.508Z" fill="white"/>
<path d="M52.6416 118.083V122.114C54.8123 121.612 54.8123 118.585 52.6416 118.083ZM52.6416 128.019V132.132H51.3311V128.019C50.4846 128.562 49.6519 129.119 48.8055 129.662L48.5188 129.852V128.291L48.6007 128.236C49.3242 127.761 50.0614 127.286 50.785 126.825C50.0614 126.349 49.3379 125.874 48.6007 125.413L48.5188 125.359V123.797L48.8055 123.988C49.6519 124.544 50.4846 125.087 51.3311 125.63V116.725H51.5085C56.8464 116.725 56.6007 122.874 52.6416 123.458V125.63C53.488 125.087 54.3208 124.544 55.1672 123.988L55.4539 123.797V125.359L55.372 125.413C54.6485 125.888 53.9249 126.363 53.1877 126.825C53.9113 127.3 54.6485 127.775 55.372 128.236L55.4539 128.291V129.852L55.1672 129.662C54.3208 129.119 53.488 128.562 52.6416 128.019Z" fill="#010101"/>
<path d="M52.4642 117.866C55.1126 118.259 55.1126 121.938 52.4642 122.345V117.866ZM52.4642 127.693C53.3925 128.304 54.3345 128.901 55.2628 129.512V128.386C54.4573 127.87 53.6519 127.34 52.8464 126.825C53.6519 126.295 54.4573 125.779 55.2628 125.263V124.137C54.3208 124.748 53.3925 125.345 52.4642 125.956V123.295C56.3413 122.874 56.7099 116.888 51.5222 116.888V125.942C50.5938 125.331 49.6519 124.734 48.7235 124.123V125.25C49.529 125.779 50.3345 126.295 51.1399 126.811C50.3345 127.34 49.529 127.856 48.7235 128.372V129.499C49.6519 128.888 50.5938 128.291 51.5222 127.68V131.942H52.4642V127.68V127.693Z" fill="#E01F27"/>
<path d="M24.7918 96.4317L44.2184 94.1241V94.4634L24.7918 96.4996V96.4181V96.4317ZM24.7918 95.1286L44.2184 93.2146V93.5675L24.7918 95.2236V95.1286ZM24.7918 93.8797L44.2184 92.3323V92.6852L24.7918 93.9748V93.8662V93.8797ZM24.7918 92.6581L44.2184 91.4771V91.83L24.7918 92.7667V92.6581ZM24.7918 91.4635L44.2184 90.6355V90.9884L24.7918 91.5721V91.4635ZM44.2184 90.174L24.7918 90.4047V90.2826L44.2184 89.8075V90.174ZM44.2184 89.3459L24.7918 89.2373V89.1152L44.2184 88.993V89.3595V89.3459ZM44.2184 88.5179L24.7918 88.0564V87.9478L44.2184 88.165V88.5179ZM44.2184 87.6899L24.7918 86.8754V86.7668L44.2184 87.3369V87.7034V87.6899ZM44.2184 86.8483L24.7918 85.6809V85.5723L44.2184 86.4818V86.8483ZM44.2184 85.9795L24.7918 84.4592V84.3642L44.2184 85.6402V85.9931V85.9795ZM44.2184 85.0972L24.7918 83.1968V83.1153L44.2184 84.7578V85.0972Z" fill="#FCDA2F"/>
<path d="M79.2082 96.4317L59.7816 94.1241V94.4634L79.2082 96.4996V96.4181V96.4317ZM79.2082 95.1286L59.7816 93.2146V93.5675L79.2082 95.2236V95.1286ZM79.2082 93.8797L59.7816 92.3323V92.6852L79.2082 93.9748V93.8662V93.8797ZM79.2082 92.6581L59.7816 91.4771V91.83L79.2082 92.7667V92.6581ZM79.2082 91.4635L59.7816 90.6355V90.9884L79.2082 91.5721V91.4635ZM59.7816 90.174L79.2082 90.4047V90.2826L59.7816 89.8075V90.174ZM59.7816 89.3459L79.2082 89.2373V89.1152L59.7816 88.993V89.3595V89.3459ZM59.7816 88.5179L79.2082 88.0564V87.9478L59.7816 88.165V88.5179ZM59.7816 87.6899L79.2082 86.8754V86.7668L59.7816 87.3369V87.7034V87.6899ZM59.7816 86.8483L79.2082 85.6809V85.5723L59.7816 86.4818V86.8483ZM59.7816 85.9795L79.2082 84.4592V84.3642L59.7816 85.6402V85.9931V85.9795ZM59.7816 85.0972L79.2082 83.1968V83.1153L59.7816 84.7578V85.0972Z" fill="#FCDA2F"/>
<path d="M77.5154 73.6133L77.4198 73.5862C77.1877 73.5047 76.9556 73.4369 76.7099 73.3554L75.8089 73.0704L84.942 65.4688C84.942 65.4688 85.0239 65.4009 85.0648 65.3602C85.2014 65.238 85.3652 65.1566 85.529 65.0887C85.7611 64.9937 86.0205 64.8172 86.2799 64.8172C86.5529 64.8172 86.8123 64.8851 87.0444 65.0072L88.8601 66.3918C92.3686 69.5411 96.1365 72.9211 99.5222 75.9617C100.041 76.4368 100.614 76.844 100.915 77.5092C101.065 77.8349 101.147 78.2014 101.147 78.568C101.147 78.758 101.119 78.9345 101.092 79.1109C101.051 79.2874 101.01 79.4774 100.942 79.6403C100.164 82.6538 99.5495 85.7216 99.1536 88.803C98.7577 91.8708 98.5529 94.9793 98.5529 98.0742C98.5529 100.518 98.6758 102.947 98.9215 105.364C99.1536 107.685 99.5085 109.979 99.9727 112.273V112.381H100.451C100.451 112.381 100.519 112.395 100.546 112.409C100.546 112.409 100.56 112.409 100.573 112.409H100.587L100.805 112.477H100.819C101.092 112.612 101.311 112.816 101.447 113.087C101.597 113.386 101.625 113.712 101.543 114.024L101.529 114.065C101.529 114.065 101.529 114.078 101.529 114.092C101.433 114.39 101.242 114.635 100.997 114.798C100.874 114.893 100.724 114.947 100.573 115.001C100.915 115.952 101.338 116.888 101.843 117.77C102.403 118.761 103.044 119.684 103.768 120.553C103.836 120.621 103.891 120.703 103.932 120.798C103.973 120.893 104 121.001 104 121.096C104 121.381 103.836 121.626 103.604 121.775C103.386 121.924 103.113 121.992 102.853 121.992C102.703 121.992 102.567 121.979 102.43 121.924C102.307 121.897 102.184 121.829 102.075 121.761L102.007 121.721C102.007 121.721 101.939 121.775 101.898 121.802C101.679 121.938 101.406 121.992 101.133 121.992C100.997 121.992 100.846 121.951 100.724 121.911C100.601 121.87 100.491 121.802 100.396 121.734C100.355 121.761 100.314 121.802 100.259 121.829C100.027 121.951 99.7543 122.006 99.4949 121.979C99.3447 121.979 99.2082 121.938 99.0717 121.883C98.9761 121.843 98.8805 121.802 98.7986 121.734C98.744 121.775 98.6894 121.802 98.6348 121.843C98.4027 121.965 98.1297 121.992 97.8703 121.965C97.7201 121.951 97.5836 121.911 97.4607 121.856C97.3925 121.816 97.3106 121.775 97.2423 121.748C97.1877 121.788 97.1331 121.816 97.0648 121.856C96.8328 121.965 96.5597 121.992 96.3003 121.965C96.1638 121.938 96.0273 121.897 95.9044 121.843C95.8498 121.816 95.7952 121.788 95.7406 121.748C95.6724 121.788 95.6041 121.829 95.5358 121.87C95.2901 121.979 95.0171 121.992 94.7577 121.951C94.6212 121.924 94.4846 121.883 94.3618 121.816C94.3208 121.788 94.2799 121.775 94.2526 121.748C94.1843 121.802 94.1024 121.856 94.0068 121.883C93.7611 121.979 93.4881 121.992 93.2287 121.924C93.0921 121.897 92.9556 121.856 92.8328 121.775C92.8191 121.775 92.8055 121.761 92.7918 121.748C92.7099 121.802 92.628 121.856 92.5188 121.897C92.273 121.979 91.9864 121.979 91.7406 121.911C91.6041 121.87 91.4812 121.829 91.3584 121.748C91.2492 121.68 91.1399 121.598 91.058 121.503L91.0034 121.449L90.9761 121.381C90.4164 120.187 89.9795 118.938 89.6792 117.662C89.6792 117.648 89.6792 117.621 89.6792 117.608C89.6109 117.811 89.529 118.015 89.4471 118.218C89.0921 119.06 88.6007 119.82 88 120.512H87.9863L87.959 120.553C87.8498 120.648 87.7406 120.716 87.6177 120.784C87.4812 120.838 87.3447 120.879 87.2082 120.893C86.9488 120.92 86.6758 120.893 86.4437 120.77C86.2799 120.689 86.1433 120.567 86.0478 120.404C86.0068 120.404 85.9659 120.417 85.9249 120.417C85.6655 120.445 85.3925 120.417 85.1604 120.282C84.9829 120.187 84.8464 120.051 84.7645 119.875C84.5051 119.902 84.2321 119.875 84 119.725C83.7543 119.603 83.5768 119.372 83.5358 119.087C83.5358 118.979 83.5358 118.884 83.5768 118.775C83.6041 118.68 83.6587 118.585 83.7133 118.517V118.49C84.3276 117.811 84.8191 117.037 85.1741 116.182C85.5154 115.327 85.7201 114.431 85.7611 113.522C85.7611 113.413 85.7611 113.277 85.7611 113.169V112.938C85.7611 112.938 85.6519 112.897 85.5836 112.884C85.2969 112.802 85.0239 112.639 84.8464 112.395C84.6553 112.151 84.5597 111.852 84.5597 111.553C84.5597 111.187 84.6826 110.834 84.9283 110.563C85.0921 110.386 85.2969 110.264 85.529 110.182C85.174 108.377 84.8874 106.558 84.6553 104.739C84.4096 102.825 84.2184 100.911 84.0956 98.9837C83.8498 95.1965 83.8498 91.3956 84.0819 87.6084C84.1638 86.3596 84.273 85.0972 84.3959 83.8484L81.2014 86.5632L81.9249 75.1201C80.5461 74.5907 79.1536 74.0884 77.7338 73.6269L77.5427 73.559L77.5154 73.6133Z" fill="#010101"/>
<path d="M1.99317 121.734L1.92491 121.775C1.8157 121.843 1.69283 121.911 1.56997 121.951C1.43345 121.992 1.29693 122.006 1.14676 122.006C0.887372 122.006 0.614334 121.938 0.395904 121.788C0.163823 121.639 0 121.395 0 121.11C0 121.001 0.0273037 120.893 0.0682594 120.798C0.109215 120.703 0.163823 120.621 0.232082 120.567C0.955631 119.698 1.59727 118.761 2.157 117.784C2.66212 116.888 3.07167 115.965 3.41297 115.001C3.2628 114.961 3.12628 114.893 2.98976 114.798C2.74403 114.635 2.5529 114.39 2.45734 114.105C2.45734 114.105 2.45734 114.078 2.45734 114.065V114.024C2.37543 113.712 2.40273 113.372 2.5529 113.087C2.68942 112.816 2.90785 112.612 3.16724 112.49L3.38567 112.409H3.39932C3.39932 112.409 3.39932 112.409 3.42662 112.409C3.45392 112.409 3.49488 112.409 3.52218 112.395H3.9727L4 112.286C4.46416 110.006 4.81911 107.698 5.05119 105.377C5.29693 102.961 5.43345 100.518 5.43345 98.0878C5.43345 94.9928 5.22867 91.8843 4.83276 88.8165C4.43686 85.7352 3.82253 82.6674 3.04437 79.6539C2.97611 79.4774 2.9215 79.301 2.8942 79.1245C2.85324 78.948 2.83959 78.758 2.83959 78.5815C2.83959 78.215 2.9215 77.8485 3.07167 77.5092C3.37201 76.844 3.94539 76.4368 4.46416 75.9617C8.46416 72.3645 9.26963 71.6451 13.4061 67.9393L16.8737 65.0751C17.0921 64.9529 17.4198 64.9529 17.6928 64.9529C17.9522 64.9529 18.198 64.9937 18.4437 65.1023C18.6075 65.1701 18.7713 65.2516 18.9079 65.3602H18.9215C18.9215 65.3602 19.0034 65.4416 19.0444 65.4823L28.1775 73.0839L27.2764 73.369C27.0444 73.4504 26.8123 73.5183 26.5666 73.5998L26.4573 73.6269L26.2799 73.6948C24.8737 74.1563 23.4812 74.645 22.0887 75.188L22.8123 86.6311L19.6177 83.9162C19.7543 85.1651 19.8635 86.4275 19.9317 87.6899C20.1638 91.4771 20.1638 95.2779 19.9181 99.0651C19.7952 100.993 19.6041 102.907 19.3584 104.807C19.1126 106.64 18.8259 108.445 18.4846 110.25C18.7167 110.318 18.9215 110.454 19.0853 110.63C19.3311 110.902 19.4676 111.268 19.4676 111.635C19.4676 111.934 19.3584 112.232 19.1672 112.477C18.9898 112.707 18.7304 112.897 18.4437 112.965C18.4437 112.965 18.3345 112.992 18.2662 113.019V113.25C18.2662 113.372 18.2662 113.495 18.2662 113.603C18.3072 114.513 18.4983 115.422 18.8532 116.264C19.1945 117.119 19.686 117.893 20.3003 118.571V118.599C20.3549 118.666 20.4096 118.761 20.4369 118.856C20.4642 118.965 20.4778 119.06 20.4642 119.169C20.4369 119.454 20.2457 119.671 20 119.807C19.7679 119.929 19.4949 119.97 19.2355 119.942C19.1536 120.119 19.0171 120.255 18.8396 120.35C18.6075 120.472 18.3345 120.512 18.0751 120.485C18.0341 120.485 17.9932 120.485 17.9522 120.472C17.8703 120.635 17.7201 120.757 17.5563 120.838C17.3242 120.947 17.0512 120.988 16.7918 120.947C16.6553 120.933 16.5188 120.893 16.3823 120.838C16.2594 120.784 16.1365 120.716 16.041 120.621L16.0137 120.594V120.567C15.3993 119.888 14.9078 119.114 14.5529 118.286C14.471 118.083 14.3891 117.879 14.3208 117.675C14.3208 117.689 14.3208 117.703 14.3208 117.716C14.0205 119.006 13.5836 120.255 13.0239 121.449L12.9966 121.517L12.942 121.571C12.8601 121.666 12.7509 121.748 12.6416 121.816C12.5188 121.883 12.3959 121.938 12.2594 121.979C12 122.046 11.727 122.046 11.4812 121.965C11.3857 121.924 11.2901 121.883 11.2082 121.816C11.1945 121.816 11.1809 121.829 11.1672 121.843C11.0444 121.911 10.9078 121.965 10.7713 121.992C10.5119 122.046 10.2389 122.033 9.99317 121.951C9.89761 121.911 9.82935 121.87 9.74744 121.802C9.72014 121.829 9.67918 121.856 9.63823 121.87C9.51536 121.924 9.37884 121.979 9.24232 122.006C8.98294 122.046 8.7099 122.033 8.46416 121.924C8.3959 121.897 8.32765 121.856 8.25939 121.816C8.20478 121.843 8.15017 121.883 8.09556 121.897C7.9727 121.965 7.83618 121.992 7.69966 122.019C7.44027 122.06 7.16724 122.019 6.93515 121.911C6.86689 121.87 6.81229 121.843 6.75768 121.802C6.68942 121.843 6.62116 121.883 6.53925 121.911C6.40273 121.965 6.26621 122.006 6.12969 122.019C5.87031 122.046 5.59727 122.019 5.36519 121.897C5.31058 121.87 5.25597 121.829 5.21502 121.788C5.13311 121.843 5.03754 121.897 4.94198 121.938C4.80546 121.992 4.66894 122.019 4.53242 122.033C4.27304 122.046 4 122.006 3.76792 121.883C3.71331 121.856 3.67235 121.829 3.6314 121.788C3.52218 121.87 3.41297 121.911 3.30375 121.965C3.16724 122.006 3.03072 122.033 2.88055 122.033C2.62116 122.033 2.34812 121.992 2.12969 121.856C2.08874 121.829 2.04778 121.802 2.02048 121.775" fill="#010101"/>
<path d="M3.95904 115.069C4.32764 115.069 4.68259 115.069 5.05119 115.069C4.7099 116.169 4.27304 117.241 3.72696 118.259C3.2628 119.141 2.71672 119.983 2.10239 120.784C2.10239 120.784 2.06143 120.838 2.03413 120.865C1.91126 121.028 1.77474 121.191 1.63823 121.354C1.56997 121.395 1.50171 121.436 1.4198 121.463C1.33788 121.49 1.24232 121.503 1.14676 121.503C0.969283 121.503 0.805461 121.463 0.682594 121.381C0.587031 121.313 0.518771 121.218 0.518771 121.123C0.518771 121.096 0.518771 121.055 0.546075 121.028C0.559727 121.001 0.587031 120.96 0.614334 120.933C1.36519 120.024 2.03413 119.06 2.60751 118.056C3.13993 117.105 3.59044 116.101 3.94539 115.083" fill="#FCDA2F"/>
<path d="M5.29693 115.056C5.66553 115.056 6.03413 115.042 6.38908 115.028C6.10239 116.128 5.70648 117.187 5.21502 118.205C4.68259 119.304 4.04096 120.35 3.30375 121.327C3.23549 121.368 3.16724 121.408 3.08532 121.436C3.00341 121.463 2.90785 121.49 2.81229 121.49C2.63481 121.49 2.47099 121.463 2.34812 121.381C2.23891 121.313 2.17065 121.232 2.17065 121.137C2.17065 121.096 2.17065 121.069 2.1843 121.042C2.1843 121.042 2.1843 121.015 2.19795 121.015C2.83959 120.187 3.41297 119.304 3.90444 118.381C4.46416 117.336 4.91468 116.223 5.26962 115.069" fill="#FCDA2F"/>
<path d="M6.64846 115.015C7.03072 115.001 7.42662 114.974 7.80887 114.947C7.54949 116.047 7.19454 117.119 6.74403 118.137C6.33447 119.074 5.843 119.97 5.26962 120.838C5.25597 120.865 5.24232 120.893 5.22867 120.906C5.13311 121.042 5.03754 121.178 4.94198 121.313C4.87372 121.368 4.80546 121.395 4.7372 121.436C4.65529 121.463 4.55973 121.49 4.46416 121.49C4.28669 121.49 4.12287 121.463 4 121.395C3.89078 121.341 3.82253 121.245 3.80887 121.15C3.80887 121.123 3.80887 121.083 3.82253 121.055C3.82253 121.028 3.84983 120.988 3.87713 120.96C4.46416 120.119 4.99659 119.223 5.43345 118.3C5.93857 117.241 6.33447 116.142 6.63481 115.015" fill="#FCDA2F"/>
<path d="M8.06826 114.92C8.43686 114.893 8.80546 114.852 9.17406 114.825C8.95563 115.924 8.64164 117.01 8.21843 118.056C7.83618 119.019 7.35836 119.956 6.81229 120.852C6.78498 120.879 6.77133 120.906 6.75768 120.933C6.68942 121.055 6.60751 121.178 6.5256 121.286C6.47099 121.341 6.40273 121.381 6.32082 121.408C6.23891 121.449 6.157 121.476 6.06143 121.476C5.88396 121.503 5.72014 121.476 5.59727 121.408C5.48806 121.354 5.4198 121.273 5.40614 121.178C5.40614 121.137 5.40614 121.11 5.40614 121.083C5.40614 121.069 5.40614 121.042 5.43345 121.028C6.02048 120.146 6.53925 119.209 6.96246 118.232C7.42662 117.173 7.79522 116.06 8.05461 114.92" fill="#FCDA2F"/>
<path d="M9.4198 114.798C9.7884 114.757 10.157 114.716 10.5256 114.662C10.3481 115.789 10.0614 116.888 9.66553 117.961C9.29693 118.965 8.84642 119.942 8.31399 120.879C8.28669 120.906 8.27304 120.947 8.25939 120.974C8.19113 121.083 8.13652 121.178 8.06826 121.273C8.01365 121.327 7.94539 121.368 7.87713 121.408C7.79522 121.449 7.71331 121.476 7.61775 121.49C7.44027 121.517 7.27645 121.49 7.13993 121.436C7.03072 121.381 6.94881 121.3 6.93515 121.205C6.93515 121.164 6.93515 121.137 6.93515 121.11C6.93515 121.096 6.93515 121.083 6.94881 121.069C7.52218 120.146 8.0273 119.169 8.42321 118.151C8.86007 117.078 9.18771 115.952 9.40614 114.798" fill="#FCDA2F"/>
<path d="M10.785 114.621C10.9352 114.608 11.0853 114.581 11.2355 114.567C11.4403 114.526 11.6587 114.499 11.8635 114.472C11.727 115.612 11.4676 116.739 11.1263 117.838C10.744 119.019 10.2389 120.173 9.62457 121.245C9.56997 121.3 9.50171 121.354 9.43345 121.381C9.36519 121.422 9.26962 121.449 9.18771 121.463C9.01024 121.49 8.84642 121.463 8.72355 121.422C8.61433 121.368 8.53242 121.3 8.51877 121.205C8.51877 121.178 8.51877 121.137 8.51877 121.11C8.51877 121.096 8.51877 121.083 8.51877 121.069C9.09215 120.105 9.55631 119.087 9.95222 118.028C10.3481 116.929 10.6485 115.789 10.8259 114.621" fill="#FCDA2F"/>
<path d="M12.0956 114.431C12.4096 114.377 12.7372 114.323 13.0512 114.268C12.9693 115.436 12.7782 116.59 12.4642 117.716C12.1365 118.924 11.686 120.105 11.1126 121.232C11.058 121.286 10.9898 121.341 10.9215 121.381C10.8396 121.422 10.7577 121.449 10.6621 121.476C10.4846 121.503 10.3208 121.503 10.1843 121.449C10.0751 121.408 9.99317 121.327 9.96587 121.245C9.96587 121.205 9.96587 121.178 9.96587 121.137C9.96587 121.11 9.99317 121.069 10.0068 121.028C10.5529 120.037 10.9898 118.992 11.3447 117.92C11.7133 116.78 11.959 115.626 12.1092 114.431" fill="#FCDA2F"/>
<path d="M13.2969 114.214C13.6246 114.146 13.9659 114.078 14.3072 114.01C14.2662 115.219 14.116 116.413 13.843 117.567C13.5563 118.816 13.1331 120.037 12.587 121.191C12.5324 121.259 12.4778 121.3 12.3959 121.341C12.3276 121.381 12.2457 121.422 12.1502 121.449C11.9727 121.49 11.8089 121.49 11.6724 121.449C11.5631 121.408 11.4812 121.341 11.4539 121.245C11.4539 121.245 11.4539 121.178 11.4539 121.137C11.4539 121.11 11.4812 121.069 11.4949 121.028C12 119.97 12.4096 118.884 12.7235 117.757C13.0375 116.603 13.2423 115.409 13.3242 114.2" fill="#FCDA2F"/>
<path d="M14.5392 113.956C14.8532 113.888 15.1672 113.82 15.4676 113.739C15.4676 113.834 15.4676 113.929 15.4539 114.024C15.4539 114.228 15.4539 114.431 15.4539 114.621C15.4812 115.612 15.686 116.576 16.041 117.458C16.3823 118.341 16.8874 119.169 17.5154 119.888C17.5154 119.888 17.5563 119.956 17.57 119.997C17.5836 120.024 17.5836 120.065 17.57 120.092C17.57 120.187 17.4881 120.268 17.3788 120.322C17.256 120.377 17.0921 120.404 16.9147 120.39C16.8191 120.39 16.7235 120.35 16.6553 120.322C16.5734 120.282 16.5051 120.241 16.4369 120.187C15.8771 119.535 15.413 118.802 15.0717 118.042C14.7304 117.268 14.5119 116.44 14.43 115.585C14.4983 115.042 14.5392 114.499 14.5529 113.956" fill="#FCDA2F"/>
<path d="M15.7133 113.685C16 113.617 16.2867 113.535 16.5734 113.467C16.5734 113.535 16.5734 113.59 16.5734 113.644C16.5734 113.807 16.5734 113.97 16.5734 114.133C16.6143 115.11 16.8191 116.074 17.2014 116.97C17.5563 117.838 18.0614 118.653 18.7031 119.372C18.7031 119.372 18.744 119.413 18.7713 119.44C18.7986 119.467 18.8123 119.508 18.8259 119.535C18.8259 119.576 18.8259 119.603 18.8259 119.63C18.8259 119.725 18.744 119.807 18.6348 119.861C18.5119 119.929 18.3481 119.956 18.1706 119.942C18.0751 119.942 17.9795 119.915 17.8976 119.875C17.8294 119.847 17.7747 119.82 17.7338 119.779C17.1058 119.06 16.6143 118.259 16.273 117.377C15.9317 116.508 15.727 115.571 15.7133 114.608C15.7133 114.418 15.7133 114.228 15.7133 114.024C15.7133 113.915 15.727 113.793 15.7406 113.671" fill="#FCDA2F"/>
<path d="M16.8191 113.4C17.1331 113.318 17.4334 113.223 17.7474 113.128V113.196C17.7474 113.332 17.7474 113.454 17.7474 113.59C17.7884 114.567 18.0068 115.517 18.3754 116.427C18.744 117.323 19.2628 118.151 19.9181 118.87C19.9454 118.911 19.959 118.938 19.9727 118.979C19.9727 119.006 19.9863 119.046 19.9727 119.074C19.9727 119.169 19.8908 119.25 19.7816 119.304C19.6587 119.372 19.4949 119.399 19.3174 119.386C19.2218 119.386 19.1399 119.345 19.058 119.318C19.0034 119.291 18.9488 119.264 18.9079 119.237C18.2799 118.531 17.7747 117.73 17.4198 116.875C17.0648 116.006 16.8601 115.083 16.8191 114.119C16.8191 113.956 16.8191 113.793 16.8191 113.644C16.8191 113.562 16.8191 113.481 16.8191 113.4Z" fill="#FCDA2F"/>
<path d="M18.2935 112.436C18.471 112.382 18.6348 112.286 18.744 112.137C18.8532 111.988 18.9352 111.798 18.9352 111.594C18.9352 111.35 18.8532 111.119 18.7031 110.956C18.5529 110.793 18.3481 110.685 18.116 110.685C18.0614 110.685 17.9932 110.685 17.9249 110.698C17.8567 110.712 17.802 110.725 17.7474 110.766H17.7201C15.4539 111.472 13.1195 112.001 10.744 112.368C8.38225 112.721 5.97952 112.911 3.6041 112.911C3.57679 112.911 3.56314 112.911 3.54949 112.911C3.52218 112.911 3.49488 112.911 3.48123 112.911H3.45392C3.24915 112.979 3.09898 113.128 3.00341 113.291C2.90785 113.467 2.8942 113.685 2.94881 113.888C2.94881 113.888 2.94881 113.888 2.94881 113.915C3.01706 114.092 3.13993 114.241 3.2901 114.35C3.44027 114.458 3.6314 114.513 3.82253 114.499C6.23891 114.526 8.69625 114.363 11.1399 113.997C13.57 113.644 15.9727 113.101 18.2799 112.381L18.2935 112.436Z" fill="#FCDA2F"/>
<path d="M100.041 115.069C99.6724 115.069 99.3174 115.069 98.9488 115.069C99.2901 116.169 99.727 117.241 100.273 118.259C100.737 119.141 101.283 119.983 101.898 120.784C101.898 120.784 101.939 120.838 101.966 120.865C102.102 121.028 102.225 121.205 102.362 121.354C102.43 121.395 102.498 121.436 102.58 121.463C102.662 121.49 102.758 121.503 102.853 121.503C103.031 121.503 103.195 121.463 103.317 121.381C103.413 121.313 103.481 121.218 103.481 121.123C103.481 121.096 103.481 121.055 103.454 121.028C103.44 121.001 103.413 120.96 103.386 120.933C102.635 120.024 101.966 119.06 101.392 118.056C100.86 117.105 100.41 116.101 100.055 115.083" fill="#FCDA2F"/>
<path d="M98.6894 115.056C98.3208 115.056 97.9522 115.042 97.5973 115.028C97.884 116.128 98.2799 117.187 98.7713 118.205C99.3037 119.304 99.9454 120.35 100.683 121.327C100.751 121.368 100.819 121.408 100.901 121.436C100.983 121.463 101.078 121.49 101.174 121.49C101.352 121.49 101.515 121.449 101.638 121.381C101.747 121.313 101.816 121.232 101.816 121.137C101.816 121.096 101.816 121.069 101.816 121.042C101.816 121.042 101.816 121.015 101.788 121.015C101.147 120.187 100.573 119.304 100.082 118.381C99.5222 117.336 99.0717 116.223 98.7167 115.069" fill="#FCDA2F"/>
<path d="M97.3515 115.015C96.9693 115.001 96.5734 114.974 96.1911 114.947C96.4505 116.047 96.8055 117.119 97.256 118.137C97.6655 119.074 98.157 119.97 98.7304 120.838C98.7304 120.865 98.7577 120.893 98.7713 120.906C98.8669 121.042 98.9625 121.178 99.058 121.313C99.1263 121.368 99.1945 121.395 99.2628 121.422C99.3447 121.463 99.4403 121.476 99.5358 121.49C99.7133 121.49 99.8771 121.463 100 121.395C100.109 121.341 100.177 121.245 100.191 121.15C100.191 121.123 100.191 121.083 100.177 121.055C100.177 121.028 100.15 120.988 100.123 120.96C99.5358 120.119 99.0034 119.223 98.5666 118.3C98.0614 117.241 97.6655 116.142 97.3652 115.015" fill="#FCDA2F"/>
<path d="M95.9317 114.92C95.5631 114.893 95.1945 114.852 94.8259 114.825C95.0444 115.924 95.3584 117.01 95.7816 118.056C96.1638 119.019 96.6416 119.956 97.1877 120.852C97.215 120.879 97.2287 120.906 97.2423 120.933C97.3106 121.055 97.3925 121.178 97.4607 121.286C97.5154 121.341 97.5973 121.381 97.6655 121.422C97.7474 121.449 97.843 121.476 97.9249 121.49C98.1024 121.517 98.2662 121.49 98.3891 121.422C98.4983 121.368 98.5666 121.273 98.5802 121.191C98.5802 121.15 98.5802 121.123 98.5802 121.096C98.5802 121.083 98.5802 121.055 98.5529 121.042C97.9659 120.16 97.4471 119.223 97.0239 118.246C96.5597 117.187 96.1911 116.074 95.9317 114.933" fill="#FCDA2F"/>
<path d="M94.5666 114.798C94.198 114.757 93.8293 114.716 93.4607 114.662C93.6382 115.789 93.9249 116.888 94.3208 117.961C94.6894 118.965 95.1399 119.942 95.6723 120.879C95.6997 120.906 95.7133 120.947 95.727 120.974C95.7816 121.083 95.8498 121.178 95.9181 121.273C95.9727 121.327 96.041 121.368 96.1092 121.408C96.1911 121.449 96.273 121.476 96.3686 121.49C96.5461 121.517 96.7099 121.49 96.8464 121.436C96.9556 121.381 97.0239 121.3 97.0512 121.205C97.0512 121.164 97.0512 121.137 97.0512 121.11C97.0512 121.096 97.0512 121.083 97.0375 121.069C96.4642 120.146 95.959 119.169 95.5631 118.151C95.1263 117.078 94.7986 115.952 94.5802 114.798" fill="#FCDA2F"/>
<path d="M93.215 114.621C93.0648 114.608 92.9147 114.581 92.7645 114.567C92.5597 114.526 92.3413 114.499 92.1365 114.472C92.2867 115.612 92.5324 116.739 92.8874 117.838C93.2696 119.019 93.7747 120.173 94.3891 121.245C94.4437 121.3 94.5119 121.354 94.5802 121.381C94.6621 121.422 94.744 121.449 94.8259 121.463C95.0034 121.49 95.1672 121.463 95.3038 121.422C95.413 121.368 95.4949 121.3 95.5085 121.205C95.5085 121.178 95.5085 121.137 95.5085 121.11C95.5085 121.096 95.5085 121.083 95.5085 121.069C94.9352 120.105 94.471 119.087 94.0751 118.028C93.6792 116.929 93.3788 115.789 93.2014 114.621" fill="#FCDA2F"/>
<path d="M91.8908 114.431C91.5768 114.377 91.2491 114.323 90.9352 114.268C91.0171 115.436 91.2082 116.59 91.5222 117.716C91.8498 118.924 92.3003 120.105 92.8737 121.232C92.9283 121.286 92.9966 121.341 93.0648 121.381C93.1468 121.422 93.2287 121.449 93.3242 121.476C93.5017 121.503 93.6655 121.503 93.802 121.449C93.9113 121.408 93.9932 121.327 94.0205 121.245C94.0205 121.205 94.0205 121.178 94.0205 121.137C94.0205 121.096 93.9932 121.069 93.9795 121.028C93.4334 120.037 92.9966 118.992 92.6416 117.92C92.273 116.78 92.0273 115.626 91.8771 114.431" fill="#FCDA2F"/>
<path d="M90.7031 114.214C90.3754 114.146 90.0341 114.078 89.6928 114.01C89.7338 115.219 89.884 116.413 90.157 117.567C90.4437 118.816 90.8669 120.037 91.4266 121.191C91.4812 121.259 91.5358 121.3 91.6041 121.341C91.686 121.381 91.7679 121.422 91.8498 121.449C92.0273 121.49 92.1911 121.49 92.3276 121.449C92.4369 121.408 92.5188 121.341 92.5461 121.245C92.5461 121.245 92.5461 121.178 92.5461 121.137C92.5461 121.11 92.5188 121.069 92.5051 121.028C92 119.97 91.5904 118.884 91.2764 117.757C90.9625 116.603 90.7577 115.409 90.6758 114.2" fill="#FCDA2F"/>
<path d="M89.4607 113.956C89.1468 113.888 88.8328 113.82 88.5188 113.739C88.5188 113.834 88.5188 113.929 88.5461 114.024C88.5461 114.228 88.5461 114.431 88.5461 114.621C88.5188 115.612 88.314 116.576 87.959 117.458C87.6177 118.341 87.1126 119.169 86.4846 119.888C86.4846 119.888 86.4437 119.956 86.43 119.997C86.43 120.024 86.4164 120.065 86.43 120.092C86.43 120.187 86.5119 120.268 86.6212 120.322C86.744 120.377 86.9079 120.404 87.0853 120.39C87.1809 120.39 87.2628 120.35 87.3447 120.322C87.4266 120.282 87.4949 120.241 87.5495 120.187C88.1092 119.535 88.5734 118.802 88.9147 118.042C89.256 117.268 89.4744 116.44 89.5563 115.585C89.4881 115.042 89.4471 114.499 89.4334 113.956" fill="#FCDA2F"/>
<path d="M88.273 113.685C87.9864 113.617 87.6997 113.535 87.413 113.467C87.413 113.535 87.413 113.59 87.413 113.644C87.413 113.807 87.413 113.97 87.413 114.133C87.372 115.11 87.1672 116.074 86.7986 116.97C86.4437 117.838 85.9386 118.653 85.2969 119.372C85.2969 119.372 85.256 119.413 85.2287 119.44C85.2014 119.467 85.1877 119.508 85.1741 119.535C85.1741 119.576 85.1741 119.603 85.1741 119.63C85.1741 119.725 85.256 119.807 85.3652 119.861C85.488 119.929 85.6519 119.97 85.8293 119.942C85.9249 119.942 86.0205 119.915 86.1024 119.875C86.1706 119.847 86.2253 119.82 86.2662 119.779C86.8942 119.06 87.3857 118.259 87.727 117.377C88.0683 116.508 88.273 115.571 88.2867 114.608C88.2867 114.418 88.2867 114.228 88.2867 114.024C88.2867 113.915 88.273 113.793 88.2594 113.671" fill="#FCDA2F"/>
<path d="M87.1809 113.4C86.8669 113.318 86.5666 113.223 86.2526 113.128V113.196C86.2526 113.332 86.2526 113.454 86.2526 113.59C86.2116 114.567 85.9932 115.517 85.6246 116.427C85.256 117.323 84.7372 118.151 84.0683 118.87C84.041 118.911 84.0273 118.938 84.0136 118.979C84.0136 119.006 84 119.046 84.0136 119.074C84.0136 119.169 84.0956 119.25 84.2048 119.304C84.3276 119.372 84.4915 119.399 84.6689 119.386C84.7509 119.386 84.8464 119.345 84.9283 119.318C84.9829 119.304 85.0376 119.277 85.0785 119.237C85.7201 118.531 86.2253 117.73 86.5802 116.875C86.9352 116.006 87.1399 115.083 87.1809 114.119C87.1809 113.956 87.1809 113.793 87.1809 113.644C87.1809 113.562 87.1809 113.481 87.1809 113.4Z" fill="#FCDA2F"/>
<path d="M85.2423 112.137C85.3515 112.286 85.5154 112.395 85.6928 112.436C88 113.155 90.4027 113.698 92.8328 114.051C95.2628 114.404 97.7201 114.581 100.15 114.553C100.341 114.553 100.532 114.499 100.683 114.39C100.833 114.295 100.956 114.133 101.01 113.956C101.01 113.929 101.01 113.943 101.01 113.929C101.078 113.725 101.051 113.508 100.956 113.332C100.86 113.155 100.71 113.019 100.505 112.952H100.478C100.478 112.952 100.437 112.924 100.41 112.924C100.396 112.924 100.369 112.924 100.355 112.924C97.9795 112.924 95.5904 112.748 93.215 112.381C90.8396 112.029 88.4915 111.486 86.2253 110.78H86.1843C86.1297 110.753 86.0751 110.725 86.0068 110.712C85.9386 110.712 85.884 110.698 85.8294 110.698C85.5973 110.698 85.3925 110.807 85.2423 110.97C85.0922 111.133 84.9966 111.363 85.0102 111.608C85.0102 111.811 85.0785 112.001 85.2014 112.151" fill="#FCDA2F"/>
<path d="M15.099 67.1113L5.88396 75.3916C5.46075 75.9345 4.7099 76.7354 4.43686 77.3463C4.3686 77.4956 4.31399 77.6585 4.28669 77.8214C4.24573 77.9843 4.23208 78.1472 4.23208 78.3236C4.23208 78.4051 4.23208 78.4865 4.23208 78.568C4.23208 78.6494 4.24573 78.7309 4.27304 78.8123C4.30034 78.948 4.3413 79.0702 4.3686 79.1924C4.86007 80.8484 5.22867 82.5452 5.55631 84.242C5.85666 85.803 6.11604 87.3505 6.32082 88.9251C6.5256 90.4862 6.67577 92.0608 6.78498 93.649C6.8942 95.21 6.93515 96.7846 6.93515 98.3728C6.93515 99.6081 6.90785 100.843 6.83959 102.079C6.77133 103.314 6.67577 104.563 6.5529 105.784C6.43003 106.965 6.27986 108.133 6.10239 109.314C5.95222 110.332 5.77474 111.35 5.56997 112.368C7.2628 112.3 8.96928 112.137 10.6621 111.879C12.7372 111.567 14.7986 111.106 16.7782 110.535L16.942 109.694C17.2696 107.997 17.5427 106.3 17.7611 104.59C18.0068 102.717 18.1843 100.83 18.3072 98.943C18.5529 95.2236 18.5529 91.4907 18.3208 87.7713C18.0887 84.052 17.6246 80.3598 16.9283 76.6947L15.1126 67.2199C15.1126 67.2199 15.099 67.1656 15.0853 67.1384" fill="white"/>
<path d="M16.1638 66.1611L15.3038 66.9348C15.3174 67.0027 15.3447 67.0841 15.3584 67.152L17.1741 76.6268C17.8703 80.2919 18.3481 84.0112 18.5802 87.7306C18.8123 91.4635 18.8123 95.1964 18.5802 98.9294C18.4573 100.816 18.2799 102.703 18.0341 104.59C17.8157 106.3 17.5427 108.024 17.215 109.721L17.0785 110.44C17.2423 110.386 17.4198 110.332 17.5836 110.291C17.6792 110.25 17.7611 110.223 17.8567 110.196C17.8976 110.196 17.9522 110.182 18.0068 110.169C18.3618 108.35 18.6485 106.531 18.8942 104.698C19.1399 102.812 19.3311 100.898 19.4539 98.9837C19.6997 95.2236 19.6997 91.4364 19.4539 87.6763C19.2218 83.9162 18.744 80.1697 18.0478 76.4639L16.2321 66.9891C16.2048 66.9212 16.1911 66.8398 16.1775 66.7583C16.1638 66.6769 16.1502 66.5954 16.1502 66.514C16.1502 66.3918 16.1638 66.2697 16.1911 66.1475" fill="#FCDA2F"/>
<path d="M26.1297 73.179L18.1297 66.514L18.1024 66.4868C18.0205 66.4054 17.9113 66.3375 17.802 66.2832C16.8464 65.9031 16.7645 67.1384 16.8737 67.7357L18.5256 76.3553C18.8805 78.1743 19.1672 79.9933 19.3993 81.8258L22.157 84.1741L21.57 74.7943L21.9249 74.6586C23.3174 74.1292 24.7235 73.6133 26.1433 73.1518" fill="#DBDFE1"/>
<path d="M25.2696 71.3193L18.7031 65.8624C18.7031 65.8624 18.6348 65.7946 18.6075 65.7674C18.4983 65.686 18.3891 65.6181 18.2662 65.5774C18.0887 65.5095 17.8976 65.4688 17.7065 65.4688C17.1195 65.4688 16.6553 65.9303 16.6553 66.514C16.6553 66.5819 16.6553 66.6226 16.6553 66.6905C16.6553 66.7448 16.6826 66.799 16.6962 66.8533V66.9484V66.7312C16.6962 66.5683 16.7509 66.3918 16.8601 66.2697C16.9693 66.1339 17.1195 66.0389 17.2833 66.0117H17.3379C17.3379 66.0117 17.4061 66.0117 17.4471 66.0117C17.5973 66.0117 17.7474 66.0389 17.884 66.0932C18.0205 66.1475 18.157 66.2425 18.2662 66.3375H18.2935L23.058 70.3148L26.4164 73.1111C26.6485 73.0296 26.8805 72.9618 27.1263 72.8803L25.2696 71.3329V71.3193Z" fill="#FFC713"/>
<path d="M4.80546 76.3553C4.35495 76.749 3.78157 77.1698 3.53584 77.7263C3.41297 77.9978 3.34471 78.2829 3.34471 78.5815C3.34471 78.7308 3.35836 78.8802 3.38567 79.0159C3.41297 79.1788 3.46758 79.3281 3.52218 79.491V79.5182C4.31399 82.5588 4.91468 85.6402 5.32423 88.7487C5.72014 91.8572 5.92491 94.9657 5.92491 98.0878C5.92491 100.531 5.80205 102.988 5.55631 105.431C5.31058 107.766 4.95563 110.087 4.49147 112.381C4.7645 112.381 5.03754 112.381 5.29693 112.368C5.50171 111.323 5.67918 110.291 5.843 109.273C6.02048 108.119 6.17065 106.952 6.29352 105.757C6.41638 104.522 6.51195 103.3 6.5802 102.065C6.64846 100.816 6.67577 99.5809 6.67577 98.3728C6.67577 96.8118 6.62116 95.2372 6.5256 93.6761C6.41638 92.1151 6.26621 90.5405 6.06143 88.9659C5.85666 87.3912 5.59727 85.8302 5.29693 84.2963C4.98293 82.6538 4.61433 80.9977 4.10921 79.2602C4.04096 79.0295 4.0273 78.9345 4 78.853C3.9727 78.7716 3.9727 78.6765 3.95904 78.5815C3.95904 78.4729 3.94539 78.3915 3.94539 78.31C3.94539 78.12 3.9727 77.9435 4 77.7671C4.04096 77.5906 4.09556 77.4141 4.17747 77.2513C4.24573 77.0884 4.3413 76.9255 4.45051 76.7762C4.58703 76.5997 4.69625 76.4639 4.77816 76.3553" fill="#FCDA2F"/>
<path d="M77.2696 56.4554L77.1468 56.6591C76.2594 58.0844 75.5358 59.6183 74.9761 61.1929V61.22C75.1536 61.3286 75.3037 61.4915 75.3993 61.6951C75.5358 61.9666 75.5495 62.2924 75.4539 62.5774C75.3584 62.8625 75.1399 63.1068 74.8669 63.2426C74.6894 63.324 74.5119 63.3648 74.3208 63.3648C74.116 64.1792 73.9659 64.9937 73.843 65.8081C73.7338 66.5954 73.6655 67.3963 73.6246 68.1972V68.3329C73.8293 68.4415 74.0068 68.6044 74.116 68.808C74.2662 69.0795 74.3072 69.3917 74.2253 69.6904C74.1433 69.989 73.9386 70.2333 73.6792 70.3827C73.4061 70.532 73.0922 70.5727 72.7918 70.4913H72.7645C71.9727 70.2605 71.1672 70.0569 70.3618 69.8533C70.43 70.0026 70.4983 70.1655 70.5665 70.3284C70.6485 70.5048 70.7304 70.6949 70.8259 70.8713L71.1672 71.5772C65.3515 70.1926 59.3857 69.446 53.3925 69.351C53.215 68.8216 53.0648 68.2922 52.9283 67.7493L52.901 67.6271C52.6007 67.6271 52.3003 67.6271 52 67.6271C51.6997 67.6271 51.3993 67.6271 51.099 67.6271L51.0717 67.7493C50.9488 68.2922 50.785 68.8216 50.6075 69.351C44.6143 69.4596 38.6485 70.2062 32.8328 71.5772L33.1741 70.8713C33.2696 70.6949 33.3515 70.5048 33.4334 70.3284C33.5017 70.1655 33.57 70.0162 33.6382 69.8533C32.8328 70.0569 32.041 70.2605 31.2355 70.4777H31.2082C30.9079 70.5727 30.5939 70.532 30.3208 70.3827C30.0478 70.2333 29.8567 69.989 29.7747 69.7039C29.6928 69.3917 29.7338 69.0795 29.884 68.808C29.9932 68.6044 30.1843 68.4415 30.3891 68.3329V68.1972C30.3481 67.3963 30.2799 66.5954 30.1706 65.8081C30.0478 64.9937 29.8976 64.1792 29.6928 63.3648C29.5017 63.3648 29.3106 63.324 29.1468 63.2426C28.8737 63.1068 28.6553 62.8625 28.5597 62.5774C28.4778 62.3331 28.4778 62.0616 28.5597 61.8173L28.6143 61.6951C28.7099 61.5051 28.8601 61.3422 29.0375 61.2336V61.2064C28.4778 59.6318 27.7406 58.0979 26.8669 56.6726L26.744 56.469L26.6485 56.3061C26.3208 55.8039 25.9795 55.3152 25.6246 54.8401L25.4608 54.6229L25.2423 54.3514C24.7645 53.7542 24.2594 53.1705 23.727 52.6139L23.5222 52.3967L23.6177 52.0981C26.116 44.2522 29.843 36.827 34.6075 30.0942C37.6382 25.8183 41.0785 21.841 44.8737 18.2303L45.5154 17.6194C47.4949 15.7869 49.5563 14.0494 51.7133 12.4205L52.0273 12.1761L52.3413 12.4205C54.4983 14.0494 56.5597 15.7869 58.5392 17.633L59.1809 18.2438C62.9761 21.8546 66.4164 25.8319 69.4471 30.1078C74.2116 36.8406 77.9249 44.2657 80.4369 52.1117L80.5324 52.4103L80.3276 52.6275C79.7952 53.184 79.2901 53.7677 78.8123 54.365L78.5939 54.6365L78.43 54.8537C78.0751 55.3288 77.7338 55.8175 77.4061 56.3197L77.2969 56.4826L77.2696 56.4554Z" fill="#010101"/>
<path d="M52 67.1113C55.5358 67.1113 59.058 67.3556 62.5665 67.8307C66.0614 68.3058 69.5154 69.0252 72.9147 69.989H72.942C73.1194 70.0433 73.2969 70.0162 73.4334 69.9347C73.5836 69.8533 73.6928 69.7175 73.7338 69.5546C73.7747 69.3782 73.7611 69.2017 73.6792 69.066C73.5973 68.9166 73.4607 68.808 73.2833 68.7673C69.8157 67.79 66.2935 67.057 62.744 66.5683C59.1945 66.0796 55.6041 65.8353 52 65.8353C48.3959 65.8353 44.8191 66.0796 41.2696 66.5683C37.7065 67.057 34.1843 67.79 30.7304 68.7673C30.5529 68.808 30.43 68.9302 30.3481 69.066C30.2662 69.2017 30.2389 69.3917 30.2935 69.5546C30.3481 69.7311 30.4573 69.8668 30.5939 69.9347C30.7304 70.0162 30.9215 70.0433 31.0853 69.989H31.1126C34.5119 69.0252 37.9659 68.3058 41.4471 67.8307C44.942 67.342 48.4778 67.1113 52 67.1113ZM45.2014 18.5968C41.4198 22.194 38.0068 26.1441 35.0034 30.3792C30.2935 37.0306 26.5939 44.4015 24.0956 52.2474C24.6416 52.8175 25.1604 53.4148 25.6382 54.0256L25.9659 52.994C27.7543 47.3742 30.1706 41.9988 33.1331 36.9492C36.1229 31.8724 39.686 27.1486 43.7543 22.8591L44.0819 22.5062L44.1911 22.9813C45.1604 27.3793 45.884 31.8317 46.3754 36.3248C46.8532 40.8043 47.099 45.2974 47.099 49.804C47.099 51.0665 47.0717 52.356 47.0307 53.6591C46.9898 55.003 46.9215 56.3197 46.8396 57.6364V57.8536L46.6075 57.8807C43.7133 58.1658 40.8191 58.6273 37.9522 59.2517C35.0717 59.8762 32.2184 60.6635 29.4198 61.6001C29.256 61.6544 29.1195 61.7766 29.0512 61.9259C28.9829 62.0752 28.9693 62.2517 29.0239 62.4146C29.0785 62.5774 29.2014 62.7132 29.3515 62.7811C29.5017 62.8625 29.6792 62.8761 29.843 62.8082C32.7372 61.8309 35.686 61.0164 38.6758 60.392C41.6519 59.7676 44.6553 59.306 47.686 59.0346L48.7645 58.8988C48.8737 57.4056 48.9556 55.9125 49.0102 54.4465C49.0648 52.9126 49.1058 51.3515 49.1058 49.804C49.1058 44.4693 48.7645 39.1347 48.0956 33.8543C47.4403 28.7096 46.471 23.6193 45.1877 18.5832M58.785 18.5832C57.5017 23.6057 56.5324 28.7096 55.8908 33.8543C55.2218 39.1347 54.8805 44.4558 54.8805 49.804C54.8805 51.3651 54.9078 52.9126 54.9625 54.4465C55.0171 55.926 55.099 57.4056 55.2082 58.8988L56.2867 59.0346C59.3174 59.306 62.3345 59.754 65.2969 60.392C68.273 61.0164 71.2082 61.8173 74.0887 62.7946H74.1297C74.2935 62.8625 74.471 62.8489 74.6212 62.7811C74.7713 62.7132 74.8942 62.5774 74.9488 62.4146C75.0034 62.2517 74.9898 62.0752 74.9215 61.9259C74.8532 61.7766 74.7167 61.6544 74.5529 61.6001C71.7543 60.6635 68.9147 59.8626 66.0205 59.2517C63.1672 58.6273 60.273 58.1794 57.3652 57.8807L57.1468 57.8536V57.6364C57.0512 56.3333 56.9829 55.003 56.942 53.6591C56.901 52.356 56.8737 51.0665 56.8737 49.804C56.8737 45.2974 57.1194 40.8043 57.6109 36.3248C58.1024 31.8317 58.8259 27.3793 59.7952 22.9813L59.9044 22.5062L60.2321 22.8591C64.2867 27.1486 67.8498 31.8724 70.8396 36.9492C73.8157 41.9853 76.2321 47.3607 78.0068 52.994L78.3345 54.0256C78.8259 53.4148 79.331 52.8175 79.8908 52.2474C77.3788 44.4015 73.6928 37.0442 68.9829 30.3792C65.9795 26.1441 62.5665 22.194 58.785 18.5968" fill="#FCDA2F"/>
<path d="M26.0205 54.5279C26.3891 55.0166 26.7304 55.5188 27.058 56.0346C27.1126 56.0075 27.1672 55.9668 27.2355 55.9396C28.3413 55.3966 29.5836 55.098 30.8532 55.098C33.1058 55.098 35.1399 56.0075 36.6143 57.4735C37.0102 57.8807 37.3788 58.3151 37.6928 58.7902L37.8703 58.7495C38.6485 58.5866 39.4266 58.4237 40.2048 58.288C39.4266 56.8627 38.5119 55.5188 37.4471 54.2971C35.0171 51.5144 31.8771 49.3425 28.2867 48.0665C27.6177 49.7362 27.0171 51.433 26.471 53.1569L26.0341 54.5279H26.0205ZM43.6587 57.7179C44.5461 57.5957 45.4471 57.4871 46.3345 57.3921C46.4027 56.2654 46.4573 55.1387 46.4983 54.0256C45.4744 50.5506 44.1911 47.1435 42.6758 43.8585C40.901 40.0034 38.7986 36.2841 36.4096 32.7547C35.413 34.2072 34.4573 35.7004 33.57 37.2071C33.0102 38.1573 32.4642 39.1347 31.9317 40.112C35.4539 42.8676 38.3618 46.2612 40.5188 50.0755C41.8703 52.4782 42.9215 55.0301 43.6587 57.7043M46.2799 41.0758C46.1706 39.5147 46.0341 37.9401 45.8567 36.3791C45.3925 32.076 44.6962 27.8001 43.7816 23.565C42.4573 24.9903 41.1741 26.4563 39.959 27.9766C42.0478 31.4245 43.8498 35.0081 45.3515 38.7274C45.6655 39.5012 45.9795 40.2885 46.2662 41.0758" fill="white"/>
<path d="M46.5392 52.8447C46.5666 51.8402 46.5802 50.8357 46.5802 49.804C46.5802 47.3471 46.4983 44.8902 46.3618 42.4332C45.9386 41.2251 45.488 40.0441 45.0102 38.8632C43.5222 35.2117 41.7474 31.6824 39.7133 28.2888C38.6485 29.6327 37.6246 31.0037 36.6416 32.4154C39.0853 35.999 41.2287 39.7726 43.0307 43.6956C44.3959 46.6684 45.57 49.7226 46.5392 52.8447ZM40.5734 58.2065C41.4744 58.0436 42.3754 57.8943 43.2765 57.7722C42.5529 55.1523 41.5154 52.6411 40.1911 50.2791C38.0751 46.5191 35.2218 43.1798 31.7543 40.4649C30.5119 42.8133 29.3925 45.2295 28.3959 47.7136C32.0546 49.0032 35.2355 51.2158 37.7065 54.0392C38.8123 55.3152 39.7679 56.6998 40.5734 58.2065ZM27.2491 56.3468L27.2764 56.4011C28.1775 57.8672 28.9283 59.4282 29.4881 61.0436C32.041 60.1884 34.6348 59.4689 37.256 58.8852C36.9693 58.478 36.6553 58.0979 36.314 57.745C34.9078 56.3469 32.9693 55.4917 30.8259 55.4917C29.6109 55.4917 28.4369 55.7767 27.372 56.2926C27.3311 56.3197 27.2764 56.3469 27.2355 56.3604" fill="#FCDA2F"/>
<path d="M30.1843 63.2426C30.3891 64.057 30.5529 64.8987 30.6758 65.7267C30.785 66.5276 30.8669 67.342 30.8942 68.1701C34.2799 67.2334 37.7201 66.5276 41.1877 66.0525C44.7645 65.5638 48.3823 65.3059 52 65.3059C55.6177 65.3059 59.2355 65.5502 62.8123 66.0525C66.2935 66.5276 69.7338 67.2334 73.1058 68.1701C73.1331 67.3556 73.215 66.5411 73.3242 65.7267C73.4471 64.8851 73.6109 64.057 73.8157 63.229C71.0034 62.2788 68.1229 61.4915 65.2014 60.8807C62.2389 60.2562 59.2491 59.8083 56.2321 59.5368L54.9352 59.3739L54.7304 59.3468V59.1296C54.6075 57.5821 54.5256 56.0211 54.4573 54.4465C54.4027 52.8718 54.3754 51.3108 54.3754 49.7769C54.3754 44.4286 54.7167 39.0804 55.3857 33.7728C56.0546 28.5196 57.0512 23.307 58.3754 18.1624C56.3549 16.2756 54.2253 14.4838 52.0136 12.787C49.7884 14.4702 47.6723 16.2756 45.6519 18.1624C46.9761 23.2935 47.9727 28.5196 48.6416 33.7728C49.3106 39.0804 49.6519 44.4286 49.6519 49.7769C49.6519 51.3108 49.6246 52.8718 49.5563 54.4465C49.5017 56.0211 49.4061 57.5821 49.3106 59.1296V59.3468L49.0785 59.3739L47.7816 59.5368C44.7645 59.8083 41.7747 60.2562 38.8123 60.8807C35.9044 61.4915 33.0239 62.2788 30.198 63.229" fill="#FCDA2F"/>
<path d="M50.2253 68.9709C50.3481 68.5637 50.471 68.1701 50.5665 67.7628C47.5358 67.8171 44.5188 68.0479 41.5154 68.4687C39.0853 68.808 36.6553 69.256 34.2662 69.8261C34.157 70.0976 34.0341 70.3827 33.9113 70.6541C33.8703 70.7627 33.8157 70.8578 33.7747 70.9664C39.1809 69.7582 44.6962 69.0931 50.2389 68.9709M70.2526 70.9664C70.2116 70.8578 70.157 70.7627 70.116 70.6541C69.9932 70.3691 69.8703 70.0976 69.7611 69.8261C67.372 69.256 64.942 68.808 62.5119 68.4687C59.5222 68.0479 56.4915 67.8171 53.4608 67.7628C53.5563 68.1701 53.6655 68.5773 53.802 68.9709C59.3447 69.0931 64.8601 69.7582 70.2662 70.9664" fill="white"/>
<path d="M77.9795 54.5279C77.6109 55.0166 77.2696 55.5188 76.942 56.0346C76.8874 56.0075 76.8328 55.9668 76.7645 55.9396C75.6587 55.3966 74.4164 55.098 73.1468 55.098C70.8942 55.098 68.8601 56.0075 67.3857 57.4735C66.9898 57.8807 66.6212 58.3151 66.3072 58.7902L66.1297 58.7495C65.3515 58.5866 64.5734 58.4237 63.7952 58.288C64.5734 56.8627 65.4881 55.5188 66.5529 54.2971C68.9829 51.5144 72.1092 49.3425 75.7133 48.0665C76.3822 49.7362 76.9829 51.433 77.529 53.1569L77.9659 54.5279H77.9795ZM60.3413 57.7179C59.4403 57.5957 58.5529 57.4871 57.6519 57.3921C57.5836 56.2654 57.529 55.1387 57.488 54.0256C58.5119 50.5506 59.7952 47.1435 61.3106 43.8585C63.0853 40.0034 65.1877 36.2841 67.5768 32.7547C68.5734 34.2072 69.529 35.7004 70.4164 37.2071C70.9761 38.1573 71.5222 39.1347 72.0546 40.112C68.5324 42.8676 65.6246 46.2612 63.4676 50.0755C62.116 52.4782 61.0648 55.0301 60.3413 57.7043M57.7201 41.0758C57.8293 39.5147 57.9659 37.9401 58.1433 36.3791C58.6075 32.076 59.3037 27.8001 60.2184 23.565C61.5427 24.9903 62.8259 26.4563 64.041 27.9766C61.9522 31.4245 60.1502 35.0081 58.6485 38.7274C58.3345 39.5012 58.0205 40.2885 57.7338 41.0758" fill="white"/>
<path d="M57.4471 52.8447C57.4198 51.8402 57.4061 50.8357 57.4061 49.804C57.4061 47.3471 57.4744 44.8902 57.6246 42.4332C58.0478 41.2251 58.4983 40.0441 58.9761 38.8632C60.4642 35.2117 62.2389 31.6824 64.273 28.2888C65.3379 29.6327 66.3618 31.0037 67.3447 32.4154C64.8874 35.999 62.7577 39.7726 60.9556 43.6956C59.5904 46.6684 58.4164 49.7226 57.4471 52.8447ZM63.413 58.2065C62.5119 58.0436 61.6109 57.8943 60.7099 57.7722C61.4334 55.1523 62.471 52.6411 63.7952 50.2791C65.9113 46.5191 68.7645 43.1798 72.2321 40.4649C73.4744 42.8133 74.5939 45.2295 75.5904 47.7136C71.9317 49.0032 68.7508 51.2158 66.2799 54.0392C65.1741 55.3152 64.2184 56.6998 63.413 58.2065ZM76.7372 56.3468L76.7099 56.4011C75.8089 57.8672 75.058 59.4282 74.4846 61.0436C71.9317 60.1884 69.3379 59.4689 66.7167 58.8852C66.9898 58.478 67.3174 58.0979 67.6587 57.745C69.0648 56.3469 71.0034 55.4917 73.1468 55.4917C74.3618 55.4917 75.5358 55.7767 76.587 56.2926C76.6416 56.3197 76.6826 56.3469 76.7372 56.3604" fill="#FCDA2F"/>
<path d="M88.901 67.1113L98.116 75.3916C98.5392 75.9345 99.2901 76.7354 99.5631 77.3463C99.6314 77.4956 99.686 77.6585 99.7133 77.8214C99.7406 77.9843 99.7679 78.1472 99.7679 78.3236C99.7679 78.4051 99.7679 78.4865 99.7679 78.568C99.7679 78.6494 99.7406 78.7309 99.727 78.8123C99.6997 78.948 99.6587 79.0702 99.6314 79.1924C99.1399 80.8484 98.7713 82.5452 98.4437 84.242C98.1433 85.803 97.884 87.3505 97.6792 88.9251C97.4744 90.4862 97.3242 92.0608 97.215 93.649C97.1058 95.21 97.0648 96.7846 97.0648 98.3728C97.0648 99.6081 97.0921 100.843 97.1604 102.079C97.2287 103.314 97.3242 104.563 97.4471 105.784C97.57 106.965 97.7201 108.133 97.8976 109.314C98.0478 110.332 98.2253 111.35 98.43 112.368C96.7372 112.3 95.0307 112.137 93.3379 111.879C91.2628 111.567 89.215 111.106 87.2218 110.535L87.058 109.694C86.7304 107.997 86.4573 106.3 86.2389 104.59C85.9932 102.717 85.8157 100.83 85.6928 98.943C85.4471 95.2236 85.4471 91.4907 85.6792 87.7713C85.9113 84.052 86.3754 80.3598 87.0717 76.6947L88.8874 67.2199C88.8874 67.2199 88.901 67.1656 88.9147 67.1384" fill="white"/>
<path d="M87.8362 66.1611L88.6962 66.9348C88.6826 67.0027 88.6553 67.0841 88.6416 67.152L86.8259 76.6268C86.1297 80.2919 85.6519 84.0112 85.4198 87.7306C85.1877 91.4635 85.2014 95.1964 85.4334 98.9294C85.5563 100.816 85.7338 102.703 85.9795 104.59C86.2116 106.3 86.471 108.024 86.7986 109.721L86.9352 110.44C86.7713 110.386 86.5938 110.332 86.43 110.291C86.3481 110.25 86.2526 110.223 86.157 110.196C86.116 110.196 86.0614 110.182 86.0068 110.169C85.6519 108.35 85.3652 106.531 85.1194 104.698C84.8737 102.812 84.6962 100.898 84.5734 98.9837C84.3276 95.2236 84.3276 91.4364 84.5597 87.6763C84.7918 83.9162 85.2696 80.1697 85.9795 76.4639L87.7952 66.9891C87.8225 66.9212 87.8362 66.8398 87.8498 66.7583C87.8498 66.6769 87.8771 66.5954 87.8771 66.514C87.8771 66.3918 87.8635 66.2697 87.8362 66.1475" fill="#FCDA2F"/>
<path d="M99.1809 76.3553C99.6314 76.749 100.205 77.1698 100.451 77.7263C100.573 77.9978 100.628 78.2829 100.628 78.5815C100.628 78.7308 100.614 78.8802 100.587 79.0295C100.56 79.1924 100.505 79.3417 100.451 79.491V79.5182C99.6587 82.5588 99.058 85.6402 98.6485 88.7487C98.2389 91.8572 98.0478 94.9657 98.0478 98.0878C98.0478 100.531 98.1706 102.988 98.43 105.431C98.6621 107.766 99.0171 110.087 99.4812 112.381C99.2082 112.381 98.9351 112.381 98.6758 112.368C98.471 111.323 98.2935 110.291 98.1297 109.273C97.9522 108.119 97.802 106.952 97.6928 105.757C97.57 104.522 97.4744 103.3 97.4061 102.065C97.3379 100.816 97.3106 99.5809 97.3106 98.3728C97.3106 96.8118 97.3652 95.2372 97.4607 93.6761C97.57 92.1151 97.7201 90.5405 97.9249 88.9659C98.1297 87.3912 98.3891 85.8302 98.6894 84.2963C99.0034 82.6538 99.372 80.9977 99.8771 79.2602C99.9454 79.0295 99.959 78.9345 99.9864 78.853C100 78.7716 100.014 78.6765 100.027 78.5815C100.027 78.4729 100.041 78.3915 100.041 78.31C100.041 78.12 100.014 77.9435 99.9864 77.7671C99.9454 77.5906 99.8908 77.4141 99.8089 77.2513C99.7406 77.0884 99.6451 76.9255 99.5358 76.7762C99.3993 76.5997 99.2901 76.4639 99.2082 76.3553" fill="#FCDA2F"/>
<path d="M84.5597 82.2194C84.5188 82.5181 84.4915 82.8303 84.4505 83.1289L81.7747 85.423L81.8293 84.5406L84.5734 82.2194H84.5597Z" fill="#FFC713"/>
<path d="M78.7304 71.3193L85.2969 65.8624C85.2969 65.8624 85.3652 65.7946 85.3925 65.7674C85.5017 65.686 85.6109 65.6181 85.7338 65.5774C85.9113 65.5095 86.1024 65.4688 86.2935 65.4688C86.8805 65.4688 87.3447 65.9439 87.3447 66.514C87.3447 66.5819 87.3447 66.6226 87.3447 66.6905C87.3447 66.7448 87.3174 66.799 87.3037 66.8533V66.9484V66.7312C87.3037 66.5683 87.2491 66.3918 87.1399 66.2697C87.0307 66.1339 86.8942 66.0389 86.7167 66.0117H86.6621C86.6621 66.0117 86.5938 66.0117 86.5665 66.0117C86.4164 66.0117 86.2662 66.0389 86.1297 66.0932C85.9932 66.1475 85.8567 66.2425 85.7474 66.3375H85.7201L80.9556 70.3148L77.5973 73.1111C77.3652 73.0296 77.1195 72.9618 76.8874 72.8803L78.744 71.3329L78.7304 71.3193Z" fill="#FFC713"/>
<path d="M77.8703 73.179L85.8703 66.514L85.8976 66.4868C85.9795 66.4054 86.0887 66.3375 86.1979 66.2968C87.1536 65.9167 87.2355 67.152 87.1263 67.7493L85.4744 76.3689C85.1331 78.1879 84.8328 80.0068 84.6007 81.8394L81.843 84.1877L82.43 74.8079L82.0751 74.6721C80.6826 74.1427 79.2764 73.6269 77.8567 73.1654" fill="#DBDFE1"/>
<path d="M19.4403 82.2194C19.4812 82.5181 19.5085 82.8303 19.5495 83.1289L22.2253 85.423L22.1706 84.5406L19.4266 82.2194H19.4403Z" fill="#FFC713"/>
<path d="M11.8089 93.7576C11.2901 94.0019 10.7713 94.2734 10.2526 94.5449C9.56997 94.9114 8.88737 95.2779 8.21843 95.658L7.87713 95.8616L7.84983 95.4679C7.84983 95.2643 7.82252 95.1422 7.71331 94.9793C7.56314 94.7485 7.50853 94.5585 7.49488 94.2734C7.46758 93.9748 7.50853 93.7711 7.61775 93.4861C7.69966 93.2689 7.72696 93.1467 7.69966 92.9024V92.6988L7.89078 92.6581C8.58703 92.4952 9.26962 92.3187 9.95222 92.1015C10.5392 91.9115 11.1263 91.7079 11.686 91.4635C11.6041 90.0925 11.4676 88.7351 11.2355 87.3912C11.0171 86.1967 10.7167 85.0022 10.3345 83.8484L10.2799 83.699L10.3891 83.5904C10.5802 83.4275 10.6621 83.2782 10.7713 83.061C10.9078 82.7896 11.0307 82.5995 11.2628 82.3823C11.4676 82.1923 11.6177 82.0701 11.9044 82.043C12.0546 82.0294 12.1365 81.948 12.2594 81.8394L12.6416 81.4729L12.6689 82.0158C12.7235 83.5226 12.8191 85.0293 12.901 86.536C12.9829 87.9342 13.0648 89.3324 13.1741 90.7305C13.7065 90.4319 14.2116 90.1061 14.7167 89.7396C15.413 89.2373 16.0956 88.6808 16.7372 88.1107L17.1058 87.7849L17.1331 88.2871C17.1331 88.5586 17.1741 88.7215 17.2969 88.9523C17.4608 89.2509 17.5017 89.4952 17.5154 89.8346C17.529 90.2147 17.5154 90.4998 17.3925 90.8663C17.2969 91.1785 17.2696 91.4092 17.2833 91.735V91.9386L17.0921 91.9793C16.3959 92.1287 15.7133 92.3051 15.0307 92.5087C14.4437 92.6852 13.8567 92.8888 13.2833 93.1196C13.3106 94.6806 13.3652 96.2417 13.4061 97.8163C13.4471 99.5267 13.4607 101.237 13.4881 102.947V103.137L13.2969 103.178C12.901 103.26 12.901 103.748 12.2867 103.857C12.0137 103.911 11.8225 103.857 11.6451 103.653C11.5495 103.545 11.5358 103.517 11.3857 103.545L11.058 103.599L11.1126 103.26C11.3993 101.563 11.6314 99.8524 11.7406 98.1421C11.8362 96.6761 11.8498 95.21 11.8089 93.7576Z" fill="#010101"/>
<path d="M7.75427 94.2462C7.78157 94.9521 8.08191 94.7214 8.10921 95.4408C8.83276 95.0336 9.50171 94.6535 10.1433 94.3141C10.7986 93.9748 11.413 93.649 12.041 93.3775C12.1092 94.925 12.1092 96.5132 12 98.1556C11.8908 99.8117 11.6587 101.508 11.372 103.3C11.9044 103.205 11.7543 103.708 12.2867 103.599C12.8191 103.504 12.7509 103.029 13.2833 102.92C13.256 101.156 13.2423 99.4452 13.2014 97.7891C13.1604 96.1467 13.1058 94.5449 13.0785 92.9296C13.7065 92.6716 14.3345 92.4544 14.9898 92.2644C15.6451 92.0608 16.3276 91.8843 17.0648 91.7214C17.0375 90.7712 17.3379 90.7984 17.2969 89.821C17.256 88.8708 16.9693 89.2102 16.9147 88.26C16.1911 88.898 15.5222 89.441 14.8805 89.9025C14.2389 90.364 13.6109 90.7441 12.9829 91.0835C12.8601 89.5496 12.7782 88.0292 12.6826 86.5089C12.6007 85.0293 12.5051 83.5226 12.4505 81.9887C11.9317 82.4773 11.9727 82.0158 11.4539 82.5316C10.9488 83.0339 11.099 83.2647 10.5802 83.7533C10.9488 84.8528 11.2628 86.0474 11.4949 87.3369C11.7406 88.6944 11.8771 90.1197 11.959 91.5993C11.3311 91.8708 10.7031 92.1151 10.0478 92.3187C9.39249 92.5223 8.7099 92.6988 7.9727 92.8753C8.01365 93.5675 7.71331 93.554 7.76792 94.2462" fill="#FCDA2F"/>
<path d="M92.1911 93.7576C92.7099 94.0019 93.2287 94.2734 93.7474 94.5449C94.43 94.9114 95.1126 95.2779 95.7816 95.658L96.1229 95.8616V95.4679C96.1502 95.2643 96.1638 95.1557 96.273 94.9793C96.4369 94.7485 96.4778 94.5585 96.4915 94.2734C96.5051 93.9748 96.4778 93.7711 96.3686 93.4861C96.2867 93.2689 96.2594 93.1467 96.273 92.9024V92.6988L96.0819 92.6581C95.3993 92.4952 94.7031 92.3187 94.0205 92.1015C93.4334 91.9115 92.8601 91.7079 92.2867 91.4635C92.3686 90.0925 92.5051 88.7351 92.7372 87.3912C92.9556 86.1967 93.256 85.0022 93.6382 83.8484L93.6928 83.699L93.5836 83.5904C93.4061 83.414 93.3106 83.2782 93.2014 83.061C93.0648 82.7896 92.942 82.5995 92.7236 82.3823C92.5188 82.1923 92.3549 82.0701 92.0819 82.043C91.9317 82.0294 91.8498 81.948 91.727 81.8394L91.3447 81.4729L91.3174 82.0158C91.2628 83.5226 91.1672 85.0293 91.0717 86.536C90.9898 87.9342 90.9078 89.3324 90.7986 90.7305C90.2662 90.4319 89.7611 90.0925 89.256 89.7396C88.5597 89.2373 87.8771 88.6672 87.2355 88.0971L86.8669 87.7713L86.8396 88.26C86.8123 88.5315 86.7986 88.6944 86.6758 88.9251C86.5119 89.2238 86.471 89.4681 86.4573 89.8075C86.4437 90.1875 86.471 90.4726 86.5802 90.8391C86.6758 91.1513 86.7031 91.3821 86.6894 91.7079V91.9115L86.8805 91.9522C87.5768 92.1015 88.2594 92.278 88.942 92.4816C89.529 92.6716 90.116 92.8617 90.6758 93.0924C90.6485 94.6535 90.5938 96.2145 90.5529 97.7891C90.5119 99.4995 90.4983 101.21 90.471 102.92V103.11L90.6621 103.151C91.058 103.232 91.058 103.721 91.6724 103.83C91.9454 103.884 92.1365 103.83 92.3276 103.626C92.4232 103.517 92.4369 103.49 92.587 103.517L92.9147 103.572L92.8601 103.232C92.5734 101.536 92.3549 99.8253 92.2321 98.1149C92.1365 96.6489 92.1229 95.1829 92.1638 93.7304" fill="#010101"/>
<path d="M96.2457 94.2462C96.2184 94.9521 95.9181 94.7214 95.8908 95.4408C95.1672 95.0336 94.4983 94.6535 93.843 94.3141C93.1877 93.9748 92.5734 93.649 91.9454 93.3775C91.8771 94.925 91.8771 96.5132 91.9864 98.1556C92.0956 99.8117 92.3277 101.508 92.6143 103.3C92.0819 103.205 92.2321 103.708 91.6997 103.599C91.1672 103.504 91.2355 103.029 90.7031 102.92C90.7304 101.156 90.744 99.4452 90.785 97.7891C90.8259 96.1467 90.8805 94.5449 90.9079 92.9296C90.2799 92.6716 89.6519 92.4544 88.9966 92.2644C88.3413 92.0608 87.6587 91.8843 86.9215 91.7214C86.9488 90.7712 86.6485 90.7984 86.6894 89.821C86.7304 88.8708 87.0171 89.2102 87.0717 88.26C87.7952 88.898 88.4642 89.441 89.1058 89.9025C89.7474 90.364 90.3754 90.7441 91.0034 91.0835C91.1263 89.5496 91.2082 88.0292 91.3038 86.5089C91.3857 85.0293 91.4812 83.5226 91.5495 81.9887C92.0683 82.4773 92.0273 82.0158 92.5461 82.5316C93.0512 83.0339 92.901 83.2647 93.4198 83.7533C93.0648 84.8528 92.7372 86.0338 92.5051 87.3369C92.2594 88.6944 92.1229 90.1197 92.041 91.5993C92.6689 91.8708 93.2969 92.1151 93.9522 92.3187C94.6075 92.5223 95.2901 92.6988 96.0273 92.8753C95.9864 93.5675 96.2867 93.554 96.2321 94.2462" fill="#FCDA2F"/>
<path d="M32.4232 137.684C37.256 143.725 43.9317 148.218 52 150.267C60.0683 148.204 66.744 143.711 71.5768 137.684C76.5734 131.44 79.6177 123.567 80.2048 115.015L81.9113 75.1608C76.8601 73.2061 72.1229 71.7401 67.3174 70.7356C62.4437 69.7311 57.4881 69.2153 52 69.2153C46.5119 69.2153 41.5427 69.7175 36.6826 70.7356C31.8635 71.7265 27.1399 73.2061 22.0887 75.1608L23.7952 115.015C24.3823 123.553 27.4266 131.44 32.4232 137.684ZM51.9317 150.783C43.727 148.706 36.942 144.132 32.0273 138.01C26.9625 131.698 23.8908 123.716 23.2901 115.069L21.57 75.0115V74.835L21.7338 74.7672C26.8805 72.7717 31.6724 71.265 36.5734 70.2605C41.4744 69.256 46.471 68.7402 52 68.7402C57.529 68.7402 62.5256 69.256 67.4266 70.2605C72.3276 71.2786 77.1331 72.7853 82.2799 74.7672L82.4437 74.835V75.0115L80.7235 115.056C80.1229 123.716 77.0512 131.698 71.9864 138.01C67.0717 144.145 60.2867 148.706 52.0683 150.783H51.9317Z" fill="#010101"/>
</svg>
