<svg width="292" height="121" viewBox="0 0 292 121" fill="none" xmlns="http://www.w3.org/2000/svg">
<path d="M140.48 71.91V74.48C138.77 75.41 136.79 75.88 134.55 75.88C132.73 75.88 131.18 75.51 129.92 74.78C128.65 74.05 127.65 73.04 126.91 71.76C126.17 70.48 125.8 69.09 125.8 67.59C125.8 65.22 126.65 63.22 128.34 61.6C130.03 59.98 132.12 59.17 134.6 59.17C136.31 59.17 138.21 59.62 140.31 60.51V63.02C138.4 61.93 136.54 61.39 134.72 61.39C132.9 61.39 131.3 61.98 130.07 63.16C128.84 64.34 128.22 65.82 128.22 67.59C128.22 69.36 128.83 70.85 130.04 72C131.25 73.15 132.81 73.73 134.7 73.73C136.59 73.73 138.61 73.12 140.49 71.91" fill="#2758A7"/>
<path d="M154.23 68.78L151.6 62.87L149.16 68.78H154.23ZM152.44 59.29L159.75 75.69H157.36L155.19 70.86H148.23L146.19 75.69H143.79L150.79 59.29H152.44Z" fill="#2758A7"/>
<path d="M159.43 59.36H173.05V61.44H167.37V75.69H165.02V61.44H159.43V59.36Z" fill="#2758A7"/>
<path d="M188.4 59.39H190.74V75.69H188.4V68.6H179.24V75.69H176.91V59.39H179.24V66.44H188.4V59.39Z" fill="#2758A7"/>
<path d="M204.07 61.37C202.2 61.37 200.67 61.95 199.47 63.12C198.27 64.29 197.67 65.78 197.67 67.59C197.67 69.4 198.27 70.81 199.48 71.98C200.68 73.15 202.19 73.73 204 73.73C205.81 73.73 207.34 73.13 208.56 71.94C209.77 70.75 210.38 69.27 210.38 67.49C210.38 65.71 209.77 64.31 208.56 63.13C207.34 61.95 205.85 61.36 204.08 61.36M203.99 59.14C206.51 59.14 208.61 59.94 210.28 61.53C211.96 63.13 212.79 65.12 212.79 67.53C212.79 69.94 211.95 71.92 210.25 73.5C208.56 75.08 206.43 75.86 203.85 75.86C201.27 75.86 199.35 75.07 197.71 73.5C196.07 71.93 195.26 69.95 195.26 67.58C195.26 65.21 196.08 63.13 197.73 61.53C199.38 59.93 201.46 59.14 203.98 59.14" fill="#2758A7"/>
<path d="M217.31 59.39H219.64V73.57H226.98V75.69H217.31V59.39Z" fill="#2758A7"/>
<path d="M233.02 59.39H230.69V75.69H233.02V59.39Z" fill="#2758A7"/>
<path d="M252.48 71.91V74.48C250.77 75.41 248.79 75.88 246.55 75.88C244.73 75.88 243.18 75.51 241.92 74.78C240.65 74.05 239.65 73.04 238.91 71.76C238.17 70.48 237.8 69.09 237.8 67.59C237.8 65.22 238.65 63.22 240.34 61.6C242.03 59.98 244.12 59.17 246.6 59.17C248.31 59.17 250.21 59.62 252.31 60.51V63.02C250.4 61.93 248.54 61.39 246.72 61.39C244.9 61.39 243.3 61.98 242.07 63.16C240.84 64.34 240.22 65.82 240.22 67.59C240.22 69.36 240.83 70.85 242.04 72C243.25 73.15 244.81 73.73 246.7 73.73C248.59 73.73 250.61 73.12 252.49 71.91" fill="#2758A7"/>
<path d="M131.7 83.19H128.78V95.32H131.77C132.94 95.32 133.84 95.24 134.49 95.08C135.13 94.92 135.67 94.72 136.11 94.47C136.54 94.23 136.94 93.92 137.29 93.57C138.44 92.4 139.02 90.93 139.02 89.15C139.02 87.37 138.43 85.97 137.25 84.87C136.81 84.46 136.31 84.12 135.75 83.85C135.18 83.59 134.65 83.41 134.14 83.32C133.63 83.24 132.82 83.19 131.7 83.19ZM126.45 97.39V81.11H131.95C134.17 81.11 135.92 81.44 137.21 82.11C138.5 82.77 139.53 83.75 140.29 85.04C141.05 86.33 141.43 87.74 141.43 89.27C141.43 90.36 141.22 91.4 140.8 92.4C140.38 93.4 139.78 94.27 139 95.03C138.21 95.81 137.28 96.4 136.23 96.79C135.62 97.03 135.05 97.19 134.54 97.27C134.03 97.35 133.05 97.39 131.6 97.39H126.44H126.45Z" fill="#2758A7"/>
<path d="M148.35 81.11H146.02V97.41H148.35V81.11Z" fill="#2758A7"/>
<path d="M161.74 83.1C159.87 83.1 158.34 83.68 157.14 84.85C155.94 86.02 155.34 87.51 155.34 89.32C155.34 91.13 155.94 92.54 157.15 93.71C158.35 94.88 159.86 95.46 161.67 95.46C163.48 95.46 165.01 94.86 166.23 93.67C167.44 92.48 168.05 91 168.05 89.22C168.05 87.44 167.44 86.04 166.23 84.86C165.01 83.68 163.52 83.09 161.75 83.09M161.66 80.87C164.18 80.87 166.28 81.67 167.95 83.26C169.63 84.86 170.46 86.85 170.46 89.26C170.46 91.67 169.62 93.65 167.92 95.23C166.23 96.81 164.1 97.59 161.52 97.59C158.94 97.59 157.02 96.8 155.38 95.23C153.74 93.66 152.93 91.68 152.93 89.31C152.93 86.94 153.76 84.86 155.4 83.26C157.05 81.66 159.13 80.87 161.65 80.87" fill="#2758A7"/>
<path d="M189.07 93.64V96.21C187.36 97.14 185.38 97.61 183.14 97.61C181.32 97.61 179.77 97.24 178.51 96.51C177.24 95.78 176.24 94.77 175.5 93.49C174.76 92.21 174.39 90.82 174.39 89.32C174.39 86.95 175.24 84.95 176.93 83.33C178.62 81.71 180.71 80.9 183.19 80.9C184.9 80.9 186.8 81.35 188.9 82.24V84.75C186.99 83.66 185.13 83.12 183.31 83.12C181.49 83.12 179.89 83.71 178.66 84.89C177.43 86.07 176.81 87.55 176.81 89.32C176.81 91.09 177.42 92.58 178.63 93.73C179.84 94.88 181.4 95.46 183.29 95.46C185.18 95.46 187.2 94.85 189.08 93.64" fill="#2758A7"/>
<path d="M193.61 81.11H202.86V83.19H195.95V88.16H202.62V90.25H195.95V95.32H203.08V97.4H193.61V81.11Z" fill="#2758A7"/>
<path d="M211.25 90.59L209.48 89.51C208.37 88.83 207.58 88.16 207.1 87.5C206.63 86.84 206.4 86.09 206.4 85.23C206.4 83.95 206.84 82.9 207.74 82.1C208.63 81.3 209.79 80.9 211.21 80.9C212.63 80.9 213.82 81.28 214.96 82.05V84.7C213.78 83.57 212.52 83 211.17 83C210.41 83 209.78 83.18 209.29 83.53C208.8 83.88 208.56 84.33 208.56 84.88C208.56 85.37 208.74 85.83 209.1 86.25C209.46 86.68 210.04 87.12 210.84 87.59L212.62 88.64C214.61 89.83 215.6 91.34 215.6 93.18C215.6 94.49 215.16 95.55 214.29 96.37C213.42 97.19 212.28 97.59 210.87 97.59C209.26 97.59 207.79 97.1 206.47 96.11V93.14C207.73 94.74 209.19 95.54 210.85 95.54C211.58 95.54 212.19 95.34 212.68 94.93C213.17 94.52 213.41 94.01 213.41 93.4C213.41 92.41 212.69 91.47 211.26 90.58" fill="#2758A7"/>
<path d="M219.81 81.11H229.05V83.19H222.14V88.16H228.82V90.25H222.14V95.32H229.27V97.4H219.81V81.11Z" fill="#2758A7"/>
<path d="M249.84 83.1C247.97 83.1 246.44 83.68 245.24 84.85C244.04 86.02 243.44 87.51 243.44 89.32C243.44 91.13 244.04 92.54 245.25 93.71C246.45 94.88 247.96 95.46 249.77 95.46C251.58 95.46 253.11 94.86 254.33 93.67C255.54 92.48 256.15 91 256.15 89.22C256.15 87.44 255.54 86.04 254.33 84.86C253.11 83.68 251.62 83.09 249.85 83.09M249.76 80.87C252.28 80.87 254.38 81.67 256.05 83.26C257.73 84.86 258.56 86.85 258.56 89.26C258.56 91.67 257.72 93.65 256.02 95.23C254.33 96.81 252.2 97.59 249.62 97.59C247.04 97.59 245.12 96.8 243.48 95.23C241.84 93.66 241.03 91.68 241.03 89.31C241.03 86.94 241.86 84.86 243.5 83.26C245.15 81.66 247.23 80.87 249.75 80.87" fill="#2758A7"/>
<path d="M263.1 81.11H271.79V83.19H265.43V87.74H271.79V89.82H265.43V97.42H263.1V81.11Z" fill="#2758A7"/>
<path d="M130.51 112.31V116.16H132.8C133.88 116.16 134.66 116.01 135.13 115.71C135.6 115.41 135.84 114.89 135.84 114.15C135.84 113.58 135.61 113.13 135.16 112.8C134.71 112.47 134.11 112.3 133.35 112.3H130.5L130.51 112.31ZM130.51 105.83V109.32H132.63C133.28 109.32 133.79 109.15 134.16 108.82C134.53 108.49 134.71 108.07 134.71 107.56C134.71 107.05 134.53 106.65 134.16 106.32C133.79 105.99 133.28 105.83 132.63 105.83H130.51ZM133.5 102.84C135.18 102.84 136.5 103.25 137.46 104.05C138.42 104.86 138.9 105.82 138.9 106.92C138.9 108.33 138.16 109.42 136.67 110.17C137.79 110.47 138.65 110.99 139.24 111.74C139.84 112.49 140.13 113.36 140.13 114.35C140.13 115.77 139.64 116.92 138.67 117.81C137.7 118.7 136.27 119.14 134.37 119.14H126.43V102.84H133.5Z" fill="#2758A7"/>
<path d="M147.65 105.83V109.54H149.8C150.48 109.54 151.03 109.38 151.43 109.06C151.83 108.74 152.03 108.28 152.03 107.68C152.03 106.45 151.26 105.84 149.71 105.84H147.66L147.65 105.83ZM143.59 102.84H150.87C152.45 102.84 153.73 103.3 154.72 104.21C155.71 105.13 156.2 106.23 156.2 107.53C156.2 109.33 155.27 110.66 153.4 111.52C154.22 111.89 155 112.89 155.73 114.53C156.47 116.16 157.18 117.7 157.87 119.15H153.41C153.14 118.61 152.68 117.59 152.02 116.08C151.36 114.57 150.79 113.6 150.32 113.17C149.85 112.74 149.35 112.53 148.81 112.53H147.64V119.15H143.58V102.85L143.59 102.84Z" fill="#2758A7"/>
<path d="M168.51 115.97C170.05 115.97 171.29 115.51 172.23 114.6C173.17 113.69 173.64 112.49 173.64 111C173.64 109.51 173.17 108.3 172.23 107.39C171.29 106.48 170.05 106.02 168.51 106.02C166.97 106.02 165.71 106.47 164.77 107.39C163.82 108.3 163.35 109.5 163.35 111C163.35 112.5 163.82 113.69 164.77 114.6C165.72 115.52 166.96 115.97 168.51 115.97ZM168.51 102.63C171.29 102.63 173.54 103.47 175.26 105.14C176.98 106.82 177.84 108.77 177.84 110.99C177.84 113.21 176.97 115.2 175.23 116.86C173.49 118.52 171.25 119.35 168.52 119.35C165.79 119.35 163.51 118.52 161.77 116.88C160.04 115.23 159.17 113.27 159.17 111C159.17 108.73 160.03 106.81 161.76 105.14C163.48 103.47 165.74 102.63 168.52 102.63" fill="#2758A7"/>
<path d="M194.95 102.84L189.63 110.51L196.84 119.15H191.76L185.29 111.5V119.15H181.23V102.84H185.29V110.18L190.48 102.84H194.95Z" fill="#2758A7"/>
<path d="M210.97 116.16V119.15H198.95V102.84H210.8V105.83H203.01V109.25H210.44V112.24H203.01V116.16H210.97Z" fill="#2758A7"/>
<path d="M231.06 102.84V119.15H227.63L218.64 108.7V119.15H214.57V102.84H218.3L227 112.81V102.84H231.06Z" fill="#2758A7"/>
<path d="M246.6 112.31V116.16H248.89C249.97 116.16 250.75 116.01 251.22 115.71C251.69 115.41 251.93 114.89 251.93 114.15C251.93 113.58 251.7 113.13 251.25 112.8C250.8 112.47 250.2 112.3 249.44 112.3H246.59L246.6 112.31ZM246.6 105.83V109.32H248.72C249.37 109.32 249.88 109.15 250.25 108.82C250.62 108.49 250.8 108.07 250.8 107.56C250.8 107.05 250.62 106.65 250.25 106.32C249.88 105.99 249.37 105.83 248.72 105.83H246.6ZM249.59 102.84C251.27 102.84 252.59 103.25 253.55 104.05C254.51 104.86 254.99 105.82 254.99 106.92C254.99 108.33 254.25 109.42 252.76 110.17C253.88 110.47 254.74 110.99 255.33 111.74C255.93 112.49 256.22 113.36 256.22 114.35C256.22 115.77 255.73 116.92 254.76 117.81C253.79 118.7 252.36 119.14 250.46 119.14H242.52V102.84H249.59Z" fill="#2758A7"/>
<path d="M269.57 113.08L266.93 106.74L264.53 113.08H269.57ZM269.23 102.85L276.47 119.15H272.1L270.76 115.93H263.46L262.24 119.15H257.94L264.53 102.85H269.24H269.23Z" fill="#2758A7"/>
<path d="M280.83 119.15V111.54L274.4 102.84H279.32L282.86 107.97L286.41 102.84H291.32L284.89 111.54V119.15H280.83Z" fill="#2758A7"/>
<path d="M21.69 17.86C21.76 20.03 22.05 22.19 22.42 24.32C22.84 26.75 23.37 29.16 23.88 31.57L23.97 32.02H22.36C22.45 32.2 22.49 32.43 22.49 32.61C22.49 33 22.32 33.57 21.84 33.57H21.45V98.96H21.78C22.2 98.96 22.52 99.32 22.52 99.73C22.52 99.86 22.49 99.98 22.43 100.1C22.85 100.1 23.17 100.46 23.17 100.87C23.17 101.28 22.85 101.64 22.43 101.64C22.49 101.75 22.52 101.87 22.52 102C22.52 102.41 22.2 102.77 21.78 102.77H21.44C20.98 108.18 20.66 113.6 20.48 119.01C20.48 119.36 20.44 120.08 19.94 120.08C19.44 120.08 19.4 119.36 19.4 119.03C19.22 113.61 18.91 108.19 18.45 102.78H18.11C17.69 102.78 17.37 102.42 17.37 102.01C17.37 101.88 17.4 101.76 17.46 101.65C17.04 101.65 16.72 101.29 16.72 100.88C16.72 100.47 17.04 100.11 17.46 100.11C17.4 100 17.37 99.87 17.37 99.74C17.37 99.33 17.69 98.97 18.11 98.97H18.44C18.44 77.17 18.44 55.38 18.44 33.58H18.05C17.57 33.58 17.4 33.01 17.4 32.62C17.4 32.44 17.44 32.21 17.53 32.03H15.92L16.02 31.58C16.52 29.17 17.05 26.76 17.48 24.33C17.85 22.19 18.14 20.04 18.21 17.87C16.22 17.95 14.24 18.25 12.28 18.64C10.04 19.09 7.81 19.65 5.59 20.2L5.13 20.32V11.72L5.59 11.83C7.81 12.38 10.03 12.94 12.28 13.39C14.24 13.78 16.21 14.08 18.21 14.16C18.13 11.99 17.85 9.83 17.48 7.69C17.06 5.26 16.53 2.85 16.02 0.44L15.92 0H23.97L23.88 0.44C23.38 2.85 22.84 5.26 22.42 7.69C22.05 9.83 21.76 11.99 21.69 14.16C23.68 14.08 25.66 13.78 27.61 13.39C29.86 12.94 32.08 12.38 34.3 11.83L34.76 11.72V20.32L34.3 20.2C32.08 19.66 29.85 19.09 27.61 18.64C25.66 18.25 23.68 17.95 21.69 17.87" fill="#010101"/>
<path d="M21.07 102.73H18.82C19.28 108.13 19.6 113.56 19.78 119.01C19.78 119.4 19.85 119.71 19.95 119.71C20.05 119.71 20.12 119.4 20.12 119.01C20.3 113.56 20.62 108.14 21.08 102.73M21.08 98.99V33.56H18.83C18.83 52.67 18.83 80.11 18.83 98.99H21.08ZM18.12 101.6H21.78C21.98 101.6 22.15 101.78 22.15 102C22.15 102.22 21.98 102.4 21.78 102.4H18.12C17.92 102.4 17.75 102.22 17.75 102C17.75 101.78 17.92 101.6 18.12 101.6ZM17.47 100.46H22.44C22.64 100.46 22.81 100.64 22.81 100.86C22.81 101.08 22.64 101.26 22.44 101.26H17.47C17.26 101.26 17.1 101.08 17.1 100.86C17.1 100.64 17.27 100.46 17.47 100.46ZM18.12 99.33H21.78C21.98 99.33 22.15 99.51 22.15 99.73C22.15 99.95 21.98 100.13 21.78 100.13H18.12C17.92 100.13 17.75 99.95 17.75 99.73C17.75 99.51 17.92 99.33 18.12 99.33Z" fill="#C9AE4F"/>
<path d="M18.06 32.01H21.84C21.99 32.01 22.12 32.28 22.12 32.6C22.12 32.92 21.99 33.19 21.84 33.19H18.06C17.91 33.19 17.78 32.93 17.78 32.6C17.78 32.27 17.91 32.01 18.06 32.01Z" fill="#C9AE4F"/>
<path d="M6.29 13.18L6.35 13.2C10.34 14.19 14.46 15.21 18.56 15.32L19.3 15.34H19.39V15.26L19.37 14.52C19.27 10.22 18.36 5.91 17.46 1.7L17.35 1.16H22.53L22.42 1.7C21.53 5.91 20.61 10.22 20.51 14.52L20.49 15.26V15.35H20.57L21.32 15.33C25.42 15.22 29.54 14.2 33.53 13.21L33.59 13.19V18.82H33.53C29.54 17.82 25.42 16.8 21.32 16.69L20.57 16.67H20.48V16.75L20.5 17.5C20.6 21.8 21.51 26.11 22.41 30.32L22.52 30.86H17.34L17.45 30.32C18.34 26.11 19.26 21.8 19.36 17.5L19.38 16.75V16.66H19.3L18.56 16.68C14.45 16.79 10.33 17.81 6.34 18.8H6.29V13.18ZM6.45 13.39V18.6C10.41 17.62 14.46 16.62 18.55 16.51L19.55 16.49L19.53 17.5C19.43 21.83 18.52 26.13 17.62 30.35L17.55 30.69H22.32L22.25 30.35C21.35 26.12 20.44 21.83 20.34 17.5L20.32 16.49L21.33 16.51C25.42 16.62 29.47 17.62 33.43 18.6V13.39C29.47 14.37 25.42 15.37 21.33 15.48L20.32 15.51L20.34 14.51C20.44 10.17 21.35 5.88 22.25 1.66L22.32 1.32H17.55L17.62 1.66C18.52 5.89 19.43 10.18 19.53 14.52L19.55 15.52L18.55 15.49C14.45 15.38 10.41 14.39 6.45 13.4M6.12 19.04L6.22 19.01L6.38 18.97C10.36 17.98 14.47 16.97 18.56 16.85L19.22 16.83V17.49C19.11 21.77 18.2 26.08 17.3 30.28L17.16 30.92L17.14 31.02H22.73L22.71 30.92L22.57 30.28C21.68 26.07 20.76 21.77 20.67 17.49L20.65 16.83L21.31 16.85C25.4 16.96 29.5 17.98 33.49 18.96L33.65 19L33.75 19.03V12.98L33.65 13L33.49 13.04C29.51 14.03 25.4 15.05 21.31 15.15L20.65 15.17L20.67 14.51C20.77 10.23 21.68 5.93 22.57 1.72L22.71 1.08L22.73 0.98H17.14L17.16 1.08L17.3 1.71C18.19 5.92 19.11 10.22 19.2 14.51V15.17L18.56 15.15C14.47 15.04 10.36 14.02 6.38 13.04L6.22 13L6.12 12.98V19.04ZM34.38 12.19V19.84C29.74 18.7 25.5 17.6 21.3 17.49C21.4 22.05 22.45 26.64 23.51 31.66H16.37C17.42 26.63 18.47 22.04 18.58 17.49C14.38 17.6 10.13 18.7 5.5 19.84V12.19C10.14 13.33 14.38 14.43 18.58 14.54C18.48 9.98 17.43 5.39 16.37 0.36H23.51C22.46 5.39 21.4 9.98 21.3 14.54C25.5 14.43 29.75 13.33 34.38 12.19ZM6.61 13.62V18.4C10.52 17.43 14.5 16.47 18.54 16.36L19.72 16.33L19.69 17.51C19.59 21.87 18.68 26.15 17.78 30.4L17.75 30.54H22.11L22.08 30.4C21.18 26.16 20.26 21.87 20.16 17.52L20.13 16.34L21.31 16.37C25.36 16.48 29.33 17.44 33.24 18.41V13.63C29.33 14.6 25.35 15.56 21.31 15.67L20.13 15.7L20.16 14.52C20.26 10.17 21.17 5.88 22.07 1.64L22.1 1.5H17.74L17.77 1.64C18.67 5.88 19.59 10.17 19.69 14.53L19.72 15.71L18.54 15.68C14.49 15.57 10.52 14.61 6.61 13.64" fill="#C9AE4F"/>
<path d="M38.09 110.9C25.97 107.8 18.1 97.23 17.24 84.75L15.98 55.25C23.5 52.32 30.02 50.81 38.08 50.81C46.14 50.81 52.67 52.32 60.18 55.25L58.92 84.75C58.06 97.23 50.19 107.8 38.07 110.9" fill="#2758A7"/>
<path d="M47.97 76.52V77.09C47.92 77.15 47.84 77.19 47.76 77.2H47.61C47.59 77.48 47.5 77.75 47.36 77.99C47.19 78.27 46.95 78.52 46.66 78.69C46.33 78.96 46.07 79.28 45.9 79.66C45.72 80.03 45.62 80.44 45.62 80.87V81.95C45.62 81.95 45.71 81.99 45.74 82.03C45.8 82.09 45.84 82.18 45.84 82.28V82.68C45.84 82.78 45.8 82.87 45.74 82.93C45.68 82.99 45.59 83.03 45.49 83.03H44.99L45.71 98.45L46.32 98.93L46.38 98.98V99.06L46.57 104.39C46.57 104.51 46.49 104.62 46.35 104.69C46.25 104.74 46.12 104.77 45.98 104.77H30.47C30.33 104.77 30.2 104.74 30.1 104.69C29.97 104.62 29.88 104.51 29.88 104.39L30.06 99.06V98.98L30.12 98.93L30.73 98.45L31.45 83.03H30.95C30.85 83.03 30.77 82.99 30.7 82.93C30.64 82.87 30.6 82.78 30.6 82.68V82.28C30.6 82.19 30.64 82.1 30.7 82.03C30.73 82 30.77 81.97 30.82 81.95V80.87C30.82 80.45 30.73 80.03 30.55 79.66C30.37 79.29 30.11 78.96 29.79 78.69C29.49 78.52 29.25 78.28 29.09 77.99C28.95 77.75 28.86 77.48 28.83 77.2H28.72C28.62 77.2 28.53 77.16 28.46 77.09C28.39 77.02 28.35 76.93 28.35 76.83V76.38C28.35 76.28 28.39 76.19 28.46 76.12L27.6 73.24L27.54 73.02H32.48V71.13H31.46C31.32 71.13 31.2 71.07 31.11 70.98C31.02 70.89 30.96 70.77 30.96 70.63C30.96 70.49 31.02 70.37 31.11 70.28C31.2 70.19 31.32 70.13 31.46 70.13H32.48V61.91L32.45 61.88L31.96 61.4L31.66 61.1H32.52C32.65 59.99 33.09 58.98 33.77 58.15C34.48 57.28 35.44 56.62 36.57 56.29C36.82 56.16 37.02 55.98 37.17 55.76C37.33 55.52 37.41 55.25 37.41 54.96C37.41 54.94 37.41 54.92 37.41 54.91C37.2 54.78 37.02 54.61 36.89 54.41C36.74 54.17 36.65 53.88 36.65 53.59C36.65 53.17 36.82 52.78 37.1 52.51C37.38 52.23 37.76 52.06 38.18 52.06C38.6 52.06 38.98 52.23 39.26 52.51C39.54 52.79 39.71 53.17 39.71 53.59C39.71 53.88 39.63 54.16 39.48 54.4C39.35 54.61 39.17 54.79 38.95 54.92V54.97C38.95 55.26 39.04 55.54 39.19 55.77C39.33 55.99 39.54 56.18 39.79 56.31C40.92 56.64 41.88 57.3 42.59 58.17C43.27 59 43.71 60.02 43.84 61.12H44.7L44.4 61.42L43.91 61.9L43.88 61.93V70.15H44.81C44.95 70.15 45.07 70.21 45.16 70.3C45.25 70.39 45.3 70.51 45.3 70.65C45.3 70.79 45.24 70.91 45.16 71C45.07 71.09 44.95 71.15 44.81 71.15H43.88V73.04H48.82L48.75 73.26L47.89 76.14C47.94 76.19 47.97 76.25 47.99 76.32V76.4L47.97 76.52Z" fill="#010101"/>
<path d="M32.73 64.73H33.38V62.03H32.73V64.73ZM43.44 62.03H42.79V64.73H43.44V62.03ZM43.44 67.52H42.79V70.22H43.44V67.52ZM32.73 70.22H33.38V67.52H32.73V70.22ZM32.73 67.29H33.38V64.96H32.73V67.29ZM43.44 64.96H42.79V67.29H43.44V64.96ZM33.6 62.03V64.73H34.62L34.45 62.03H33.6ZM34.68 62.03L34.85 64.73H36.89L37.1 62.03H34.68ZM37.33 62.03L37.12 64.73H39.03L38.82 62.03H37.33ZM39.05 62.03L39.26 64.73H41.3L41.47 62.03H39.05ZM41.7 62.03L41.53 64.73H42.55V62.03H41.7ZM42.55 70.22V67.52H41.35L41.18 70.22H42.55ZM40.96 70.22L41.13 67.52H39.48L39.69 70.22H40.96ZM39.46 70.22L39.25 67.52H36.9L36.69 70.22H39.46ZM36.46 70.22L36.67 67.52H35.02L35.19 70.22H36.46ZM34.96 70.22L34.79 67.52H33.59V70.22H34.96ZM33.59 64.96V67.29H34.77L34.63 64.96H33.59ZM34.85 64.96L35 67.29H36.68L36.86 64.96H34.85ZM37.09 64.96L36.91 67.29H39.23L39.05 64.96H37.09ZM42.55 67.29V64.96H41.51L41.36 67.29H42.55ZM41.14 67.29L41.29 64.96H39.28L39.46 67.29H41.14Z" fill="#FCDA2F"/>
<path d="M37.57 54.8C37.63 54.79 37.69 54.78 37.75 54.77C37.86 54.76 37.97 54.75 38.09 54.75C38.21 54.75 38.32 54.75 38.42 54.77C38.5 54.78 38.57 54.79 38.65 54.81L38.62 54.75C38.82 54.65 38.99 54.5 39.1 54.31C39.21 54.13 39.28 53.91 39.28 53.68C39.28 53.35 39.15 53.06 38.93 52.84C38.72 52.63 38.42 52.49 38.09 52.49C37.76 52.49 37.46 52.63 37.25 52.84C37.04 53.05 36.9 53.35 36.9 53.68C36.9 53.92 36.97 54.13 37.09 54.33C37.21 54.52 37.38 54.67 37.59 54.77L37.57 54.81V54.8Z" fill="white"/>
<path d="M36.88 56.55C37.01 56.56 37.14 56.58 37.28 56.59C37.55 56.61 37.82 56.62 38.09 56.62C38.36 56.62 38.63 56.62 38.9 56.59C39.03 56.59 39.17 56.57 39.3 56.55C39.11 56.41 38.94 56.24 38.82 56.05C38.63 55.76 38.52 55.42 38.52 55.06C38.52 55.04 38.52 55.01 38.52 54.97V54.94C38.52 54.94 38.45 54.94 38.41 54.92C38.31 54.91 38.2 54.9 38.1 54.9C37.99 54.9 37.88 54.9 37.78 54.92C37.74 54.92 37.7 54.92 37.67 54.94V54.97C37.67 54.97 37.67 55.04 37.67 55.06C37.67 55.42 37.56 55.76 37.37 56.05C37.24 56.24 37.08 56.41 36.89 56.55" fill="white"/>
<path d="M44.72 70.57H31.37C31.37 70.57 31.29 70.59 31.26 70.62C31.23 70.65 31.21 70.68 31.21 70.73C31.21 70.78 31.23 70.81 31.26 70.84C31.29 70.87 31.33 70.89 31.37 70.89H44.72C44.72 70.89 44.8 70.87 44.83 70.84C44.86 70.81 44.87 70.78 44.87 70.73C44.87 70.68 44.86 70.65 44.83 70.62C44.8 70.59 44.76 70.57 44.72 70.57Z" fill="white"/>
<path d="M32.41 61.55L32.55 61.69H43.63L43.77 61.55H32.41Z" fill="white"/>
<path d="M32.77 61.21H43.4C43.28 60.19 42.86 59.24 42.23 58.47C41.57 57.66 40.67 57.04 39.62 56.73C39.62 56.73 39.55 56.71 39.52 56.69C39.32 56.71 39.12 56.74 38.92 56.75C38.65 56.77 38.38 56.78 38.1 56.78C37.82 56.78 37.55 56.78 37.28 56.75C37.07 56.74 36.87 56.71 36.68 56.69C36.65 56.71 36.61 56.73 36.58 56.74C35.53 57.04 34.63 57.66 33.97 58.47C33.34 59.24 32.92 60.19 32.8 61.21" fill="white"/>
<path d="M43.44 71.22H32.73V73.11H43.44V71.22Z" fill="white"/>
<path d="M28.71 76.15H47.47L48.27 73.45H27.91L28.71 76.15Z" fill="white"/>
<path d="M34.9 99.25L34.83 104.56H41.35L41.28 99.25H34.9Z" fill="white"/>
<path d="M35.15 98.72L34.94 99.13H41.24L41.03 98.72H35.15Z" fill="white"/>
<path d="M41.15 98.72L41.37 99.13H45.74L45.31 98.79L45.25 98.74V98.72H41.15Z" fill="white"/>
<path d="M46.1 104.52L45.92 99.28L45.89 99.25H41.4L41.47 104.56H45.85C45.94 104.56 46.02 104.54 46.07 104.51C46.09 104.51 46.1 104.53 46.1 104.51" fill="white"/>
<path d="M30.3 99.25L30.26 99.27L30.08 104.51C30.08 104.51 30.09 104.5 30.11 104.51C30.16 104.54 30.24 104.56 30.33 104.56H34.71L34.78 99.25H30.29H30.3Z" fill="white"/>
<path d="M30.93 98.72V98.74L30.87 98.79L30.44 99.13H34.81L35.02 98.72H30.93Z" fill="white"/>
<path d="M42.86 78.16C42.88 78.1 42.91 78.04 42.92 77.97C42.98 77.76 43.02 77.55 43.04 77.33H42.08C42.08 77.45 42.06 77.57 42.03 77.69C42 77.84 41.97 77.99 41.91 78.16H42.86Z" fill="white"/>
<path d="M42.59 78.69C42.67 78.56 42.75 78.42 42.8 78.28H41.87V78.31C41.81 78.44 41.77 78.57 41.73 78.69H42.59Z" fill="white"/>
<path d="M38.61 78.28V78.69H40.16L40.37 78.28H38.61Z" fill="white"/>
<path d="M38.61 77.34V78.17H40.39L40.4 77.34H38.61Z" fill="white"/>
<path d="M35.8 78.28L36.02 78.69H37.56V78.28H35.8Z" fill="white"/>
<path d="M35.77 77.34L35.79 78.17H37.56V77.34H35.77Z" fill="white"/>
<path d="M33.37 78.28C33.43 78.43 33.5 78.56 33.58 78.69H34.44C34.4 78.56 34.35 78.43 34.31 78.31V78.28H33.37Z" fill="white"/>
<path d="M33.14 77.33C33.16 77.55 33.19 77.76 33.26 77.97C33.28 78.03 33.3 78.1 33.33 78.16H34.27C34.22 77.99 34.18 77.84 34.15 77.69C34.13 77.57 34.11 77.45 34.1 77.33H33.14Z" fill="white"/>
<path d="M45.37 82.39H30.81L30.8 82.4V82.81H45.37V82.39Z" fill="white"/>
<path d="M35.35 83.15H31.65L30.93 98.6H35.06L35.35 83.15Z" fill="white"/>
<path d="M40.71 83.15H35.46L35.17 98.6H41L40.71 83.15Z" fill="white"/>
<path d="M44.52 83.15H40.83L41.12 98.6H45.24L44.52 83.15Z" fill="white"/>
<path d="M44.69 82.05H45.15V80.99C45.15 80.52 45.26 80.06 45.46 79.64C45.66 79.22 45.96 78.85 46.33 78.54L46.34 78.52C46.59 78.38 46.79 78.18 46.93 77.94C47.04 77.75 47.11 77.54 47.14 77.32H46.67C46.64 77.56 46.57 77.76 46.45 77.94C46.3 78.18 46.08 78.37 45.8 78.53C45.46 78.8 45.19 79.19 44.99 79.61C44.79 80.05 44.67 80.53 44.67 80.98V82.04L44.69 82.05Z" fill="white"/>
<path d="M44.29 82.05H44.53V80.99C44.53 80.52 44.65 80.02 44.87 79.56C45.08 79.11 45.37 78.7 45.73 78.42C45.99 78.27 46.2 78.09 46.33 77.88C46.43 77.72 46.49 77.54 46.52 77.34H45.08C45.06 77.6 45.01 77.86 44.92 78.11C44.81 78.41 44.64 78.68 44.43 78.93C44.38 79 44.33 79.08 44.29 79.16V82.07V82.05Z" fill="white"/>
<path d="M43.56 82.05H44.17V79.34C44.01 79.65 43.87 79.96 43.77 80.28C43.62 80.76 43.55 81.27 43.55 81.78C43.55 81.87 43.55 81.96 43.55 82.06" fill="white"/>
<path d="M43.39 82.05C43.39 81.96 43.39 81.87 43.39 81.77C43.39 81.24 43.47 80.72 43.62 80.23C43.77 79.73 44 79.26 44.29 78.82C44.49 78.58 44.65 78.32 44.75 78.04C44.83 77.81 44.89 77.57 44.9 77.33H44.41V77.38C44.41 77.65 44.39 77.9 44.32 78.14C44.25 78.39 44.14 78.62 43.97 78.82L43.95 78.84V78.86C43.62 79.32 43.38 79.83 43.22 80.36C43.06 80.89 42.98 81.44 42.98 82V82.05H43.39Z" fill="white"/>
<path d="M42.68 82.05H42.83V82C42.83 81.42 42.92 80.86 43.08 80.31C43.25 79.77 43.5 79.25 43.82 78.77L43.84 78.74L43.86 78.72C44.02 78.54 44.12 78.33 44.18 78.11C44.24 77.88 44.26 77.64 44.26 77.39V77.34H43.14C43.12 77.57 43.08 77.79 43.02 78.01C42.94 78.28 42.82 78.53 42.67 78.77V82.06L42.68 82.05Z" fill="white"/>
<path d="M41.22 82.05H42.57V78.8H41.7C41.56 79.22 41.46 79.64 41.38 80.05C41.27 80.62 41.22 81.19 41.22 81.75C41.22 81.83 41.22 81.91 41.22 81.98V82.05Z" fill="white"/>
<path d="M40.56 82.05H41.05V81.99C41.05 81.91 41.05 81.83 41.05 81.76C41.05 81.18 41.1 80.61 41.22 80.03C41.3 79.63 41.4 79.22 41.53 78.81V78.7H41.57C41.62 78.55 41.67 78.41 41.72 78.26C41.79 78.04 41.84 77.85 41.88 77.68C41.9 77.56 41.91 77.45 41.93 77.34H41.37V77.39C41.37 77.54 41.35 77.7 41.32 77.85C41.29 78 41.24 78.14 41.18 78.28C40.98 78.69 40.83 79.12 40.73 79.56C40.63 80 40.58 80.45 40.58 80.9V82.06L40.56 82.05Z" fill="white"/>
<path d="M40.25 82.05H40.4V80.89C40.4 80.43 40.45 79.96 40.56 79.51C40.67 79.06 40.82 78.62 41.02 78.2C41.08 78.07 41.12 77.94 41.15 77.8C41.18 77.66 41.19 77.52 41.19 77.38C41.19 77.36 41.19 77.35 41.19 77.33H40.51L40.49 78.27V78.29L40.25 78.76V82.05Z" fill="white"/>
<path d="M40.13 78.8H38.61V82.05H40.13V78.8Z" fill="white"/>
<path d="M38.45 77.34H37.72V82.06H38.45V77.34Z" fill="white"/>
<path d="M37.56 78.8H36.04V82.05H37.56V78.8Z" fill="white"/>
<path d="M35.77 82.05H35.92V78.76L35.68 78.3V78.27L35.66 77.33H34.98V77.38C34.98 77.53 34.99 77.67 35.02 77.8C35.05 77.94 35.09 78.07 35.15 78.2C35.35 78.62 35.51 79.06 35.61 79.51C35.71 79.96 35.77 80.43 35.77 80.89V82.05Z" fill="white"/>
<path d="M35.12 82.05H35.61V80.89C35.61 80.44 35.56 79.99 35.46 79.55C35.36 79.11 35.21 78.68 35 78.27C34.94 78.13 34.89 77.98 34.86 77.84C34.83 77.69 34.81 77.54 34.81 77.38C34.81 77.36 34.81 77.35 34.81 77.33H34.25C34.25 77.44 34.27 77.55 34.29 77.67C34.32 77.84 34.37 78.03 34.45 78.25C34.5 78.4 34.55 78.54 34.6 78.69H34.64V78.8C34.77 79.21 34.87 79.62 34.95 80.02C35.06 80.6 35.12 81.18 35.12 81.75C35.12 81.82 35.12 81.9 35.12 81.98V82.05Z" fill="white"/>
<path d="M34.96 82.05V81.98C34.96 81.91 34.96 81.83 34.96 81.75C34.96 81.18 34.91 80.61 34.8 80.05C34.72 79.64 34.61 79.22 34.48 78.8H33.6V82.05H34.96Z" fill="white"/>
<path d="M33.34 82.05H33.49V78.76C33.34 78.52 33.22 78.27 33.14 78C33.07 77.78 33.03 77.56 33.02 77.33H31.9V77.38C31.9 77.63 31.92 77.88 31.98 78.1C32.04 78.32 32.14 78.53 32.3 78.71L32.32 78.73L32.34 78.76C32.66 79.23 32.91 79.76 33.08 80.3C33.25 80.84 33.33 81.41 33.33 81.99V82.04L33.34 82.05Z" fill="white"/>
<path d="M32.78 82.05H33.18V82C33.18 81.44 33.1 80.89 32.94 80.36C32.78 79.83 32.53 79.32 32.22 78.86L32.18 78.82C32 78.62 31.89 78.39 31.83 78.14C31.76 77.9 31.74 77.64 31.74 77.38V77.33H31.25C31.27 77.57 31.32 77.81 31.41 78.04C31.52 78.32 31.67 78.58 31.87 78.81C32.16 79.25 32.39 79.72 32.54 80.22C32.69 80.72 32.77 81.23 32.77 81.76C32.77 81.85 32.77 81.94 32.77 82.04" fill="white"/>
<path d="M32 82.05H32.61C32.61 81.96 32.61 81.87 32.61 81.77C32.61 81.26 32.53 80.76 32.39 80.27C32.29 79.95 32.16 79.63 31.99 79.33V82.04L32 82.05Z" fill="white"/>
<path d="M31.65 82.05H31.89V79.14C31.84 79.06 31.8 78.99 31.75 78.91C31.54 78.67 31.37 78.39 31.26 78.09C31.17 77.84 31.11 77.58 31.1 77.32H29.66C29.69 77.52 29.75 77.7 29.85 77.86C29.98 78.07 30.19 78.25 30.45 78.4C30.81 78.68 31.1 79.09 31.31 79.54C31.52 80 31.64 80.51 31.64 80.97V82.03L31.65 82.05Z" fill="white"/>
<path d="M31.03 82.05H31.49V80.99C31.49 80.54 31.38 80.06 31.17 79.62C30.97 79.2 30.7 78.81 30.36 78.54C30.08 78.38 29.86 78.19 29.71 77.95C29.6 77.77 29.52 77.56 29.49 77.33H29.02C29.04 77.55 29.12 77.76 29.23 77.95C29.37 78.19 29.57 78.39 29.82 78.53H29.83V78.55C30.2 78.85 30.5 79.22 30.7 79.65C30.9 80.07 31.01 80.53 31.01 81V82.06L31.03 82.05Z" fill="white"/>
<path d="M47.6 76.99C47.6 76.99 47.61 76.99 47.62 76.99V76.53C47.62 76.53 47.62 76.52 47.62 76.51H28.58V76.98C28.58 76.98 28.58 76.99 28.58 77C28.58 77 28.59 77 28.6 77H47.62L47.6 76.99Z" fill="white"/>
<path d="M38.56 86.99V89.96C40.15 89.59 40.15 87.36 38.56 86.99ZM38.56 94.31V97.34H37.6V94.31C36.98 94.71 36.37 95.12 35.75 95.52L35.54 95.66V94.51L35.6 94.47C36.13 94.12 36.67 93.77 37.2 93.43C36.67 93.08 36.14 92.73 35.6 92.39L35.54 92.35V91.2L35.75 91.34C36.37 91.75 36.98 92.15 37.6 92.55V85.99H37.73C41.64 85.99 41.46 90.52 38.56 90.95V92.55C39.18 92.15 39.79 91.75 40.41 91.34L40.62 91.2V92.35L40.56 92.39C40.03 92.74 39.5 93.09 38.96 93.43C39.49 93.78 40.03 94.13 40.56 94.47L40.62 94.51V95.66L40.41 95.52C39.79 95.12 39.18 94.71 38.56 94.31Z" fill="#010101"/>
<path d="M38.43 86.83C40.37 87.12 40.37 89.83 38.43 90.13V86.83ZM38.43 94.07C39.11 94.52 39.8 94.96 40.48 95.41V94.58C39.89 94.2 39.3 93.81 38.71 93.43C39.3 93.04 39.89 92.66 40.48 92.28V91.45C39.79 91.9 39.11 92.34 38.43 92.79V90.83C41.27 90.52 41.54 86.11 37.74 86.11V92.78C37.06 92.33 36.37 91.89 35.69 91.44V92.27C36.28 92.66 36.87 93.04 37.46 93.42C36.87 93.81 36.28 94.19 35.69 94.57V95.4C36.37 94.95 37.06 94.51 37.74 94.06V97.2H38.43V94.06V94.07Z" fill="#E01F27"/>
<path d="M18.16 71.04L32.39 69.34V69.59L18.16 71.09V71.03V71.04ZM18.16 70.08L32.39 68.67V68.93L18.16 70.15V70.08ZM18.16 69.16L32.39 68.02V68.28L18.16 69.23V69.15V69.16ZM18.16 68.26L32.39 67.39V67.65L18.16 68.34V68.26ZM18.16 67.38L32.39 66.77V67.03L18.16 67.46V67.38ZM32.39 66.43L18.16 66.6V66.51L32.39 66.16V66.43ZM32.39 65.82L18.16 65.74V65.65L32.39 65.56V65.83V65.82ZM32.39 65.21L18.16 64.87V64.79L32.39 64.95V65.21ZM32.39 64.6L18.16 64V63.92L32.39 64.34V64.61V64.6ZM32.39 63.98L18.16 63.12V63.04L32.39 63.71V63.98ZM32.39 63.34L18.16 62.22V62.15L32.39 63.09V63.35V63.34ZM32.39 62.69L18.16 61.29V61.23L32.39 62.44V62.69Z" fill="#FCDA2F"/>
<path d="M58.02 71.04L43.79 69.34V69.59L58.02 71.09V71.03V71.04ZM58.02 70.08L43.79 68.67V68.93L58.02 70.15V70.08ZM58.02 69.16L43.79 68.02V68.28L58.02 69.23V69.15V69.16ZM58.02 68.26L43.79 67.39V67.65L58.02 68.34V68.26ZM58.02 67.38L43.79 66.77V67.03L58.02 67.46V67.38ZM43.79 66.43L58.02 66.6V66.51L43.79 66.16V66.43ZM43.79 65.82L58.02 65.74V65.65L43.79 65.56V65.83V65.82ZM43.79 65.21L58.02 64.87V64.79L43.79 64.95V65.21ZM43.79 64.6L58.02 64V63.92L43.79 64.34V64.61V64.6ZM43.79 63.98L58.02 63.12V63.04L43.79 63.71V63.98ZM43.79 63.34L58.02 62.22V62.15L43.79 63.09V63.35V63.34ZM43.79 62.69L58.02 61.29V61.23L43.79 62.44V62.69Z" fill="#FCDA2F"/>
<path d="M56.78 54.23L56.71 54.21C56.54 54.15 56.37 54.1 56.19 54.04L55.53 53.83L62.22 48.23C62.22 48.23 62.28 48.18 62.31 48.15C62.41 48.06 62.53 48 62.65 47.95C62.82 47.88 63.01 47.75 63.2 47.75C63.4 47.75 63.59 47.8 63.76 47.89L65.09 48.91C67.66 51.23 70.42 53.72 72.9 55.96C73.28 56.31 73.7 56.61 73.92 57.1C74.03 57.34 74.09 57.61 74.09 57.88C74.09 58.02 74.07 58.15 74.05 58.28C74.02 58.41 73.99 58.55 73.94 58.67C73.37 60.89 72.92 63.15 72.63 65.42C72.34 67.68 72.19 69.97 72.19 72.25C72.19 74.05 72.28 75.84 72.46 77.62C72.63 79.33 72.89 81.02 73.23 82.71V82.79H73.58C73.58 82.79 73.63 82.8 73.65 82.81C73.65 82.81 73.66 82.81 73.67 82.81H73.68L73.84 82.86H73.85C74.05 82.96 74.21 83.11 74.31 83.31C74.42 83.53 74.44 83.77 74.38 84L74.37 84.03C74.37 84.03 74.37 84.04 74.37 84.05C74.3 84.27 74.16 84.45 73.98 84.57C73.89 84.64 73.78 84.68 73.67 84.72C73.92 85.42 74.23 86.11 74.6 86.76C75.01 87.49 75.48 88.17 76.01 88.81C76.06 88.86 76.1 88.92 76.13 88.99C76.16 89.06 76.18 89.14 76.18 89.21C76.18 89.42 76.06 89.6 75.89 89.71C75.73 89.82 75.53 89.87 75.34 89.87C75.23 89.87 75.13 89.86 75.03 89.82C74.94 89.8 74.85 89.75 74.77 89.7L74.72 89.67C74.72 89.67 74.67 89.71 74.64 89.73C74.48 89.83 74.28 89.87 74.08 89.87C73.98 89.87 73.87 89.84 73.78 89.81C73.69 89.78 73.61 89.73 73.54 89.68C73.51 89.7 73.48 89.73 73.44 89.75C73.27 89.84 73.07 89.88 72.88 89.86C72.77 89.86 72.67 89.83 72.57 89.79C72.5 89.76 72.43 89.73 72.37 89.68C72.33 89.71 72.29 89.73 72.25 89.76C72.08 89.85 71.88 89.87 71.69 89.85C71.58 89.84 71.48 89.81 71.39 89.77C71.34 89.74 71.28 89.71 71.23 89.69C71.19 89.72 71.15 89.74 71.1 89.77C70.93 89.85 70.73 89.87 70.54 89.85C70.44 89.83 70.34 89.8 70.25 89.76C70.21 89.74 70.17 89.72 70.13 89.69C70.08 89.72 70.03 89.75 69.98 89.78C69.8 89.86 69.6 89.87 69.41 89.84C69.31 89.82 69.21 89.79 69.12 89.74C69.09 89.72 69.06 89.71 69.04 89.69C68.99 89.73 68.93 89.77 68.86 89.79C68.68 89.86 68.48 89.87 68.29 89.82C68.19 89.8 68.09 89.77 68 89.71C67.99 89.71 67.98 89.7 67.97 89.69C67.91 89.73 67.85 89.77 67.77 89.8C67.59 89.86 67.38 89.86 67.2 89.81C67.1 89.78 67.01 89.75 66.92 89.69C66.84 89.64 66.76 89.58 66.7 89.51L66.66 89.47L66.64 89.42C66.23 88.54 65.91 87.62 65.69 86.68C65.69 86.67 65.69 86.65 65.69 86.64C65.64 86.79 65.58 86.94 65.52 87.09C65.26 87.71 64.9 88.27 64.46 88.78H64.45L64.43 88.81C64.35 88.88 64.27 88.93 64.18 88.98C64.08 89.02 63.98 89.05 63.88 89.06C63.69 89.08 63.49 89.06 63.32 88.97C63.2 88.91 63.1 88.82 63.03 88.7C63 88.7 62.97 88.71 62.94 88.71C62.75 88.73 62.55 88.71 62.38 88.61C62.25 88.54 62.15 88.44 62.09 88.31C61.9 88.33 61.7 88.31 61.53 88.2C61.35 88.11 61.22 87.94 61.19 87.73C61.19 87.65 61.19 87.58 61.22 87.5C61.24 87.43 61.28 87.36 61.32 87.31V87.29C61.77 86.79 62.13 86.22 62.39 85.59C62.64 84.96 62.79 84.3 62.82 83.63C62.82 83.55 62.82 83.45 62.82 83.37V83.2C62.82 83.2 62.74 83.17 62.69 83.16C62.48 83.1 62.28 82.98 62.15 82.8C62.01 82.62 61.94 82.4 61.94 82.18C61.94 81.91 62.03 81.65 62.21 81.45C62.33 81.32 62.48 81.23 62.65 81.17C62.39 79.84 62.18 78.5 62.01 77.16C61.83 75.75 61.69 74.34 61.6 72.92C61.42 70.13 61.42 67.33 61.59 64.54C61.65 63.62 61.73 62.69 61.82 61.77L59.48 63.77L60.01 55.34C59 54.95 57.98 54.58 56.94 54.24L56.8 54.19L56.78 54.23Z" fill="#010101"/>
<path d="M1.46 89.68L1.41 89.71C1.33 89.76 1.24 89.81 1.15 89.84C1.05 89.87 0.95 89.88 0.84 89.88C0.65 89.88 0.45 89.83 0.29 89.72C0.12 89.61 0 89.43 0 89.22C0 89.14 0.02 89.06 0.05 88.99C0.08 88.92 0.12 88.86 0.17 88.82C0.7 88.18 1.17 87.49 1.58 86.77C1.95 86.11 2.25 85.43 2.5 84.72C2.39 84.69 2.29 84.64 2.19 84.57C2.01 84.45 1.87 84.27 1.8 84.06C1.8 84.06 1.8 84.04 1.8 84.03V84C1.74 83.77 1.76 83.52 1.87 83.31C1.97 83.11 2.13 82.96 2.32 82.87L2.48 82.81H2.49C2.49 82.81 2.49 82.81 2.51 82.81C2.53 82.81 2.56 82.81 2.58 82.8H2.91L2.93 82.72C3.27 81.04 3.53 79.34 3.7 77.63C3.88 75.85 3.98 74.05 3.98 72.26C3.98 69.98 3.83 67.69 3.54 65.43C3.25 63.16 2.8 60.9 2.23 58.68C2.18 58.55 2.14 58.42 2.12 58.29C2.09 58.16 2.08 58.02 2.08 57.89C2.08 57.62 2.14 57.35 2.25 57.1C2.47 56.61 2.89 56.31 3.27 55.96C6.2 53.31 6.79 52.78 9.82 50.05L12.36 47.94C12.52 47.85 12.76 47.85 12.96 47.85C13.15 47.85 13.33 47.88 13.51 47.96C13.63 48.01 13.75 48.07 13.85 48.15H13.86C13.86 48.15 13.92 48.21 13.95 48.24L20.64 53.84L19.98 54.05C19.81 54.11 19.64 54.16 19.46 54.22L19.38 54.24L19.25 54.29C18.22 54.63 17.2 54.99 16.18 55.39L16.71 63.82L14.37 61.82C14.47 62.74 14.55 63.67 14.6 64.6C14.77 67.39 14.77 70.19 14.59 72.98C14.5 74.4 14.36 75.81 14.18 77.21C14 78.56 13.79 79.89 13.54 81.22C13.71 81.27 13.86 81.37 13.98 81.5C14.16 81.7 14.26 81.97 14.26 82.24C14.26 82.46 14.18 82.68 14.04 82.86C13.91 83.03 13.72 83.17 13.51 83.22C13.51 83.22 13.43 83.24 13.38 83.26V83.43C13.38 83.52 13.38 83.61 13.38 83.69C13.41 84.36 13.55 85.03 13.81 85.65C14.06 86.28 14.42 86.85 14.87 87.35V87.37C14.91 87.42 14.95 87.49 14.97 87.56C14.99 87.64 15 87.71 14.99 87.79C14.97 88 14.83 88.16 14.65 88.26C14.48 88.35 14.28 88.38 14.09 88.36C14.03 88.49 13.93 88.59 13.8 88.66C13.63 88.75 13.43 88.78 13.24 88.76C13.21 88.76 13.18 88.76 13.15 88.75C13.09 88.87 12.98 88.96 12.86 89.02C12.69 89.1 12.49 89.13 12.3 89.1C12.2 89.09 12.1 89.06 12 89.02C11.91 88.98 11.82 88.93 11.75 88.86L11.73 88.84V88.82C11.28 88.32 10.92 87.75 10.66 87.14C10.6 86.99 10.54 86.84 10.49 86.69C10.49 86.7 10.49 86.71 10.49 86.72C10.27 87.67 9.95 88.59 9.54 89.47L9.52 89.52L9.48 89.56C9.42 89.63 9.34 89.69 9.26 89.74C9.17 89.79 9.08 89.83 8.98 89.86C8.79 89.91 8.59 89.91 8.41 89.85C8.34 89.82 8.27 89.79 8.21 89.74C8.2 89.74 8.19 89.75 8.18 89.76C8.09 89.81 7.99 89.85 7.89 89.87C7.7 89.91 7.5 89.9 7.32 89.84C7.25 89.81 7.2 89.78 7.14 89.73C7.12 89.75 7.09 89.77 7.06 89.78C6.97 89.82 6.87 89.86 6.77 89.88C6.58 89.91 6.38 89.9 6.2 89.82C6.15 89.8 6.1 89.77 6.05 89.74C6.01 89.76 5.97 89.79 5.93 89.8C5.84 89.85 5.74 89.87 5.64 89.89C5.45 89.92 5.25 89.89 5.08 89.81C5.03 89.78 4.99 89.76 4.95 89.73C4.9 89.76 4.85 89.79 4.79 89.81C4.69 89.85 4.59 89.88 4.49 89.89C4.3 89.91 4.1 89.89 3.93 89.8C3.89 89.78 3.85 89.75 3.82 89.72C3.76 89.76 3.69 89.8 3.62 89.83C3.52 89.87 3.42 89.89 3.32 89.9C3.13 89.91 2.93 89.88 2.76 89.79C2.72 89.77 2.69 89.75 2.66 89.72C2.58 89.78 2.5 89.81 2.42 89.85C2.32 89.88 2.22 89.9 2.11 89.9C1.92 89.9 1.72 89.87 1.56 89.77C1.53 89.75 1.5 89.73 1.48 89.71" fill="#010101"/>
<path d="M2.9 84.77C3.17 84.77 3.43 84.77 3.7 84.77C3.45 85.58 3.13 86.37 2.73 87.12C2.39 87.77 1.99 88.39 1.54 88.98C1.54 88.98 1.51 89.02 1.49 89.04C1.4 89.16 1.3 89.28 1.2 89.4C1.15 89.43 1.1 89.46 1.04 89.48C0.98 89.5 0.91 89.51 0.84 89.51C0.71 89.51 0.59 89.48 0.5 89.42C0.43 89.37 0.38 89.3 0.38 89.23C0.38 89.21 0.38 89.18 0.4 89.16C0.41 89.14 0.43 89.11 0.45 89.09C1 88.42 1.49 87.71 1.91 86.97C2.3 86.27 2.63 85.53 2.89 84.78" fill="#FCDA2F"/>
<path d="M3.88 84.76C4.15 84.76 4.42 84.75 4.68 84.74C4.47 85.55 4.18 86.33 3.82 87.08C3.43 87.89 2.96 88.66 2.42 89.38C2.37 89.41 2.32 89.44 2.26 89.46C2.2 89.48 2.13 89.5 2.06 89.5C1.93 89.5 1.81 89.48 1.72 89.42C1.64 89.37 1.59 89.31 1.59 89.24C1.59 89.21 1.59 89.19 1.6 89.17C1.6 89.17 1.6 89.15 1.61 89.15C2.08 88.54 2.5 87.89 2.86 87.21C3.27 86.44 3.6 85.62 3.86 84.77" fill="#FCDA2F"/>
<path d="M4.87 84.73C5.15 84.72 5.44 84.7 5.72 84.68C5.53 85.49 5.27 86.28 4.94 87.03C4.64 87.72 4.28 88.38 3.86 89.02C3.85 89.04 3.84 89.06 3.83 89.07C3.76 89.17 3.69 89.27 3.62 89.37C3.57 89.41 3.52 89.43 3.47 89.46C3.41 89.48 3.34 89.5 3.27 89.5C3.14 89.5 3.02 89.48 2.93 89.43C2.85 89.39 2.8 89.32 2.79 89.25C2.79 89.23 2.79 89.2 2.8 89.18C2.8 89.16 2.82 89.13 2.84 89.11C3.27 88.49 3.66 87.83 3.98 87.15C4.35 86.37 4.64 85.56 4.86 84.73" fill="#FCDA2F"/>
<path d="M5.91 84.66C6.18 84.64 6.45 84.61 6.72 84.59C6.56 85.4 6.33 86.2 6.02 86.97C5.74 87.68 5.39 88.37 4.99 89.03C4.97 89.05 4.96 89.07 4.95 89.09C4.9 89.18 4.84 89.27 4.78 89.35C4.74 89.39 4.69 89.42 4.63 89.44C4.57 89.47 4.51 89.49 4.44 89.49C4.31 89.51 4.19 89.49 4.1 89.44C4.02 89.4 3.97 89.34 3.96 89.27C3.96 89.24 3.96 89.22 3.96 89.2C3.96 89.19 3.96 89.17 3.98 89.16C4.41 88.51 4.79 87.82 5.1 87.1C5.44 86.32 5.71 85.5 5.9 84.66" fill="#FCDA2F"/>
<path d="M6.9 84.57C7.17 84.54 7.44 84.51 7.71 84.47C7.58 85.3 7.37 86.11 7.08 86.9C6.81 87.64 6.48 88.36 6.09 89.05C6.07 89.07 6.06 89.1 6.05 89.12C6 89.2 5.96 89.27 5.91 89.34C5.87 89.38 5.82 89.41 5.77 89.44C5.71 89.47 5.65 89.49 5.58 89.5C5.45 89.52 5.33 89.5 5.23 89.46C5.15 89.42 5.09 89.36 5.08 89.29C5.08 89.26 5.08 89.24 5.08 89.22C5.08 89.21 5.08 89.2 5.09 89.19C5.51 88.51 5.88 87.79 6.17 87.04C6.49 86.25 6.73 85.42 6.89 84.57" fill="#FCDA2F"/>
<path d="M7.9 84.44C8.01 84.43 8.12 84.41 8.23 84.4C8.38 84.37 8.54 84.35 8.69 84.33C8.59 85.17 8.4 86 8.15 86.81C7.87 87.68 7.5 88.53 7.05 89.32C7.01 89.36 6.96 89.4 6.91 89.42C6.86 89.45 6.79 89.47 6.73 89.48C6.6 89.5 6.48 89.48 6.39 89.45C6.31 89.41 6.25 89.36 6.24 89.29C6.24 89.27 6.24 89.24 6.24 89.22C6.24 89.21 6.24 89.2 6.24 89.19C6.66 88.48 7 87.73 7.29 86.95C7.58 86.14 7.8 85.3 7.93 84.44" fill="#FCDA2F"/>
<path d="M8.86 84.3C9.09 84.26 9.33 84.22 9.56 84.18C9.5 85.04 9.36 85.89 9.13 86.72C8.89 87.61 8.56 88.48 8.14 89.31C8.1 89.35 8.05 89.39 8 89.42C7.94 89.45 7.88 89.47 7.81 89.49C7.68 89.51 7.56 89.51 7.46 89.47C7.38 89.44 7.32 89.38 7.3 89.32C7.3 89.29 7.3 89.27 7.3 89.24C7.3 89.22 7.32 89.19 7.33 89.16C7.73 88.43 8.05 87.66 8.31 86.87C8.58 86.03 8.76 85.18 8.87 84.3" fill="#FCDA2F"/>
<path d="M9.74 84.14C9.98 84.09 10.23 84.04 10.48 83.99C10.45 84.88 10.34 85.76 10.14 86.61C9.93 87.53 9.62 88.43 9.22 89.28C9.18 89.33 9.14 89.36 9.08 89.39C9.03 89.42 8.97 89.45 8.9 89.47C8.77 89.5 8.65 89.5 8.55 89.47C8.47 89.44 8.41 89.39 8.39 89.32C8.39 89.32 8.39 89.27 8.39 89.24C8.39 89.22 8.41 89.19 8.42 89.16C8.79 88.38 9.09 87.58 9.32 86.75C9.55 85.9 9.7 85.02 9.76 84.13" fill="#FCDA2F"/>
<path d="M10.65 83.95C10.88 83.9 11.11 83.85 11.33 83.79C11.33 83.86 11.33 83.93 11.32 84C11.32 84.15 11.32 84.3 11.32 84.44C11.34 85.17 11.49 85.88 11.75 86.53C12 87.18 12.37 87.79 12.83 88.32C12.83 88.32 12.86 88.37 12.87 88.4C12.88 88.42 12.88 88.45 12.87 88.47C12.87 88.54 12.81 88.6 12.73 88.64C12.64 88.68 12.52 88.7 12.39 88.69C12.32 88.69 12.25 88.66 12.2 88.64C12.14 88.61 12.09 88.58 12.04 88.54C11.63 88.06 11.29 87.52 11.04 86.96C10.79 86.39 10.63 85.78 10.57 85.15C10.62 84.75 10.65 84.35 10.66 83.95" fill="#FCDA2F"/>
<path d="M11.51 83.75C11.72 83.7 11.93 83.64 12.14 83.59C12.14 83.64 12.14 83.68 12.14 83.72C12.14 83.84 12.14 83.96 12.14 84.08C12.17 84.8 12.32 85.51 12.6 86.17C12.86 86.81 13.23 87.41 13.7 87.94C13.7 87.94 13.73 87.97 13.75 87.99C13.77 88.01 13.78 88.04 13.79 88.06C13.79 88.09 13.79 88.11 13.79 88.13C13.79 88.2 13.73 88.26 13.65 88.3C13.56 88.35 13.44 88.37 13.31 88.36C13.24 88.36 13.17 88.34 13.11 88.31C13.06 88.29 13.02 88.27 12.99 88.24C12.53 87.71 12.17 87.12 11.92 86.47C11.67 85.83 11.52 85.14 11.51 84.43C11.51 84.29 11.51 84.15 11.51 84C11.51 83.92 11.52 83.83 11.53 83.74" fill="#FCDA2F"/>
<path d="M12.32 83.54C12.55 83.48 12.77 83.41 13 83.34V83.39C13 83.49 13 83.58 13 83.68C13.03 84.4 13.19 85.1 13.46 85.77C13.73 86.43 14.11 87.04 14.59 87.57C14.61 87.6 14.62 87.62 14.63 87.65C14.63 87.67 14.64 87.7 14.63 87.72C14.63 87.79 14.57 87.85 14.49 87.89C14.4 87.94 14.28 87.96 14.15 87.95C14.08 87.95 14.02 87.92 13.96 87.9C13.92 87.88 13.88 87.86 13.85 87.84C13.39 87.32 13.02 86.73 12.76 86.1C12.5 85.46 12.35 84.78 12.32 84.07C12.32 83.95 12.32 83.83 12.32 83.72C12.32 83.66 12.32 83.6 12.32 83.54Z" fill="#FCDA2F"/>
<path d="M13.4 82.83C13.53 82.79 13.65 82.72 13.73 82.61C13.81 82.5 13.87 82.36 13.87 82.21C13.87 82.03 13.81 81.86 13.7 81.74C13.59 81.62 13.44 81.54 13.27 81.54C13.23 81.54 13.18 81.54 13.13 81.55C13.08 81.56 13.04 81.57 13 81.6H12.98C11.32 82.12 9.61 82.51 7.87 82.78C6.14 83.04 4.38 83.18 2.64 83.18C2.62 83.18 2.61 83.18 2.6 83.18C2.58 83.18 2.56 83.18 2.55 83.18H2.53C2.38 83.23 2.27 83.34 2.2 83.46C2.13 83.59 2.12 83.75 2.16 83.9C2.16 83.9 2.16 83.9 2.16 83.92C2.21 84.05 2.3 84.16 2.41 84.24C2.52 84.32 2.66 84.36 2.8 84.35C4.57 84.37 6.37 84.25 8.16 83.98C9.94 83.72 11.7 83.32 13.39 82.79L13.4 82.83Z" fill="#FCDA2F"/>
<path d="M73.28 84.77C73.01 84.77 72.75 84.77 72.48 84.77C72.73 85.58 73.05 86.37 73.45 87.12C73.79 87.77 74.19 88.39 74.64 88.98C74.64 88.98 74.67 89.02 74.69 89.04C74.79 89.16 74.88 89.29 74.98 89.4C75.03 89.43 75.08 89.46 75.14 89.48C75.2 89.5 75.27 89.51 75.34 89.51C75.47 89.51 75.59 89.48 75.68 89.42C75.75 89.37 75.8 89.3 75.8 89.23C75.8 89.21 75.8 89.18 75.78 89.16C75.77 89.14 75.75 89.11 75.73 89.09C75.18 88.42 74.69 87.71 74.27 86.97C73.88 86.27 73.55 85.53 73.29 84.78" fill="#FCDA2F"/>
<path d="M72.29 84.76C72.02 84.76 71.75 84.75 71.49 84.74C71.7 85.55 71.99 86.33 72.35 87.08C72.74 87.89 73.21 88.66 73.75 89.38C73.8 89.41 73.85 89.44 73.91 89.46C73.97 89.48 74.04 89.5 74.11 89.5C74.24 89.5 74.36 89.47 74.45 89.42C74.53 89.37 74.58 89.31 74.58 89.24C74.58 89.21 74.58 89.19 74.58 89.17C74.58 89.17 74.58 89.15 74.56 89.15C74.09 88.54 73.67 87.89 73.31 87.21C72.9 86.44 72.57 85.62 72.31 84.77" fill="#FCDA2F"/>
<path d="M71.31 84.73C71.03 84.72 70.74 84.7 70.46 84.68C70.65 85.49 70.91 86.28 71.24 87.03C71.54 87.72 71.9 88.38 72.32 89.02C72.32 89.04 72.34 89.06 72.35 89.07C72.42 89.17 72.49 89.27 72.56 89.37C72.61 89.41 72.66 89.43 72.71 89.45C72.77 89.48 72.84 89.49 72.91 89.5C73.04 89.5 73.16 89.48 73.25 89.43C73.33 89.39 73.38 89.32 73.39 89.25C73.39 89.23 73.39 89.2 73.38 89.18C73.38 89.16 73.36 89.13 73.34 89.11C72.91 88.49 72.52 87.83 72.2 87.15C71.83 86.37 71.54 85.56 71.32 84.73" fill="#FCDA2F"/>
<path d="M70.27 84.66C70 84.64 69.73 84.61 69.46 84.59C69.62 85.4 69.85 86.2 70.16 86.97C70.44 87.68 70.79 88.37 71.19 89.03C71.21 89.05 71.22 89.07 71.23 89.09C71.28 89.18 71.34 89.27 71.39 89.35C71.43 89.39 71.49 89.42 71.54 89.45C71.6 89.47 71.67 89.49 71.73 89.5C71.86 89.52 71.98 89.5 72.07 89.45C72.15 89.41 72.2 89.34 72.21 89.28C72.21 89.25 72.21 89.23 72.21 89.21C72.21 89.2 72.21 89.18 72.19 89.17C71.76 88.52 71.38 87.83 71.07 87.11C70.73 86.33 70.46 85.51 70.27 84.67" fill="#FCDA2F"/>
<path d="M69.27 84.57C69 84.54 68.73 84.51 68.46 84.47C68.59 85.3 68.8 86.11 69.09 86.9C69.36 87.64 69.69 88.36 70.08 89.05C70.1 89.07 70.11 89.1 70.12 89.12C70.16 89.2 70.21 89.27 70.26 89.34C70.3 89.38 70.35 89.41 70.4 89.44C70.46 89.47 70.52 89.49 70.59 89.5C70.72 89.52 70.84 89.5 70.94 89.46C71.02 89.42 71.07 89.36 71.09 89.29C71.09 89.26 71.09 89.24 71.09 89.22C71.09 89.21 71.09 89.2 71.08 89.19C70.66 88.51 70.29 87.79 70 87.04C69.68 86.25 69.44 85.42 69.28 84.57" fill="#FCDA2F"/>
<path d="M68.28 84.44C68.17 84.43 68.06 84.41 67.95 84.4C67.8 84.37 67.64 84.35 67.49 84.33C67.6 85.17 67.78 86 68.04 86.81C68.32 87.68 68.69 88.53 69.14 89.32C69.18 89.36 69.23 89.4 69.28 89.42C69.34 89.45 69.4 89.47 69.46 89.48C69.59 89.5 69.71 89.48 69.81 89.45C69.89 89.41 69.95 89.36 69.96 89.29C69.96 89.27 69.96 89.24 69.96 89.22C69.96 89.21 69.96 89.2 69.96 89.19C69.54 88.48 69.2 87.73 68.91 86.95C68.62 86.14 68.4 85.3 68.27 84.44" fill="#FCDA2F"/>
<path d="M67.31 84.3C67.08 84.26 66.84 84.22 66.61 84.18C66.67 85.04 66.81 85.89 67.04 86.72C67.28 87.61 67.61 88.48 68.03 89.31C68.07 89.35 68.12 89.39 68.17 89.42C68.23 89.45 68.29 89.47 68.36 89.49C68.49 89.51 68.61 89.51 68.71 89.47C68.79 89.44 68.85 89.38 68.87 89.32C68.87 89.29 68.87 89.27 68.87 89.24C68.87 89.21 68.85 89.19 68.84 89.16C68.44 88.43 68.12 87.66 67.86 86.87C67.59 86.03 67.41 85.18 67.3 84.3" fill="#FCDA2F"/>
<path d="M66.44 84.14C66.2 84.09 65.95 84.04 65.7 83.99C65.73 84.88 65.84 85.76 66.04 86.61C66.25 87.53 66.56 88.43 66.97 89.28C67.01 89.33 67.05 89.36 67.1 89.39C67.16 89.42 67.22 89.45 67.28 89.47C67.41 89.5 67.53 89.5 67.63 89.47C67.71 89.44 67.77 89.39 67.79 89.32C67.79 89.32 67.79 89.27 67.79 89.24C67.79 89.22 67.77 89.19 67.76 89.16C67.39 88.38 67.09 87.58 66.86 86.75C66.63 85.9 66.48 85.02 66.42 84.13" fill="#FCDA2F"/>
<path d="M65.53 83.95C65.3 83.9 65.07 83.85 64.84 83.79C64.84 83.86 64.84 83.93 64.86 84C64.86 84.15 64.86 84.3 64.86 84.44C64.84 85.17 64.69 85.88 64.43 86.53C64.18 87.18 63.81 87.79 63.35 88.32C63.35 88.32 63.32 88.37 63.31 88.4C63.31 88.42 63.3 88.45 63.31 88.47C63.31 88.54 63.37 88.6 63.45 88.64C63.54 88.68 63.66 88.7 63.79 88.69C63.86 88.69 63.92 88.66 63.98 88.64C64.04 88.61 64.09 88.58 64.13 88.54C64.54 88.06 64.88 87.52 65.13 86.96C65.38 86.39 65.54 85.78 65.6 85.15C65.55 84.75 65.52 84.35 65.51 83.95" fill="#FCDA2F"/>
<path d="M64.66 83.75C64.45 83.7 64.24 83.64 64.03 83.59C64.03 83.64 64.03 83.68 64.03 83.72C64.03 83.84 64.03 83.96 64.03 84.08C64 84.8 63.85 85.51 63.58 86.17C63.32 86.81 62.95 87.41 62.48 87.94C62.48 87.94 62.45 87.97 62.43 87.99C62.41 88.01 62.4 88.04 62.39 88.06C62.39 88.09 62.39 88.11 62.39 88.13C62.39 88.2 62.45 88.26 62.53 88.3C62.62 88.35 62.74 88.38 62.87 88.36C62.94 88.36 63.01 88.34 63.07 88.31C63.12 88.29 63.16 88.27 63.19 88.24C63.65 87.71 64.01 87.12 64.26 86.47C64.51 85.83 64.66 85.14 64.67 84.43C64.67 84.29 64.67 84.15 64.67 84C64.67 83.92 64.66 83.83 64.65 83.74" fill="#FCDA2F"/>
<path d="M63.86 83.54C63.63 83.48 63.41 83.41 63.18 83.34V83.39C63.18 83.49 63.18 83.58 63.18 83.68C63.15 84.4 62.99 85.1 62.72 85.77C62.45 86.43 62.07 87.04 61.58 87.57C61.56 87.6 61.55 87.62 61.54 87.65C61.54 87.67 61.53 87.7 61.54 87.72C61.54 87.79 61.6 87.85 61.68 87.89C61.77 87.94 61.89 87.96 62.02 87.95C62.08 87.95 62.15 87.92 62.21 87.9C62.25 87.89 62.29 87.87 62.32 87.84C62.79 87.32 63.16 86.73 63.42 86.1C63.68 85.46 63.83 84.78 63.86 84.07C63.86 83.95 63.86 83.83 63.86 83.72C63.86 83.66 63.86 83.6 63.86 83.54Z" fill="#FCDA2F"/>
<path d="M62.44 82.61C62.52 82.72 62.64 82.8 62.77 82.83C64.46 83.36 66.22 83.76 68 84.02C69.78 84.28 71.58 84.41 73.36 84.39C73.5 84.39 73.64 84.35 73.75 84.27C73.86 84.2 73.95 84.08 73.99 83.95C73.99 83.93 73.99 83.94 73.99 83.93C74.04 83.78 74.02 83.62 73.95 83.49C73.88 83.36 73.77 83.26 73.62 83.21H73.6C73.6 83.21 73.57 83.19 73.55 83.19C73.54 83.19 73.52 83.19 73.51 83.19C71.77 83.19 70.02 83.06 68.28 82.79C66.54 82.53 64.82 82.13 63.16 81.61H63.13C63.09 81.59 63.05 81.57 63 81.56C62.95 81.56 62.91 81.55 62.87 81.55C62.7 81.55 62.55 81.63 62.44 81.75C62.33 81.87 62.26 82.04 62.27 82.22C62.27 82.37 62.32 82.51 62.41 82.62" fill="#FCDA2F"/>
<path d="M11.06 49.44L4.31 55.54C4 55.94 3.45 56.53 3.25 56.98C3.2 57.09 3.16 57.21 3.14 57.33C3.11 57.45 3.1 57.57 3.1 57.7C3.1 57.76 3.1 57.82 3.1 57.88C3.1 57.94 3.11 58 3.13 58.06C3.15 58.16 3.18 58.25 3.2 58.34C3.56 59.56 3.83 60.81 4.07 62.06C4.29 63.21 4.48 64.35 4.63 65.51C4.78 66.66 4.89 67.82 4.97 68.99C5.05 70.14 5.08 71.3 5.08 72.47C5.08 73.38 5.06 74.29 5.01 75.2C4.96 76.11 4.89 77.03 4.8 77.93C4.71 78.8 4.6 79.66 4.47 80.53C4.36 81.28 4.23 82.03 4.08 82.78C5.32 82.73 6.57 82.61 7.81 82.42C9.33 82.19 10.84 81.85 12.29 81.43L12.41 80.81C12.65 79.56 12.85 78.31 13.01 77.05C13.19 75.67 13.32 74.28 13.41 72.89C13.59 70.15 13.59 67.4 13.42 64.66C13.25 61.92 12.91 59.2 12.4 56.5L11.07 49.52C11.07 49.52 11.06 49.48 11.05 49.46" fill="white"/>
<path d="M11.84 48.74L11.21 49.31C11.22 49.36 11.24 49.42 11.25 49.47L12.58 56.45C13.09 59.15 13.44 61.89 13.61 64.63C13.78 67.38 13.78 70.13 13.61 72.88C13.52 74.27 13.39 75.66 13.21 77.05C13.05 78.31 12.85 79.58 12.61 80.83L12.51 81.36C12.63 81.32 12.76 81.28 12.88 81.25C12.95 81.22 13.01 81.2 13.08 81.18C13.11 81.18 13.15 81.17 13.19 81.16C13.45 79.82 13.66 78.48 13.84 77.13C14.02 75.74 14.16 74.33 14.25 72.92C14.43 70.15 14.43 67.36 14.25 64.59C14.08 61.82 13.73 59.06 13.22 56.33L11.89 49.35C11.87 49.3 11.86 49.24 11.85 49.18C11.84 49.12 11.83 49.06 11.83 49C11.83 48.91 11.84 48.82 11.86 48.73" fill="#FCDA2F"/>
<path d="M19.14 53.91L13.28 49L13.26 48.98C13.2 48.92 13.12 48.87 13.04 48.83C12.34 48.55 12.28 49.46 12.36 49.9L13.57 56.25C13.83 57.59 14.04 58.93 14.21 60.28L16.23 62.01L15.8 55.1L16.06 55C17.08 54.61 18.11 54.23 19.15 53.89" fill="#DBDFE1"/>
<path d="M18.51 52.54L13.7 48.52C13.7 48.52 13.65 48.47 13.63 48.45C13.55 48.39 13.47 48.34 13.38 48.31C13.25 48.26 13.11 48.23 12.97 48.23C12.54 48.23 12.2 48.57 12.2 49C12.2 49.05 12.2 49.08 12.2 49.13C12.2 49.17 12.22 49.21 12.23 49.25V49.32V49.16C12.23 49.04 12.27 48.91 12.35 48.82C12.43 48.72 12.54 48.65 12.66 48.63H12.7C12.7 48.63 12.75 48.63 12.78 48.63C12.89 48.63 13 48.65 13.1 48.69C13.2 48.73 13.3 48.8 13.38 48.87H13.4L16.89 51.8L19.35 53.86C19.52 53.8 19.69 53.75 19.87 53.69L18.51 52.55V52.54Z" fill="#FFC713"/>
<path d="M3.52 56.25C3.19 56.54 2.77 56.85 2.59 57.26C2.5 57.46 2.45 57.67 2.45 57.89C2.45 58 2.46 58.11 2.48 58.21C2.5 58.33 2.54 58.44 2.58 58.56V58.58C3.16 60.82 3.6 63.09 3.9 65.38C4.19 67.67 4.34 69.96 4.34 72.26C4.34 74.06 4.25 75.87 4.07 77.67C3.89 79.39 3.63 81.1 3.29 82.79C3.49 82.79 3.69 82.79 3.88 82.78C4.03 82.01 4.16 81.25 4.28 80.5C4.41 79.65 4.52 78.79 4.61 77.91C4.7 77 4.77 76.1 4.82 75.19C4.87 74.27 4.89 73.36 4.89 72.47C4.89 71.32 4.85 70.16 4.78 69.01C4.7 67.86 4.59 66.7 4.44 65.54C4.29 64.38 4.1 63.23 3.88 62.1C3.65 60.89 3.38 59.67 3.01 58.39C2.96 58.22 2.95 58.15 2.93 58.09C2.91 58.03 2.91 57.96 2.9 57.89C2.9 57.81 2.89 57.75 2.89 57.69C2.89 57.55 2.91 57.42 2.93 57.29C2.96 57.16 3 57.03 3.06 56.91C3.11 56.79 3.18 56.67 3.26 56.56C3.36 56.43 3.44 56.33 3.5 56.25" fill="#FCDA2F"/>
<path d="M56.6 41.59L56.51 41.74C55.86 42.79 55.33 43.92 54.92 45.08V45.1C55.05 45.18 55.16 45.3 55.23 45.45C55.33 45.65 55.34 45.89 55.27 46.1C55.2 46.31 55.04 46.49 54.84 46.59C54.71 46.65 54.58 46.68 54.44 46.68C54.29 47.28 54.18 47.88 54.09 48.48C54.01 49.06 53.96 49.65 53.93 50.24V50.34C54.08 50.42 54.21 50.54 54.29 50.69C54.4 50.89 54.43 51.12 54.37 51.34C54.31 51.56 54.16 51.74 53.97 51.85C53.77 51.96 53.54 51.99 53.32 51.93H53.3C52.72 51.76 52.13 51.61 51.54 51.46C51.59 51.57 51.64 51.69 51.69 51.81C51.75 51.94 51.81 52.08 51.88 52.21L52.13 52.73C47.87 51.71 43.5 51.16 39.11 51.09C38.98 50.7 38.87 50.31 38.77 49.91L38.75 49.82C38.53 49.82 38.31 49.82 38.09 49.82C37.87 49.82 37.65 49.82 37.43 49.82L37.41 49.91C37.32 50.31 37.2 50.7 37.07 51.09C32.68 51.17 28.31 51.72 24.05 52.73L24.3 52.21C24.37 52.08 24.43 51.94 24.49 51.81C24.54 51.69 24.59 51.58 24.64 51.46C24.05 51.61 23.47 51.76 22.88 51.92H22.86C22.64 51.99 22.41 51.96 22.21 51.85C22.01 51.74 21.87 51.56 21.81 51.35C21.75 51.12 21.78 50.89 21.89 50.69C21.97 50.54 22.11 50.42 22.26 50.34V50.24C22.23 49.65 22.18 49.06 22.1 48.48C22.01 47.88 21.9 47.28 21.75 46.68C21.61 46.68 21.47 46.65 21.35 46.59C21.15 46.49 20.99 46.31 20.92 46.1C20.86 45.92 20.86 45.72 20.92 45.54L20.96 45.45C21.03 45.31 21.14 45.19 21.27 45.11V45.09C20.86 43.93 20.32 42.8 19.68 41.75L19.59 41.6L19.52 41.48C19.28 41.11 19.03 40.75 18.77 40.4L18.65 40.24L18.49 40.04C18.14 39.6 17.77 39.17 17.38 38.76L17.23 38.6L17.3 38.38C19.13 32.6 21.86 27.13 25.35 22.17C27.57 19.02 30.09 16.09 32.87 13.43L33.34 12.98C34.79 11.63 36.3 10.35 37.88 9.15L38.11 8.97L38.34 9.15C39.92 10.35 41.43 11.63 42.88 12.99L43.35 13.44C46.13 16.1 48.65 19.03 50.87 22.18C54.36 27.14 57.08 32.61 58.92 38.39L58.99 38.61L58.84 38.77C58.45 39.18 58.08 39.61 57.73 40.05L57.57 40.25L57.45 40.41C57.19 40.76 56.94 41.12 56.7 41.49L56.62 41.61L56.6 41.59Z" fill="#010101"/>
<path d="M38.09 49.44C40.68 49.44 43.26 49.62 45.83 49.97C48.39 50.32 50.92 50.85 53.41 51.56H53.43C53.56 51.6 53.69 51.58 53.79 51.52C53.9 51.46 53.98 51.36 54.01 51.24C54.04 51.11 54.03 50.98 53.97 50.88C53.91 50.77 53.81 50.69 53.68 50.66C51.14 49.94 48.56 49.4 45.96 49.04C43.36 48.68 40.73 48.5 38.09 48.5C35.45 48.5 32.83 48.68 30.23 49.04C27.62 49.4 25.04 49.94 22.51 50.66C22.38 50.69 22.29 50.78 22.23 50.88C22.17 50.98 22.15 51.12 22.19 51.24C22.23 51.37 22.31 51.47 22.41 51.52C22.51 51.58 22.65 51.6 22.77 51.56H22.79C25.28 50.85 27.81 50.32 30.36 49.97C32.92 49.61 35.51 49.44 38.09 49.44ZM33.11 13.7C30.34 16.35 27.84 19.26 25.64 22.38C22.19 27.28 19.48 32.71 17.65 38.49C18.05 38.91 18.43 39.35 18.78 39.8L19.02 39.04C20.33 34.9 22.1 30.94 24.27 27.22C26.46 23.48 29.07 20 32.05 16.84L32.29 16.58L32.37 16.93C33.08 20.17 33.61 23.45 33.97 26.76C34.32 30.06 34.5 33.37 34.5 36.69C34.5 37.62 34.48 38.57 34.45 39.53C34.42 40.52 34.37 41.49 34.31 42.46V42.62L34.14 42.64C32.02 42.85 29.9 43.19 27.8 43.65C25.69 44.11 23.6 44.69 21.55 45.38C21.43 45.42 21.33 45.51 21.28 45.62C21.23 45.73 21.22 45.86 21.26 45.98C21.3 46.1 21.39 46.2 21.5 46.25C21.61 46.31 21.74 46.32 21.86 46.27C23.98 45.55 26.14 44.95 28.33 44.49C30.51 44.03 32.71 43.69 34.93 43.49L35.72 43.39C35.8 42.29 35.86 41.19 35.9 40.11C35.94 38.98 35.97 37.83 35.97 36.69C35.97 32.76 35.72 28.83 35.23 24.94C34.75 21.15 34.04 17.4 33.1 13.69M43.06 13.69C42.12 17.39 41.41 21.15 40.94 24.94C40.45 28.83 40.2 32.75 40.2 36.69C40.2 37.84 40.22 38.98 40.26 40.11C40.3 41.2 40.36 42.29 40.44 43.39L41.23 43.49C43.45 43.69 45.66 44.02 47.83 44.49C50.01 44.95 52.16 45.54 54.27 46.26H54.3C54.42 46.31 54.55 46.3 54.66 46.25C54.77 46.2 54.86 46.1 54.9 45.98C54.94 45.86 54.93 45.73 54.88 45.62C54.83 45.51 54.73 45.42 54.61 45.38C52.56 44.69 50.48 44.1 48.36 43.65C46.27 43.19 44.15 42.86 42.02 42.64L41.86 42.62V42.46C41.79 41.5 41.74 40.52 41.71 39.53C41.68 38.57 41.66 37.62 41.66 36.69C41.66 33.37 41.84 30.06 42.2 26.76C42.56 23.45 43.09 20.17 43.8 16.93L43.88 16.58L44.12 16.84C47.09 20 49.7 23.48 51.89 27.22C54.07 30.93 55.84 34.89 57.14 39.04L57.38 39.8C57.74 39.35 58.11 38.91 58.52 38.49C56.68 32.71 53.98 27.29 50.53 22.38C48.33 19.26 45.83 16.35 43.06 13.7" fill="#FCDA2F"/>
<path d="M19.06 40.17C19.33 40.53 19.58 40.9 19.82 41.28C19.86 41.26 19.9 41.23 19.95 41.21C20.76 40.81 21.67 40.59 22.6 40.59C24.25 40.59 25.74 41.26 26.82 42.34C27.11 42.64 27.38 42.96 27.61 43.31L27.74 43.28C28.31 43.16 28.88 43.04 29.45 42.94C28.88 41.89 28.21 40.9 27.43 40C25.65 37.95 23.35 36.35 20.72 35.41C20.23 36.64 19.79 37.89 19.39 39.16L19.07 40.17H19.06ZM31.98 42.52C32.63 42.43 33.29 42.35 33.94 42.28C33.99 41.45 34.03 40.62 34.06 39.8C33.31 37.24 32.37 34.73 31.26 32.31C29.96 29.47 28.42 26.73 26.67 24.13C25.94 25.2 25.24 26.3 24.59 27.41C24.18 28.11 23.78 28.83 23.39 29.55C25.97 31.58 28.1 34.08 29.68 36.89C30.67 38.66 31.44 40.54 31.98 42.51M33.9 30.26C33.82 29.11 33.72 27.95 33.59 26.8C33.25 23.63 32.74 20.48 32.07 17.36C31.1 18.41 30.16 19.49 29.27 20.61C30.8 23.15 32.12 25.79 33.22 28.53C33.45 29.1 33.68 29.68 33.89 30.26" fill="white"/>
<path d="M34.09 38.93C34.11 38.19 34.12 37.45 34.12 36.69C34.12 34.88 34.06 33.07 33.96 31.26C33.65 30.37 33.32 29.5 32.97 28.63C31.88 25.94 30.58 23.34 29.09 20.84C28.31 21.83 27.56 22.84 26.84 23.88C28.63 26.52 30.2 29.3 31.52 32.19C32.52 34.38 33.38 36.63 34.09 38.93ZM29.72 42.88C30.38 42.76 31.04 42.65 31.7 42.56C31.17 40.63 30.41 38.78 29.44 37.04C27.89 34.27 25.8 31.81 23.26 29.81C22.35 31.54 21.53 33.32 20.8 35.15C23.48 36.1 25.81 37.73 27.62 39.81C28.43 40.75 29.13 41.77 29.72 42.88ZM19.96 41.51L19.98 41.55C20.64 42.63 21.19 43.78 21.6 44.97C23.47 44.34 25.37 43.81 27.29 43.38C27.08 43.08 26.85 42.8 26.6 42.54C25.57 41.51 24.15 40.88 22.58 40.88C21.69 40.88 20.83 41.09 20.05 41.47C20.02 41.49 19.98 41.51 19.95 41.52" fill="#FCDA2F"/>
<path d="M22.11 46.59C22.26 47.19 22.38 47.81 22.47 48.42C22.55 49.01 22.61 49.61 22.63 50.22C25.11 49.53 27.63 49.01 30.17 48.66C32.79 48.3 35.44 48.11 38.09 48.11C40.74 48.11 43.39 48.29 46.01 48.66C48.56 49.01 51.08 49.53 53.55 50.22C53.57 49.62 53.63 49.02 53.71 48.42C53.8 47.8 53.92 47.19 54.07 46.58C52.01 45.88 49.9 45.3 47.76 44.85C45.59 44.39 43.4 44.06 41.19 43.86L40.24 43.74L40.09 43.72V43.56C40 42.42 39.94 41.27 39.89 40.11C39.85 38.95 39.83 37.8 39.83 36.67C39.83 32.73 40.08 28.79 40.57 24.88C41.06 21.01 41.79 17.17 42.76 13.38C41.28 11.99 39.72 10.67 38.1 9.42C36.47 10.66 34.92 11.99 33.44 13.38C34.41 17.16 35.14 21.01 35.63 24.88C36.12 28.79 36.37 32.73 36.37 36.67C36.37 37.8 36.35 38.95 36.3 40.11C36.26 41.27 36.19 42.42 36.12 43.56V43.72L35.95 43.74L35 43.86C32.79 44.06 30.6 44.39 28.43 44.85C26.3 45.3 24.19 45.88 22.12 46.58" fill="#FCDA2F"/>
<path d="M36.79 50.81C36.88 50.51 36.97 50.22 37.04 49.92C34.82 49.96 32.61 50.13 30.41 50.44C28.63 50.69 26.85 51.02 25.1 51.44C25.02 51.64 24.93 51.85 24.84 52.05C24.81 52.13 24.77 52.2 24.74 52.28C28.7 51.39 32.74 50.9 36.8 50.81M51.46 52.28C51.43 52.2 51.39 52.13 51.36 52.05C51.27 51.84 51.18 51.64 51.1 51.44C49.35 51.02 47.57 50.69 45.79 50.44C43.6 50.13 41.38 49.96 39.16 49.92C39.23 50.22 39.31 50.52 39.41 50.81C43.47 50.9 47.51 51.39 51.47 52.28" fill="white"/>
<path d="M57.12 40.17C56.85 40.53 56.6 40.9 56.36 41.28C56.32 41.26 56.28 41.23 56.23 41.21C55.42 40.81 54.51 40.59 53.58 40.59C51.93 40.59 50.44 41.26 49.36 42.34C49.07 42.64 48.8 42.96 48.57 43.31L48.44 43.28C47.87 43.16 47.3 43.04 46.73 42.94C47.3 41.89 47.97 40.9 48.75 40C50.53 37.95 52.82 36.35 55.46 35.41C55.95 36.64 56.39 37.89 56.79 39.16L57.11 40.17H57.12ZM44.2 42.52C43.54 42.43 42.89 42.35 42.23 42.28C42.18 41.45 42.14 40.62 42.11 39.8C42.86 37.24 43.8 34.73 44.91 32.31C46.21 29.47 47.75 26.73 49.5 24.13C50.23 25.2 50.93 26.3 51.58 27.41C51.99 28.11 52.39 28.83 52.78 29.55C50.2 31.58 48.07 34.08 46.49 36.89C45.5 38.66 44.73 40.54 44.2 42.51M42.28 30.26C42.36 29.11 42.46 27.95 42.59 26.8C42.93 23.63 43.44 20.48 44.11 17.36C45.08 18.41 46.02 19.49 46.91 20.61C45.38 23.15 44.06 25.79 42.96 28.53C42.73 29.1 42.5 29.68 42.29 30.26" fill="white"/>
<path d="M42.08 38.93C42.06 38.19 42.05 37.45 42.05 36.69C42.05 34.88 42.1 33.07 42.21 31.26C42.52 30.37 42.85 29.5 43.2 28.63C44.29 25.94 45.59 23.34 47.08 20.84C47.86 21.83 48.61 22.84 49.33 23.88C47.53 26.52 45.97 29.3 44.65 32.19C43.65 34.38 42.79 36.63 42.08 38.93ZM46.45 42.88C45.79 42.76 45.13 42.65 44.47 42.56C45 40.63 45.76 38.78 46.73 37.04C48.28 34.27 50.37 31.81 52.91 29.81C53.82 31.54 54.64 33.32 55.37 35.15C52.69 36.1 50.36 37.73 48.55 39.81C47.74 40.75 47.04 41.77 46.45 42.88ZM56.21 41.51L56.19 41.55C55.53 42.63 54.98 43.78 54.56 44.97C52.69 44.34 50.79 43.81 48.87 43.38C49.07 43.08 49.31 42.8 49.56 42.54C50.59 41.51 52.01 40.88 53.58 40.88C54.47 40.88 55.33 41.09 56.1 41.47C56.14 41.49 56.17 41.51 56.21 41.52" fill="#FCDA2F"/>
<path d="M65.12 49.44L71.87 55.54C72.18 55.94 72.73 56.53 72.93 56.98C72.98 57.09 73.02 57.21 73.04 57.33C73.06 57.45 73.08 57.57 73.08 57.7C73.08 57.76 73.08 57.82 73.08 57.88C73.08 57.94 73.06 58 73.05 58.06C73.03 58.16 73 58.25 72.98 58.34C72.62 59.56 72.35 60.81 72.11 62.06C71.89 63.21 71.7 64.35 71.55 65.51C71.4 66.66 71.29 67.82 71.21 68.99C71.13 70.14 71.1 71.3 71.1 72.47C71.1 73.38 71.12 74.29 71.17 75.2C71.22 76.11 71.29 77.03 71.38 77.93C71.47 78.8 71.58 79.66 71.71 80.53C71.82 81.28 71.95 82.03 72.1 82.78C70.86 82.73 69.61 82.61 68.37 82.42C66.85 82.19 65.35 81.85 63.89 81.43L63.77 80.81C63.53 79.56 63.33 78.31 63.17 77.05C62.99 75.67 62.86 74.28 62.77 72.89C62.59 70.15 62.59 67.4 62.76 64.66C62.93 61.92 63.27 59.2 63.78 56.5L65.11 49.52C65.11 49.52 65.12 49.48 65.13 49.46" fill="white"/>
<path d="M64.34 48.74L64.97 49.31C64.96 49.36 64.94 49.42 64.93 49.47L63.6 56.45C63.09 59.15 62.74 61.89 62.57 64.63C62.4 67.38 62.41 70.13 62.58 72.88C62.67 74.27 62.8 75.66 62.98 77.05C63.15 78.31 63.34 79.58 63.58 80.83L63.68 81.36C63.56 81.32 63.43 81.28 63.31 81.25C63.25 81.22 63.18 81.2 63.11 81.18C63.08 81.18 63.04 81.17 63 81.16C62.74 79.82 62.53 78.48 62.35 77.13C62.17 75.74 62.04 74.33 61.95 72.92C61.77 70.15 61.77 67.36 61.94 64.59C62.11 61.82 62.46 59.06 62.98 56.33L64.31 49.35C64.33 49.3 64.34 49.24 64.35 49.18C64.35 49.12 64.37 49.06 64.37 49C64.37 48.91 64.36 48.82 64.34 48.73" fill="#FCDA2F"/>
<path d="M72.65 56.25C72.98 56.54 73.4 56.85 73.58 57.26C73.67 57.46 73.71 57.67 73.71 57.89C73.71 58 73.7 58.11 73.68 58.22C73.66 58.34 73.62 58.45 73.58 58.56V58.58C73 60.82 72.56 63.09 72.26 65.38C71.96 67.67 71.82 69.96 71.82 72.26C71.82 74.06 71.91 75.87 72.1 77.67C72.27 79.39 72.53 81.1 72.87 82.79C72.67 82.79 72.47 82.79 72.28 82.78C72.13 82.01 72 81.25 71.88 80.5C71.75 79.65 71.64 78.79 71.56 77.91C71.47 77 71.4 76.1 71.35 75.19C71.3 74.27 71.28 73.36 71.28 72.47C71.28 71.32 71.32 70.16 71.39 69.01C71.47 67.86 71.58 66.7 71.73 65.54C71.88 64.38 72.07 63.23 72.29 62.1C72.52 60.89 72.79 59.67 73.16 58.39C73.21 58.22 73.22 58.15 73.24 58.09C73.25 58.03 73.26 57.96 73.27 57.89C73.27 57.81 73.28 57.75 73.28 57.69C73.28 57.55 73.26 57.42 73.24 57.29C73.21 57.16 73.17 57.03 73.11 56.91C73.06 56.79 72.99 56.67 72.91 56.56C72.81 56.43 72.73 56.33 72.67 56.25" fill="#FCDA2F"/>
<path d="M61.94 60.57C61.91 60.79 61.89 61.02 61.86 61.24L59.9 62.93L59.94 62.28L61.95 60.57H61.94Z" fill="#FFC713"/>
<path d="M57.67 52.54L62.48 48.52C62.48 48.52 62.53 48.47 62.55 48.45C62.63 48.39 62.71 48.34 62.8 48.31C62.93 48.26 63.07 48.23 63.21 48.23C63.64 48.23 63.98 48.58 63.98 49C63.98 49.05 63.98 49.08 63.98 49.13C63.98 49.17 63.96 49.21 63.95 49.25V49.32V49.16C63.95 49.04 63.91 48.91 63.83 48.82C63.75 48.72 63.65 48.65 63.52 48.63H63.48C63.48 48.63 63.43 48.63 63.41 48.63C63.3 48.63 63.19 48.65 63.09 48.69C62.99 48.73 62.89 48.8 62.81 48.87H62.79L59.3 51.8L56.84 53.86C56.67 53.8 56.49 53.75 56.32 53.69L57.68 52.55L57.67 52.54Z" fill="#FFC713"/>
<path d="M57.04 53.91L62.9 49L62.92 48.98C62.98 48.92 63.06 48.87 63.14 48.84C63.84 48.56 63.9 49.47 63.82 49.91L62.61 56.26C62.36 57.6 62.14 58.94 61.97 60.29L59.95 62.02L60.38 55.11L60.12 55.01C59.1 54.62 58.07 54.24 57.03 53.9" fill="#DBDFE1"/>
<path d="M14.24 60.57C14.27 60.79 14.29 61.02 14.32 61.24L16.28 62.93L16.24 62.28L14.23 60.57H14.24Z" fill="#FFC713"/>
<path d="M8.65 69.07C8.27 69.25 7.89 69.45 7.51 69.65C7.01 69.92 6.51 70.19 6.02 70.47L5.77 70.62L5.75 70.33C5.75 70.18 5.73 70.09 5.65 69.97C5.54 69.8 5.5 69.66 5.49 69.45C5.47 69.23 5.5 69.08 5.58 68.87C5.64 68.71 5.66 68.62 5.64 68.44V68.29L5.78 68.26C6.29 68.14 6.79 68.01 7.29 67.85C7.72 67.71 8.15 67.56 8.56 67.38C8.5 66.37 8.4 65.37 8.23 64.38C8.07 63.5 7.85 62.62 7.57 61.77L7.53 61.66L7.61 61.58C7.75 61.46 7.81 61.35 7.89 61.19C7.99 60.99 8.08 60.85 8.25 60.69C8.4 60.55 8.51 60.46 8.72 60.44C8.83 60.43 8.89 60.37 8.98 60.29L9.26 60.02L9.28 60.42C9.32 61.53 9.39 62.64 9.45 63.75C9.51 64.78 9.57 65.81 9.65 66.84C10.04 66.62 10.41 66.38 10.78 66.11C11.29 65.74 11.79 65.33 12.26 64.91L12.53 64.67L12.55 65.04C12.55 65.24 12.58 65.36 12.67 65.53C12.79 65.75 12.82 65.93 12.83 66.18C12.84 66.46 12.83 66.67 12.74 66.94C12.67 67.17 12.65 67.34 12.66 67.58V67.73L12.52 67.76C12.01 67.87 11.51 68 11.01 68.15C10.58 68.28 10.15 68.43 9.73 68.6C9.75 69.75 9.79 70.9 9.82 72.06C9.85 73.32 9.86 74.58 9.88 75.84V75.98L9.74 76.01C9.45 76.07 9.45 76.43 9 76.51C8.8 76.55 8.66 76.51 8.53 76.36C8.46 76.28 8.45 76.26 8.34 76.28L8.1 76.32L8.14 76.07C8.35 74.82 8.52 73.56 8.6 72.3C8.67 71.22 8.68 70.14 8.65 69.07Z" fill="#010101"/>
<path d="M5.68 69.43C5.7 69.95 5.92 69.78 5.94 70.31C6.47 70.01 6.96 69.73 7.43 69.48C7.91 69.23 8.36 68.99 8.82 68.79C8.87 69.93 8.87 71.1 8.79 72.31C8.71 73.53 8.54 74.78 8.33 76.1C8.72 76.03 8.61 76.4 9 76.32C9.39 76.25 9.34 75.9 9.73 75.82C9.71 74.52 9.7 73.26 9.67 72.04C9.64 70.83 9.6 69.65 9.58 68.46C10.04 68.27 10.5 68.11 10.98 67.97C11.46 67.82 11.96 67.69 12.5 67.57C12.48 66.87 12.7 66.89 12.67 66.17C12.64 65.47 12.43 65.72 12.39 65.02C11.86 65.49 11.37 65.89 10.9 66.23C10.43 66.57 9.97 66.85 9.51 67.1C9.42 65.97 9.36 64.85 9.29 63.73C9.23 62.64 9.16 61.53 9.12 60.4C8.74 60.76 8.77 60.42 8.39 60.8C8.02 61.17 8.13 61.34 7.75 61.7C8.02 62.51 8.25 63.39 8.42 64.34C8.6 65.34 8.7 66.39 8.76 67.48C8.3 67.68 7.84 67.86 7.36 68.01C6.88 68.16 6.38 68.29 5.84 68.42C5.87 68.93 5.65 68.92 5.69 69.43" fill="#FCDA2F"/>
<path d="M67.53 69.07C67.91 69.25 68.29 69.45 68.67 69.65C69.17 69.92 69.67 70.19 70.16 70.47L70.41 70.62V70.33C70.43 70.18 70.44 70.1 70.52 69.97C70.64 69.8 70.67 69.66 70.68 69.45C70.69 69.23 70.67 69.08 70.59 68.87C70.53 68.71 70.51 68.62 70.52 68.44V68.29L70.38 68.26C69.88 68.14 69.37 68.01 68.87 67.85C68.44 67.71 68.02 67.56 67.6 67.38C67.66 66.37 67.76 65.37 67.93 64.38C68.09 63.5 68.31 62.62 68.59 61.77L68.63 61.66L68.55 61.58C68.42 61.45 68.35 61.35 68.27 61.19C68.17 60.99 68.08 60.85 67.92 60.69C67.77 60.55 67.65 60.46 67.45 60.44C67.34 60.43 67.28 60.37 67.19 60.29L66.91 60.02L66.89 60.42C66.85 61.53 66.78 62.64 66.71 63.75C66.65 64.78 66.59 65.81 66.51 66.84C66.12 66.62 65.75 66.37 65.38 66.11C64.87 65.74 64.37 65.32 63.9 64.9L63.63 64.66L63.61 65.02C63.59 65.22 63.58 65.34 63.49 65.51C63.37 65.73 63.34 65.91 63.33 66.16C63.32 66.44 63.34 66.65 63.42 66.92C63.49 67.15 63.51 67.32 63.5 67.56V67.71L63.64 67.74C64.15 67.85 64.65 67.98 65.15 68.13C65.58 68.27 66.01 68.41 66.42 68.58C66.4 69.73 66.36 70.88 66.33 72.04C66.3 73.3 66.29 74.56 66.27 75.82V75.96L66.41 75.99C66.7 76.05 66.7 76.41 67.15 76.49C67.35 76.53 67.49 76.49 67.63 76.34C67.7 76.26 67.71 76.24 67.82 76.26L68.06 76.3L68.02 76.05C67.81 74.8 67.65 73.54 67.56 72.28C67.49 71.2 67.48 70.12 67.51 69.05" fill="#010101"/>
<path d="M70.5 69.43C70.48 69.95 70.26 69.78 70.24 70.31C69.71 70.01 69.22 69.73 68.74 69.48C68.26 69.23 67.81 68.99 67.35 68.79C67.3 69.93 67.3 71.1 67.38 72.31C67.46 73.53 67.63 74.78 67.84 76.1C67.45 76.03 67.56 76.4 67.17 76.32C66.78 76.25 66.83 75.9 66.44 75.82C66.46 74.52 66.47 73.26 66.5 72.04C66.53 70.83 66.57 69.65 66.59 68.46C66.13 68.27 65.67 68.11 65.19 67.97C64.71 67.82 64.21 67.69 63.67 67.57C63.69 66.87 63.47 66.89 63.5 66.17C63.53 65.47 63.74 65.72 63.78 65.02C64.31 65.49 64.8 65.89 65.27 66.23C65.74 66.57 66.2 66.85 66.66 67.1C66.75 65.97 66.81 64.85 66.88 63.73C66.94 62.64 67.01 61.53 67.06 60.4C67.44 60.76 67.41 60.42 67.79 60.8C68.16 61.17 68.05 61.34 68.43 61.7C68.17 62.51 67.93 63.38 67.76 64.34C67.58 65.34 67.48 66.39 67.42 67.48C67.88 67.68 68.34 67.86 68.82 68.01C69.3 68.16 69.8 68.29 70.34 68.42C70.31 68.93 70.53 68.92 70.49 69.43" fill="#FCDA2F"/>
<path d="M23.75 101.43C27.29 105.88 32.18 109.19 38.09 110.7C44 109.18 48.89 105.87 52.43 101.43C56.09 96.83 58.32 91.03 58.75 84.73L60 55.37C56.3 53.93 52.83 52.85 49.31 52.11C45.74 51.37 42.11 50.99 38.09 50.99C34.07 50.99 30.43 51.36 26.87 52.11C23.34 52.84 19.88 53.93 16.18 55.37L17.43 84.73C17.86 91.02 20.09 96.83 23.75 101.43ZM38.04 111.08C32.03 109.55 27.06 106.18 23.46 101.67C19.75 97.02 17.5 91.14 17.06 84.77L15.8 55.26V55.13L15.92 55.08C19.69 53.61 23.2 52.5 26.79 51.76C30.38 51.02 34.04 50.64 38.09 50.64C42.14 50.64 45.8 51.02 49.39 51.76C52.98 52.51 56.5 53.62 60.27 55.08L60.39 55.13V55.26L59.13 84.76C58.69 91.14 56.44 97.02 52.73 101.67C49.13 106.19 44.16 109.55 38.14 111.08H38.04Z" fill="#010101"/>
<path d="M101.75 8.81H100.88V119.25H101.75V8.81Z" fill="#2758A7"/>
</svg>
