<svg width="21" height="15" viewBox="0 0 21 15" fill="none" xmlns="http://www.w3.org/2000/svg">
<path d="M0.0785249 7.60683L0.0785249 7.38913C0.0983444 7.3085 0.114201 7.22786 0.137985 7.15126C0.284649 6.72795 0.653292 6.4538 1.09725 6.43767C1.13292 6.43767 1.16464 6.43767 1.20031 6.43767C6.57933 6.43767 11.9623 6.43767 17.3413 6.43767L17.4166 6.43767C17.3928 6.41348 17.381 6.39736 17.3651 6.38123C15.8945 4.88551 14.4239 3.3898 12.9533 1.89408C12.7432 1.68041 12.6243 1.42642 12.6282 1.12405C12.6322 0.700732 12.8264 0.382237 13.1951 0.176626C13.2981 0.116152 13.4131 0.0838989 13.532 0.0677726C13.5399 0.0677726 13.5518 0.0597121 13.5598 0.0597121L13.7857 0.0597121C13.7936 0.0637437 13.7976 0.0677726 13.8055 0.0677726C14.0592 0.100025 14.2693 0.220974 14.4477 0.406427C16.5287 2.51898 18.6058 4.63152 20.6869 6.74407C20.7978 6.85696 20.885 6.98597 20.9326 7.13917C20.9643 7.24399 20.9762 7.35284 21 7.46169L21 7.53426C20.996 7.55442 20.9921 7.57055 20.9921 7.5907C20.9802 7.76809 20.9286 7.93339 20.8256 8.07853C20.7503 8.18335 20.6631 8.27607 20.5719 8.3688C18.5265 10.4531 16.4772 12.5334 14.4318 14.6137C14.2812 14.7669 14.1068 14.8677 13.9007 14.9161C13.861 14.9242 13.8253 14.9322 13.7857 14.9403L13.5598 14.9403C13.4805 14.9201 13.4012 14.904 13.3259 14.8798C12.6203 14.6298 12.3983 13.7308 12.8978 13.1664C12.9255 13.1341 12.9533 13.1059 12.981 13.0777C14.4397 11.5941 15.9024 10.1064 17.3611 8.62279C17.377 8.60666 17.3968 8.59054 17.4166 8.57844C17.4127 8.57441 17.4127 8.56635 17.4087 8.56232L1.14878 8.56232C0.633473 8.56232 0.225192 8.23576 0.106275 7.72778C0.0983472 7.68746 0.0904166 7.64715 0.0785249 7.60683Z" fill="#3F4144"/>
</svg>
